<svg width="24" height="24" viewBox="0 0 24 24" fill="none" xmlns="http://www.w3.org/2000/svg">
<path d="M9.14887 5.448C9.74519 3.698 12.1564 3.645 12.8634 5.289L12.9232 5.449L13.7279 7.809C13.9124 8.35023 14.2104 8.84551 14.6019 9.26142C14.9934 9.67734 15.4693 10.0042 15.9975 10.22L16.2139 10.301L18.5673 11.107C20.3123 11.705 20.3652 14.123 18.7268 14.832L18.5673 14.892L16.2139 15.699C15.674 15.8838 15.1799 16.1826 14.765 16.5753C14.3501 16.9679 14.024 17.4452 13.8087 17.975L13.7279 18.191L12.9242 20.552C12.3279 22.302 9.91671 22.355 9.2107 20.712L9.14887 20.552L8.34514 18.192C8.16085 17.6506 7.86288 17.1551 7.47135 16.739C7.07983 16.3229 6.60386 15.9959 6.07556 15.78L5.86016 15.699L3.50681 14.893C1.76074 14.295 1.70789 11.877 3.34726 11.169L3.50681 11.107L5.86016 10.301C6.39987 10.1161 6.89376 9.81719 7.3085 9.42457C7.72324 9.03195 8.04919 8.55469 8.26437 8.025L8.34514 7.809L9.14887 5.448ZM11.0365 6.094L10.2328 8.454C9.952 9.2793 9.49516 10.0333 8.89413 10.6635C8.2931 11.2937 7.5623 11.7849 6.75264 12.103L6.50335 12.194L4.15 13L6.50335 13.806C7.32633 14.0876 8.0782 14.5457 8.70662 15.1485C9.33504 15.7512 9.82489 16.4841 10.1421 17.296L10.2328 17.546L11.0365 19.906L11.8403 17.546C12.1211 16.7207 12.5779 15.9667 13.179 15.3365C13.78 14.7063 14.5108 14.2151 15.3204 13.897L15.5697 13.807L17.9231 13L15.5697 12.194C14.7468 11.9124 13.9949 11.4543 13.3665 10.8515C12.738 10.2488 12.2482 9.51595 11.931 8.704L11.8413 8.454L11.0365 6.094ZM19.014 2C19.2006 2 19.3834 2.05248 19.5417 2.15147C19.7 2.25046 19.8274 2.392 19.9095 2.56L19.9573 2.677L20.3064 3.703L21.3305 4.053C21.5174 4.1167 21.6813 4.23462 21.8014 4.39182C21.9214 4.54902 21.9922 4.73842 22.0048 4.93602C22.0174 5.13362 21.9713 5.33053 21.8722 5.50179C21.773 5.67304 21.6255 5.81094 21.4481 5.898L21.3305 5.946L20.3074 6.296L19.9583 7.323C19.8947 7.51043 19.777 7.6747 19.6202 7.79499C19.4634 7.91529 19.2745 7.98619 19.0775 7.99872C18.8804 8.01125 18.6841 7.96484 18.5134 7.86538C18.3427 7.76591 18.2053 7.61787 18.1185 7.44L18.0707 7.323L17.7217 6.297L16.6976 5.947C16.5106 5.8833 16.3467 5.76538 16.2267 5.60819C16.1066 5.45099 16.0358 5.26158 16.0232 5.06398C16.0106 4.86638 16.0568 4.66947 16.1559 4.49821C16.255 4.32696 16.4025 4.18906 16.5799 4.102L16.6976 4.054L17.7207 3.704L18.0697 2.677C18.1369 2.47943 18.2641 2.30791 18.4335 2.1865C18.6028 2.06509 18.8058 1.99987 19.014 2Z" fill="#3E5ECF"/>
</svg>
