<svg width="20" height="21" viewBox="0 0 20 21" fill="none" xmlns="http://www.w3.org/2000/svg">
<path d="M7.66666 12.75H11.7267V11.5833H7.66666V12.75ZM7.66666 9.25H15.789V8.08333H7.66666V9.25ZM7.66666 5.75H15.789V4.58333H7.66666V5.75ZM5.46866 16.8333C4.93122 16.8333 4.48283 16.6537 4.1235 16.2943C3.76416 15.935 3.58411 15.4866 3.58333 14.9492V2.38417C3.58333 1.8475 3.76339 1.39911 4.1235 1.039C4.48361 0.678889 4.932 0.499222 5.46866 0.5H18.0325C18.5692 0.5 19.0176 0.679667 19.3777 1.039C19.7378 1.39833 19.9174 1.84672 19.9167 2.38417V14.9492C19.9167 15.4858 19.737 15.9338 19.3777 16.2932C19.0183 16.6525 18.5696 16.8326 18.0313 16.8333H5.46866ZM5.46866 15.6667H18.0325C18.2114 15.6667 18.3759 15.592 18.526 15.4427C18.6761 15.2933 18.7508 15.1288 18.75 14.9492V2.38417C18.75 2.20528 18.6753 2.04078 18.526 1.89067C18.3767 1.74056 18.2118 1.66589 18.0313 1.66667H5.46866C5.289 1.66667 5.12411 1.74133 4.974 1.89067C4.82389 2.04 4.74922 2.2045 4.75 2.38417V14.9492C4.75 15.1281 4.82466 15.2926 4.974 15.4427C5.12333 15.5928 5.28783 15.6674 5.4675 15.6667M1.9675 20.3333C1.43083 20.3333 0.982442 20.1537 0.622331 19.7943C0.26222 19.435 0.082553 18.9866 0.0833308 18.4492V4.7175H1.25V18.4492C1.25 18.6281 1.32466 18.7926 1.474 18.9427C1.62333 19.0928 1.78783 19.1674 1.9675 19.1667H15.6992V20.3333H1.9675Z" fill="black"/>
</svg>
