<svg width="101" height="35" viewBox="0 0 101 35" fill="none" xmlns="http://www.w3.org/2000/svg">
<path d="M19.3219 16.7851V17.8846C19.3219 19.4972 19.1069 20.9485 18.6768 22.2386C18.2468 23.5189 17.636 24.6087 16.8443 25.5078C16.0527 26.4069 15.1096 27.096 14.015 27.5749C12.9203 28.0538 11.7036 28.2932 10.3646 28.2932C9.04521 28.2932 7.83332 28.0538 6.72894 27.5749C5.63432 27.096 4.68631 26.4069 3.8849 25.5078C3.08348 24.6087 2.46288 23.5189 2.02308 22.2386C1.58328 20.9485 1.36338 19.4972 1.36338 17.8846V16.7851C1.36338 15.1627 1.58328 13.7114 2.02308 12.4311C2.46288 11.1508 3.0786 10.0611 3.87024 9.16191C4.66188 8.25299 5.605 7.55909 6.69962 7.08019C7.804 6.6013 9.01589 6.36186 10.3353 6.36186C11.6742 6.36186 12.891 6.6013 13.9856 7.08019C15.0802 7.55909 16.0234 8.25299 16.815 9.16191C17.6164 10.0611 18.2321 11.1508 18.6622 12.4311C19.102 13.7114 19.3219 15.1627 19.3219 16.7851ZM15.2464 17.8846V16.7558C15.2464 15.5928 15.1389 14.5714 14.9239 13.6919C14.7089 12.8025 14.3912 12.0548 13.971 11.4489C13.5507 10.8429 13.0327 10.3885 12.417 10.0855C11.8013 9.77275 11.1074 9.61637 10.3353 9.61637C9.55343 9.61637 8.85952 9.77275 8.25357 10.0855C7.6574 10.3885 7.14919 10.8429 6.72894 11.4489C6.30868 12.0548 5.98616 12.8025 5.76138 13.6919C5.54636 14.5714 5.43886 15.5928 5.43886 16.7558V17.8846C5.43886 19.0379 5.54636 20.0592 5.76138 20.9485C5.98616 21.8379 6.30868 22.5905 6.72894 23.2062C7.15896 23.8121 7.67695 24.2715 8.28289 24.5842C8.88884 24.897 9.58275 25.0533 10.3646 25.0533C11.1465 25.0533 11.8404 24.897 12.4463 24.5842C13.0523 24.2715 13.5605 23.8121 13.971 23.2062C14.3912 22.5905 14.7089 21.8379 14.9239 20.9485C15.1389 20.0592 15.2464 19.0379 15.2464 17.8846ZM22.7376 6.65506H30.4928C32.1152 6.65506 33.5078 6.89939 34.6709 7.38805C35.8339 7.87672 36.7282 8.59995 37.3537 9.55773C37.9791 10.5155 38.2919 11.6932 38.2919 13.0908C38.2919 14.1952 38.0964 15.153 37.7055 15.9641C37.3146 16.7753 36.7624 17.4546 36.0489 18.0019C35.3452 18.5492 34.5145 18.9792 33.5567 19.292L32.296 19.937H25.4497L25.4204 16.7558H30.5368C31.3675 16.7558 32.0565 16.6092 32.6038 16.316C33.1511 16.0228 33.5616 15.6172 33.8353 15.0992C34.1187 14.5812 34.2604 13.9899 34.2604 13.3254C34.2604 12.6119 34.1236 11.9962 33.8499 11.4782C33.5763 10.9504 33.1609 10.5448 32.6038 10.2614C32.0467 9.97799 31.3431 9.83627 30.4928 9.83627H26.7691V28H22.7376V6.65506ZM34.7882 28L29.8477 18.4417L34.1138 18.427L39.1129 27.7948V28H34.7882ZM50.0492 6.65506V28H46.0324V6.65506H50.0492ZM56.6755 6.65506V9.83627H39.4794V6.65506H56.6755ZM55.7373 26.1089C55.7373 25.5225 55.9376 25.0289 56.3383 24.6282C56.739 24.2275 57.2815 24.0271 57.9656 24.0271C58.6497 24.0271 59.1922 24.2275 59.5929 24.6282C59.9936 25.0289 60.1939 25.5225 60.1939 26.1089C60.1939 26.6855 59.9936 27.1742 59.5929 27.5749C59.1922 27.9658 58.6497 28.1613 57.9656 28.1613C57.2815 28.1613 56.739 27.9658 56.3383 27.5749C55.9376 27.1742 55.7373 26.6855 55.7373 26.1089ZM67.9784 5.4676V28H64.1081V5.4676H67.9784ZM77.9178 12.1379L71.013 19.893L67.2747 23.69L66.0433 20.6847L68.9313 17.049L73.2413 12.1379H77.9178ZM73.9596 28L69.0485 20.6114L71.6287 18.1045L78.4456 28H73.9596ZM89.7631 12.1379H93.2815V27.5162C93.2815 28.9529 92.9688 30.1697 92.3433 31.1666C91.7276 32.1732 90.8626 32.9355 89.7485 33.4535C88.6343 33.9813 87.3393 34.2452 85.8636 34.2452C85.2283 34.2452 84.5393 34.1572 83.7965 33.9813C83.0635 33.8054 82.3549 33.5268 81.6708 33.1457C80.9964 32.7743 80.4345 32.2905 79.9849 31.6943L81.7294 29.4074C82.2572 30.0231 82.8534 30.4873 83.518 30.8001C84.1825 31.1226 84.9009 31.2838 85.673 31.2838C86.4548 31.2838 87.1194 31.1372 87.6667 30.844C88.2238 30.5606 88.649 30.1404 88.9422 29.5833C89.2451 29.036 89.3966 28.3616 89.3966 27.5602V15.7589L89.7631 12.1379ZM79.0467 20.2595V19.9517C79.0467 18.7398 79.1933 17.6403 79.4865 16.6532C79.7797 15.6563 80.1999 14.8011 80.7472 14.0877C81.3043 13.3742 81.9738 12.822 82.7556 12.4311C83.5473 12.0402 84.4367 11.8447 85.4238 11.8447C86.4695 11.8447 87.3491 12.0353 88.0626 12.4164C88.7858 12.7976 89.382 13.34 89.8511 14.0437C90.33 14.7474 90.7014 15.583 90.9652 16.5505C91.2389 17.5083 91.449 18.5639 91.5956 19.7171V20.5527C91.4588 21.6767 91.2389 22.7077 90.9359 23.646C90.6427 24.5842 90.2518 25.4052 89.7631 26.1089C89.2744 26.8028 88.6685 27.3403 87.9453 27.7215C87.222 28.1026 86.3718 28.2932 85.3944 28.2932C84.4171 28.2932 83.5375 28.0928 82.7556 27.6921C81.9738 27.2914 81.3043 26.7295 80.7472 26.0062C80.1999 25.283 79.7797 24.4327 79.4865 23.4554C79.1933 22.4781 79.0467 21.4128 79.0467 20.2595ZM82.9169 19.9517V20.2595C82.9169 20.9437 82.9853 21.5838 83.1221 22.18C83.259 22.7762 83.4691 23.3039 83.7525 23.7633C84.0359 24.2128 84.3927 24.5647 84.8227 24.8188C85.2527 25.0729 85.7658 25.1999 86.362 25.1999C87.1634 25.1999 87.8182 25.0338 88.3264 24.7015C88.8444 24.3594 89.2354 23.8952 89.4992 23.3088C89.7729 22.7126 89.9488 22.0432 90.027 21.3004V18.9988C89.9781 18.4124 89.8706 17.8699 89.7045 17.3715C89.5481 16.8731 89.3282 16.443 89.0448 16.0814C88.7613 15.7198 88.3997 15.4364 87.9599 15.2311C87.5201 15.0259 86.9973 14.9233 86.3913 14.9233C85.8049 14.9233 85.2918 15.0552 84.852 15.3191C84.4122 15.5732 84.0506 15.9299 83.7672 16.3893C83.4838 16.8486 83.2687 17.3813 83.1221 17.9872C82.9853 18.5932 82.9169 19.248 82.9169 19.9517Z" fill="#7FC7FF"/>
<g clip-path="url(#clip0_837_176)">
<path d="M86.011 11.6406C86.011 11.6406 86.9468 13.8834 89.0846 14.8429C91.2225 15.8023 93.5191 15.0101 93.5191 15.0101C93.5191 15.0101 94.4675 13.7017 94.8091 10.861C94.9889 9.36318 89.2175 6.61238 88.2449 7.5565C86.5927 9.15847 86.011 11.6406 86.011 11.6406Z" fill="black"/>
<path d="M93.5187 15.0101L92.8218 15.191C92.8218 15.191 93.191 14.3797 93.28 13.5083C93.3131 13.1825 93.0304 12.9129 92.7064 12.959L90.1986 13.308C90.0611 13.327 89.9211 13.3075 89.7941 13.2517C89.6671 13.1958 89.5581 13.1058 89.4793 12.9916C88.7986 12.0049 87.0251 9.42594 86.9546 9.28505C86.9546 9.28505 87.0367 9.10209 87.1874 8.88948L94.7672 12.3027L93.5187 15.0101Z" fill="#212121"/>
<path d="M85.361 6.28548L89.814 12.6327C89.9111 12.7715 90.077 12.8459 90.2463 12.8267L97.9461 11.9335C98.1603 11.9088 98.2703 11.6638 98.1464 11.4873L93.6933 5.14006C93.5962 5.00134 93.4304 4.92691 93.2611 4.94607L85.5591 5.83833C85.3459 5.86352 85.236 6.10855 85.361 6.28548Z" fill="black"/>
<path d="M90.1442 12.462C90.1453 12.4625 90.1469 12.4645 90.148 12.465C90.1651 12.4727 90.1842 12.4761 90.2035 12.4732L98.1981 11.6621C98.1981 11.6621 98.2027 11.7349 98.1242 11.8269C98.0445 11.9184 97.9799 11.9306 97.946 11.9346L90.244 12.8269C90.1599 12.8367 90.0758 12.8234 90.0009 12.7898L89.9967 12.7879L90.1431 12.4615L90.1442 12.462Z" fill="#9E9E9E"/>
<path d="M90.1483 12.4639C90.1472 12.4634 90.1446 12.4636 90.1435 12.4631C90.1264 12.4554 90.1112 12.4434 90.1005 12.4271L85.3923 5.91515C85.3923 5.91515 85.3349 5.96007 85.3184 6.07993C85.3029 6.20026 85.3368 6.25659 85.3563 6.28465L89.8094 12.6319C89.8579 12.7013 89.9237 12.7552 89.9986 12.7888L90.0029 12.7908L90.1494 12.4644L90.1483 12.4639Z" fill="#616161"/>
<path d="M93.8427 12.4096L93.9434 12.0936C93.9434 12.0936 91.961 9.49035 91.7693 9.22435C91.5776 8.95834 91.3807 8.66945 91.3198 8.48144C91.2115 8.15001 91.4318 8.0715 91.4318 8.0715C91.4318 8.0715 91.4779 8.42129 91.9029 8.55417C92.1465 8.63007 92.5312 8.57776 92.6209 8.51259C92.7106 8.44742 94.626 11.9706 94.626 11.9706L94.4864 12.336L93.8427 12.4096Z" fill="#424242"/>
<path d="M91.431 8.07259C91.5356 8.59002 92.0875 8.63202 92.0875 8.63202C92.0875 8.63202 93.2556 10.0137 93.3597 9.93056C93.4639 9.84746 92.4756 8.60949 92.4756 8.60949C92.4756 8.60949 92.6654 8.37845 92.7083 8.26274C92.7083 8.26274 94.3687 10.7844 95.0175 11.6733C95.3572 12.1395 95.3441 12.4293 95.1874 12.7755C95.1193 12.9274 94.8958 13.4197 94.7616 13.713C94.7371 13.7675 94.7376 13.8295 94.7639 13.8824C94.8039 13.9626 94.8256 14.0506 94.8274 14.1401C94.8292 14.2296 94.8112 14.3184 94.7746 14.4001C94.7011 14.5638 94.5636 14.6782 94.4046 14.729C94.3191 14.7562 94.2791 14.8797 94.2397 14.9532C94.1637 15.0939 94.1446 15.1651 94.144 15.3268C94.1438 15.4848 94.1379 15.6441 94.1129 15.8C94.0937 15.92 94.0635 16.0388 94.0338 16.1566C93.8332 16.9446 93.5404 17.7516 93.5759 18.5748C93.5766 18.5902 93.5743 18.6056 93.569 18.6201C93.5637 18.6346 93.5556 18.6479 93.5451 18.6592C93.5346 18.6705 93.522 18.6797 93.508 18.6861C93.494 18.6925 93.4788 18.6961 93.4634 18.6966C93.4322 18.698 93.4018 18.687 93.3787 18.666C93.3556 18.6451 93.3417 18.6158 93.3401 18.5847C93.3216 18.156 93.4026 17.7321 93.4982 17.3187C93.3483 17.6641 93.1949 18.0117 93.0386 18.3915C93.0081 18.4652 92.9476 18.6142 92.8669 18.6165C92.5633 18.6256 92.7304 18.2532 92.7304 18.2532C92.7304 18.2532 92.5769 18.5867 92.2377 18.4344C91.8985 18.2822 92.0242 17.9363 92.0242 17.9363C92.0242 17.9363 91.8618 18.2323 91.6941 18.1391C91.6264 18.1009 91.5525 18.0164 91.7504 17.6642C91.9478 17.3132 92.6189 16.0384 92.8405 15.6391C93.1476 15.0866 93.4891 14.8298 93.6188 14.6437C93.6673 14.5729 93.7044 14.4932 93.666 14.4155C93.6267 14.3368 93.6051 14.2505 93.6026 14.1626C93.6001 14.0746 93.6167 13.9872 93.6514 13.9064C93.6861 13.8255 93.738 13.7532 93.8034 13.6945C93.8689 13.6357 93.9464 13.5919 94.0305 13.5661C94.0603 13.557 94.0877 13.5411 94.1103 13.5195C94.1329 13.498 94.1502 13.4714 94.1607 13.442C94.2647 13.1558 94.4228 12.7434 94.4464 12.6421C94.555 12.1882 94.3821 12.0207 94.2259 11.8015C94.0703 11.5812 91.6268 8.81088 91.5014 8.61192C91.2701 8.24205 91.431 8.07259 91.431 8.07259Z" fill="#E2A610"/>
<path d="M91.431 8.07257C91.5277 8.5646 92.1516 8.64402 92.1516 8.64402C92.1516 8.64402 93.2753 9.89522 93.2326 9.74109C93.191 9.58745 92.4756 8.60947 92.4756 8.60947C92.4756 8.60947 92.6654 8.37843 92.7083 8.26272C92.7083 8.26272 94.4598 10.6903 95.0819 11.7588C95.242 12.0351 95.4104 12.4448 95.0474 12.6149C94.88 12.6927 94.6551 12.6239 94.5644 12.4624C94.5089 12.3655 94.484 12.2489 94.4425 12.1467C94.392 12.0187 94.3078 11.914 94.2292 11.8029C94.0735 11.5826 91.63 8.8123 91.5046 8.61334C91.2701 8.24203 91.431 8.07257 91.431 8.07257Z" fill="#FFCA28"/>
<path d="M93.795 15.1907C93.9362 15.2541 94.0368 15.2851 94.1325 15.3036C94.1496 15.307 94.1673 15.3042 94.1824 15.2957C94.1976 15.2871 94.2092 15.2735 94.2151 15.2571L94.3707 14.8359C94.3863 14.7927 94.3596 14.7461 94.3137 14.7396C94.2049 14.7242 93.9998 14.6656 93.715 14.4581C93.6803 14.4322 93.6298 14.4417 93.6078 14.4794L93.3825 14.8667C93.3644 14.8985 93.3719 14.9391 93.4006 14.961C93.5475 15.0719 93.6634 15.1316 93.795 15.1907Z" fill="#9E740B"/>
<path d="M86.011 11.6406C86.011 11.6406 86.2653 10.567 86.8133 9.54926C86.9059 9.3774 87.0837 9.27337 86.8892 9.93297C86.7775 10.3109 86.4036 11.4247 86.2831 12.1715C86.0986 11.8522 86.011 11.6406 86.011 11.6406ZM92.2006 7.39577C92.1114 7.38533 92.0128 7.41307 91.9565 7.4842C91.8817 7.57919 91.9011 7.71644 91.9364 7.83256C92.0052 8.06013 92.1367 8.29138 92.3573 8.38137C92.4299 8.41141 92.5175 8.42244 92.5869 8.38542C92.6356 8.35975 92.6694 8.3132 92.6952 8.26435C92.8791 7.90599 92.5888 7.44147 92.2006 7.39577Z" fill="#616161"/>
</g>
<defs>
<clipPath id="clip0_837_176">
<rect width="15.0118" height="15.0118" fill="white" transform="matrix(-0.912336 -0.409442 -0.409442 0.912336 101 6.6156)"/>
</clipPath>
</defs>
</svg>
