<svg width="156" height="156" viewBox="0 0 156 156" fill="none" xmlns="http://www.w3.org/2000/svg">
<path d="M65.0003 134.333C65.0003 143.906 61.5727 151.667 52.0003 151.667H21.667C4.33366 151.667 4.33366 91 21.667 91H52.0003C61.5727 91 65.0003 98.761 65.0003 108.333V134.333Z" fill="#553788"/>
<path d="M147.333 143H143V99.6667H147.333C148.482 99.6667 149.584 99.2101 150.397 98.3975C151.21 97.5848 151.666 96.4826 151.666 95.3333C151.666 94.1841 151.21 93.0819 150.397 92.2692C149.584 91.4565 148.482 91 147.333 91H43.333C25.9997 91 25.9997 151.667 43.333 151.667H147.333C148.482 151.667 149.584 151.21 150.397 150.397C151.21 149.585 151.666 148.483 151.666 147.333C151.666 146.184 151.21 145.082 150.397 144.269C149.584 143.457 148.482 143 147.333 143Z" fill="#9266CC"/>
<path d="M148.079 143H47.667C39.0003 143 39.0003 99.6667 47.667 99.6667H148.079C152.863 99.6667 152.863 143 148.079 143Z" fill="#CCD6DD"/>
<path d="M49.8333 108.333H151.017C150.432 103.242 149.457 99.6667 148.079 99.6667H47.6666C40.5123 99.6667 39.2686 129.168 43.9269 139.481C42.2283 126.659 44.1956 108.333 49.8333 108.333Z" fill="#99AAB5"/>
<path d="M51.9997 34.6667C51.9997 39.2638 50.1735 43.6726 46.9229 46.9232C43.6722 50.1738 39.2634 52 34.6663 52H17.333C-0.000325203 52 -0.000325203 4.33334 17.333 4.33334H34.6663C39.2634 4.33334 43.6722 6.15952 46.9229 9.41015C50.1735 12.6608 51.9997 17.0696 51.9997 21.6667V34.6667Z" fill="#226699"/>
<path d="M134.333 43.3333H130V13H134.333C135.482 13 136.584 12.5435 137.397 11.7308C138.21 10.9181 138.666 9.81594 138.666 8.66667C138.666 7.5174 138.21 6.4152 137.397 5.60254C136.584 4.78988 135.482 4.33334 134.333 4.33334H30.333C12.9997 4.33334 12.9997 52 30.333 52H134.333C135.482 52 136.584 51.5435 137.397 50.7308C138.21 49.9181 138.666 48.8159 138.666 47.6667C138.666 46.5174 138.21 45.4152 137.397 44.6025C136.584 43.7899 135.482 43.3333 134.333 43.3333Z" fill="#55ACEE"/>
<path d="M135.079 43.3333H34.667C26.0003 43.3333 26.0003 13 34.667 13H135.079C139.863 13 139.863 43.3333 135.079 43.3333Z" fill="#CCD6DD"/>
<path d="M34.6669 21.6667H138.342C137.848 16.7917 136.765 13 135.079 13H34.6669C29.4972 13 27.4345 23.7857 28.4355 32.5C29.1115 26.6153 31.1699 21.6667 34.6669 21.6667Z" fill="#99AAB5"/>
<path d="M86.6667 73.6667C86.6667 78.2638 84.8405 82.6726 81.5899 85.9232C78.3392 89.1738 73.9304 91 69.3333 91H26C8.66667 91 8.66667 52 26 52H69.3333C73.9304 52 78.3392 53.8262 81.5899 57.0768C84.8405 60.3274 86.6667 64.7362 86.6667 69.3333V73.6667Z" fill="#F4900C"/>
<path d="M151.667 82.3333H147.333V60.6667H151.667C152.816 60.6667 153.918 60.2101 154.731 59.3975C155.543 58.5848 156 57.4826 156 56.3333C156 55.1841 155.543 54.0819 154.731 53.2692C153.918 52.4565 152.816 52 151.667 52H65C47.6667 52 47.6667 91 65 91H151.667C152.816 91 153.918 90.5435 154.731 89.7308C155.543 88.9181 156 87.8159 156 86.6667C156 85.5174 155.543 84.4152 154.731 83.6025C153.918 82.7899 152.816 82.3333 151.667 82.3333Z" fill="#FFAC33"/>
<path d="M152.412 82.3333H69.333C60.6663 82.3333 60.6663 60.6667 69.333 60.6667H152.412C157.196 60.6667 157.196 82.3333 152.412 82.3333Z" fill="#CCD6DD"/>
<path d="M69.3335 69.3333H155.931C155.649 64.7313 154.483 60.6667 152.412 60.6667H69.3335C63.8128 60.6667 61.8238 69.4503 63.3405 75.8333C64.1985 72.1977 66.1875 69.3333 69.3335 69.3333Z" fill="#99AAB5"/>
</svg>
