<svg width="334" height="220" viewBox="0 0 334 220" fill="none" xmlns="http://www.w3.org/2000/svg">
<circle cx="260.373" cy="104.734" r="73.1383" fill="#D7E3FE" fill-opacity="0.14"/>
<circle cx="135.16" cy="162.074" r="57.9255" fill="#D7E3FE" fill-opacity="0.14"/>
<circle cx="157.393" cy="73.1383" r="73.1383" fill="#D7E3FE" fill-opacity="0.14"/>
<path d="M141.304 52.0745C142.374 52.0745 143.401 52.4998 144.158 53.2569C144.916 54.0141 145.341 55.041 145.341 56.1117C145.341 57.1824 144.916 58.2093 144.158 58.9665C143.401 59.7236 142.374 60.1489 141.304 60.1489H20.1866C19.1159 60.1489 18.089 59.7236 17.3319 58.9665C16.5748 58.2093 16.1494 57.1824 16.1494 56.1117C16.1494 55.041 16.5748 54.0141 17.3319 53.2569C18.089 52.4998 19.1159 52.0745 20.1866 52.0745H141.304ZM141.304 76.2979C142.374 76.2979 143.401 76.7232 144.158 77.4803C144.916 78.2375 145.341 79.2644 145.341 80.3351C145.341 81.4058 144.916 82.4327 144.158 83.1899C143.401 83.947 142.374 84.3723 141.304 84.3723H20.1866C19.1159 84.3723 18.089 83.947 17.3319 83.1899C16.5748 82.4327 16.1494 81.4058 16.1494 80.3351C16.1494 79.2644 16.5748 78.2375 17.3319 77.4803C18.089 76.7232 19.1159 76.2979 20.1866 76.2979H141.304ZM72.6707 128.782C72.6707 127.425 72.7299 126.08 72.8483 124.745H20.1866C19.1159 124.745 18.089 125.17 17.3319 125.927C16.5748 126.684 16.1494 127.711 16.1494 128.782C16.1494 129.853 16.5748 130.88 17.3319 131.637C18.089 132.394 19.1159 132.819 20.1866 132.819H72.8483C72.733 131.476 72.6737 130.13 72.6707 128.782ZM77.5154 108.596C79.0011 105.7 80.7694 103.008 82.8203 100.521H20.1866C19.1159 100.521 18.089 100.947 17.3319 101.704C16.5748 102.461 16.1494 103.488 16.1494 104.559C16.1494 105.629 16.5748 106.656 17.3319 107.413C18.089 108.17 19.1159 108.596 20.1866 108.596H77.5154ZM117.08 92.4468C126.717 92.4468 135.959 96.275 142.773 103.089C149.587 109.903 153.415 119.145 153.415 128.782C153.415 138.419 149.587 147.661 142.773 154.475C135.959 161.289 126.717 165.117 117.08 165.117C107.444 165.117 98.2016 161.289 91.3875 154.475C84.5733 147.661 80.7452 138.419 80.7452 128.782C80.7452 119.145 84.5733 109.903 91.3875 103.089C98.2016 96.275 107.444 92.4468 117.08 92.4468ZM108.029 139.028L99.9624 129.121L99.4537 128.604C98.6868 127.954 97.7047 127.612 96.6995 127.648C95.6944 127.683 94.7386 128.092 94.0194 128.796C93.3002 129.499 92.8693 130.445 92.8111 131.449C92.7528 132.453 93.0715 133.443 93.7047 134.224L104.524 147.507L105.057 148.048C105.817 148.686 106.785 149.023 107.777 148.993C108.769 148.963 109.715 148.569 110.435 147.886L138.793 118.487L139.277 117.938C139.876 117.124 140.148 116.114 140.038 115.109C139.929 114.105 139.447 113.177 138.687 112.511C137.927 111.844 136.945 111.487 135.934 111.509C134.924 111.532 133.958 111.933 133.229 112.633L108.029 139.028Z" fill="#7695FF"/>
</svg>
