<svg width="56" height="56" viewBox="0 0 56 56" fill="none" xmlns="http://www.w3.org/2000/svg">
<path d="M21.1317 45.2594L5.5348 29.7456C5.44485 29.6562 5.37347 29.5499 5.32476 29.4327C5.27605 29.3156 5.25098 29.19 5.25098 29.0631C5.25098 28.9363 5.27605 28.8107 5.32476 28.6936C5.37347 28.5764 5.44485 28.4701 5.5348 28.3806L9.4723 24.4388C9.84855 24.0625 10.4567 24.0625 10.8329 24.4388L21.1011 34.6456C21.4773 35.0219 22.0898 35.0175 22.466 34.6413L45.1548 11.7338C45.5311 11.3531 46.1436 11.3531 46.5242 11.7294L50.466 15.6713C50.8423 16.0475 50.8423 16.6556 50.4704 17.0319L25.7517 41.9738L25.7561 41.9781L22.4967 45.255C22.1204 45.6313 21.5079 45.6313 21.1317 45.2594Z" fill="#40C0E7" stroke="#40C0E7" stroke-width="6" stroke-miterlimit="10"/>
</svg>
