<svg width="238" height="237" viewBox="0 0 238 237" fill="none" xmlns="http://www.w3.org/2000/svg">
<g clip-path="url(#clip0_937_217)">
<g filter="url(#filter0_i_937_217)">
<path d="M188.484 70.867L102.75 40.3889C98.9799 39.0487 94.8374 41.0184 93.4972 44.7882L48.4187 171.593C47.0786 175.363 49.0482 179.505 52.8181 180.845L138.552 211.324C142.322 212.664 146.465 210.694 147.805 206.924L192.883 80.1196C194.223 76.3497 192.254 72.2072 188.484 70.867Z" fill="url(#paint0_linear_937_217)"/>
<path d="M188.484 70.867L102.75 40.3889C98.9799 39.0487 94.8374 41.0184 93.4972 44.7882L48.4187 171.593C47.0786 175.363 49.0482 179.505 52.8181 180.845L138.552 211.324C142.322 212.664 146.465 210.694 147.805 206.924L192.883 80.1196C194.223 76.3497 192.254 72.2072 188.484 70.867Z" fill="url(#paint1_linear_937_217)"/>
</g>
<path d="M188.484 70.867L102.75 40.3889C98.9799 39.0487 94.8374 41.0184 93.4972 44.7882L48.4187 171.593C47.0786 175.363 49.0482 179.505 52.8181 180.845L138.552 211.324C142.322 212.664 146.465 210.694 147.805 206.924L192.883 80.1196C194.223 76.3497 192.254 72.2072 188.484 70.867Z" fill="url(#paint2_linear_937_217)"/>
<path d="M188.484 70.867L102.75 40.3889C98.9799 39.0487 94.8374 41.0184 93.4972 44.7882L48.4187 171.593C47.0786 175.363 49.0482 179.505 52.8181 180.845L138.552 211.324C142.322 212.664 146.465 210.694 147.805 206.924L192.883 80.1196C194.223 76.3497 192.254 72.2072 188.484 70.867Z" fill="url(#paint3_linear_937_217)"/>
<g filter="url(#filter1_iiii_937_217)">
<path d="M98.5887 38.9096C94.8207 37.5701 90.6756 39.5411 89.3361 43.309L44.2595 170.108C42.92 173.876 44.891 178.021 48.6589 179.361L106.723 200.002C108.172 200.517 109.765 200.435 111.153 199.775L150.508 181.067C151.896 180.407 152.965 179.223 153.48 177.775L188.722 78.6403C190.062 74.8724 188.091 70.7272 184.323 69.3878L98.5887 38.9096Z" fill="url(#paint4_linear_937_217)"/>
</g>
<g filter="url(#filter2_f_937_217)">
<path d="M147.247 179.219C147.957 179.471 149.503 179.344 150.108 178.28C149.607 179.642 148.594 180.754 147.285 181.379L109.593 199.3C108.49 199.823 107.245 199.969 106.051 199.714C106.377 199.748 106.707 199.683 106.995 199.526C107.284 199.37 107.518 199.129 107.667 198.837L116.441 174.154C117.468 171.265 120.636 169.759 123.525 170.786L147.247 179.219Z" fill="#D4C7E1"/>
</g>
<g filter="url(#filter3_i_937_217)">
<path d="M150.468 178.808C151.216 179.074 152.819 178.943 153.458 177.835C152.935 179.257 151.876 180.417 150.507 181.067L111.151 199.78C110.001 200.326 108.704 200.479 107.459 200.215C107.799 200.251 108.142 200.183 108.442 200.019C108.742 199.855 108.985 199.604 109.138 199.299L118.301 173.524C118.816 172.076 119.885 170.891 121.273 170.231C122.661 169.571 124.255 169.489 125.703 170.004L150.468 178.808Z" fill="url(#paint5_linear_937_217)"/>
<path d="M150.468 178.808C151.216 179.074 152.819 178.943 153.458 177.835C152.935 179.257 151.876 180.417 150.507 181.067L111.151 199.78C110.001 200.326 108.704 200.479 107.459 200.215C107.799 200.251 108.142 200.183 108.442 200.019C108.742 199.855 108.985 199.604 109.138 199.299L118.301 173.524C118.816 172.076 119.885 170.891 121.273 170.231C122.661 169.571 124.255 169.489 125.703 170.004L150.468 178.808Z" fill="url(#paint6_linear_937_217)"/>
</g>
<path d="M170.305 100.117L93.892 72.9522C92.4323 72.4332 90.8284 73.1959 90.3094 74.6556L90.3075 74.661C89.7886 76.1207 90.5512 77.7247 92.0109 78.2436L168.424 105.408C169.883 105.927 171.487 105.164 172.006 103.705L172.008 103.699C172.527 102.239 171.764 100.635 170.305 100.117Z" fill="#A09DA4"/>
<path d="M164.506 116.428L88.0932 89.2635C86.6335 88.7446 85.0295 89.5072 84.5106 90.9669L84.5087 90.9724C83.9898 92.4321 84.7524 94.0361 86.2121 94.555L162.625 121.719C164.084 122.238 165.688 121.476 166.207 120.016L166.209 120.01C166.728 118.551 165.966 116.947 164.506 116.428Z" fill="#A09DA4"/>
<path d="M158.707 132.739L82.2944 105.575C80.8347 105.056 79.2307 105.819 78.7118 107.278L78.7098 107.284C78.1909 108.743 78.9536 110.347 80.4133 110.866L156.826 138.031C158.286 138.55 159.89 137.787 160.408 136.327L160.41 136.322C160.929 134.862 160.167 133.258 158.707 132.739Z" fill="#A09DA4"/>
<path d="M120.658 137.585L76.4965 121.886C75.0368 121.367 73.4329 122.13 72.9139 123.59L72.912 123.595C72.3931 125.055 73.1557 126.659 74.6154 127.178L118.777 142.877C120.236 143.396 121.84 142.633 122.359 141.173L122.361 141.168C122.88 139.708 122.118 138.104 120.658 137.585Z" fill="#A09DA4"/>
<g filter="url(#filter4_f_937_217)">
<path d="M154.451 59.3958C154.292 59.7373 154.149 60.0883 154.021 60.4487C151.717 66.9306 154.886 74.0728 161.16 77.152C161.832 77.4966 162.614 77.5624 163.335 77.3352C164.055 77.1079 164.658 76.6059 165.011 75.9378C165.171 75.6026 165.263 75.2389 165.282 74.868C165.3 74.497 165.245 74.126 165.119 73.7765C164.994 73.4269 164.8 73.1058 164.549 72.8316C164.299 72.5574 163.996 72.3355 163.66 72.1789C159.994 70.3777 158.132 66.1852 159.482 62.39C159.611 62.0259 159.765 61.6807 159.942 61.3542L154.451 59.3958Z" fill="#D3CCDC"/>
</g>
<g filter="url(#filter5_f_937_217)">
<path d="M133.973 52.116C133.815 52.4575 133.671 52.8084 133.543 53.1688C131.239 59.6508 134.408 66.7929 140.682 69.8722C141.355 70.2167 142.136 70.2825 142.857 70.0553C143.578 69.8281 144.18 69.3261 144.534 68.658C144.694 68.3227 144.786 67.9591 144.804 67.5881C144.823 67.2171 144.767 66.8462 144.642 66.4966C144.516 66.1471 144.322 65.8259 144.072 65.5517C143.821 65.2775 143.519 65.0557 143.182 64.899C139.511 63.0959 137.655 58.9053 139.004 55.1101C139.134 54.7461 139.287 54.4008 139.465 54.0744L133.973 52.116Z" fill="#D3CCDC"/>
</g>
<g filter="url(#filter6_f_937_217)">
<path d="M113.494 44.8362C113.336 45.1777 113.193 45.5286 113.065 45.889C110.761 52.371 113.93 59.5131 120.204 62.5924C120.876 62.937 121.658 63.0028 122.379 62.7755C123.099 62.5483 123.702 62.0463 124.055 61.3782C124.215 61.0429 124.307 60.6793 124.326 60.3083C124.344 59.9374 124.289 59.5664 124.163 59.2168C124.038 58.8673 123.844 58.5462 123.593 58.2719C123.343 57.9977 123.04 57.7759 122.704 57.6193C119.033 55.8161 117.176 51.6256 118.526 47.8303C118.655 47.4663 118.807 47.1204 118.981 46.7926L113.494 44.8362Z" fill="#D4CDDC"/>
</g>
<g filter="url(#filter7_f_937_217)">
<path d="M92.6631 40.2477C91.0711 46.214 94.1114 52.5415 99.8409 55.3533C101.219 56.0277 102.879 55.5107 103.547 54.1857C103.701 53.8632 103.79 53.5131 103.809 53.1558C103.827 52.7986 103.775 52.4412 103.654 52.1044C103.534 51.7676 103.348 51.4579 103.107 51.1935C102.866 50.929 102.575 50.7149 102.251 50.5636C98.7109 48.8253 96.9211 44.7937 98.2217 41.135C98.346 40.7855 98.4925 40.4542 98.6612 40.141L95.9308 39.1704C94.7653 39.2481 93.6469 39.6256 92.6631 40.2477Z" fill="#D0C9D7"/>
</g>
<g filter="url(#filter8_i_937_217)">
<path d="M100.648 40.8843C101.347 38.9343 102.757 37.3207 104.596 36.3672C106.435 35.4136 108.566 35.1907 110.563 35.7432C112.559 36.2956 114.272 37.5826 115.359 39.3458C116.447 41.109 116.827 43.2181 116.423 45.2498L121.917 47.2028C122.592 44.6423 122.527 41.9431 121.729 39.4181C120.932 36.8932 119.435 34.6461 117.412 32.9375C115.389 31.2289 112.924 30.1289 110.301 29.7651C107.678 29.4013 105.006 29.7886 102.595 30.8821C100.183 31.9756 98.1311 33.7304 96.6766 35.943C95.2222 38.1556 94.4249 40.7353 94.3773 43.3827C94.3297 46.0301 95.0337 48.6367 96.4077 50.9002C97.7817 53.1636 99.7693 54.9911 102.14 56.1706C102.481 56.3398 102.852 56.4403 103.231 56.4662C103.611 56.4921 103.992 56.443 104.353 56.3216C104.714 56.2002 105.047 56.009 105.334 55.7588C105.62 55.5087 105.855 55.2045 106.024 54.8636C106.194 54.5227 106.294 54.1518 106.32 53.7721C106.346 53.3924 106.297 53.0113 106.175 52.6506C106.054 52.2899 105.863 51.9566 105.613 51.6698C105.363 51.383 105.058 51.1483 104.717 50.9791C102.923 50.0841 101.518 48.5631 100.769 46.7033C100.019 44.8435 99.9761 42.7735 100.648 40.8843Z" fill="url(#paint7_linear_937_217)"/>
</g>
<g filter="url(#filter9_i_937_217)">
<path d="M121.569 48.3214C122.252 46.3507 123.66 44.7143 125.507 43.7447C127.354 42.7752 129.501 42.5452 131.511 43.1017C133.521 43.6581 135.244 44.9591 136.33 46.7403C137.415 48.5215 137.782 50.6491 137.355 52.6908L142.843 54.6418C143.517 52.0814 143.452 49.3821 142.655 46.8572C141.858 44.3322 140.361 42.0851 138.338 40.3765C136.315 38.6679 133.849 37.5679 131.227 37.2041C128.604 36.8403 125.932 37.2276 123.52 38.3211C121.109 39.4146 119.057 41.1695 117.602 43.3821C116.148 45.5947 115.351 48.1743 115.303 50.8217C115.255 53.4691 115.959 56.0758 117.333 58.3392C118.707 60.6027 120.695 62.4301 123.066 63.6096C123.754 63.9514 124.55 64.0057 125.279 63.7606C126.007 63.5155 126.608 62.9911 126.95 62.3026C127.292 61.6142 127.346 60.8181 127.101 60.0897C126.856 59.3612 126.332 58.7599 125.643 58.4181C123.847 57.524 122.441 56.0031 121.69 54.1428C120.94 52.2824 120.896 50.2115 121.569 48.3214Z" fill="url(#paint8_linear_937_217)"/>
</g>
<g filter="url(#filter10_i_937_217)">
<path d="M142.499 55.7623C143.191 53.8024 144.6 52.1778 146.443 51.2165C148.286 50.2553 150.424 50.029 152.427 50.5834C154.43 51.1377 156.149 52.4314 157.235 54.2033C158.321 55.9752 158.695 58.0932 158.28 60.1298L163.774 62.0827C164.448 59.5225 164.383 56.8235 163.586 54.2989C162.789 51.7742 161.292 49.5273 159.269 47.8187C157.247 46.1102 154.782 45.0101 152.159 44.646C149.537 44.2819 146.865 44.6687 144.453 45.7616C142.042 46.8546 139.99 48.6088 138.535 50.8208C137.08 53.0328 136.282 55.6119 136.234 58.2591C136.185 60.9062 136.888 63.5128 138.262 65.7765C139.635 68.0402 141.621 69.8682 143.991 71.0486C144.332 71.2178 144.703 71.3183 145.083 71.3442C145.462 71.3701 145.843 71.321 146.204 71.1996C146.565 71.0782 146.898 70.887 147.185 70.6368C147.472 70.3867 147.706 70.0825 147.876 69.7416C148.045 69.4007 148.145 69.0298 148.171 68.6501C148.197 68.2704 148.148 67.8893 148.027 67.5286C147.905 67.1679 147.714 66.8346 147.464 66.5478C147.214 66.261 146.909 66.0263 146.569 65.857C144.774 64.9621 143.369 63.4411 142.62 61.5813C141.87 59.7215 141.827 57.6515 142.499 55.7623Z" fill="url(#paint9_linear_937_217)"/>
</g>
<g filter="url(#filter11_i_937_217)">
<path d="M163.425 63.2013C164.117 61.2414 165.526 59.6168 167.369 58.6555C169.211 57.6943 171.35 57.468 173.353 58.0224C175.356 58.5767 177.074 59.8705 178.161 61.6423C179.247 63.4142 179.62 65.5322 179.206 67.5688L184.699 69.5217C185.374 66.9615 185.309 64.2626 184.512 61.7379C183.714 59.2132 182.218 56.9663 180.195 55.2577C178.173 53.5492 175.707 52.4491 173.085 52.085C170.463 51.7209 167.791 52.1077 165.379 53.2007C162.968 54.2936 160.916 56.0478 159.461 58.2598C158.006 60.4718 157.208 63.051 157.16 65.6981C157.111 68.3452 157.814 70.9518 159.187 73.2155C160.56 75.4792 162.547 77.3073 164.917 78.4876C165.258 78.6568 165.629 78.7573 166.008 78.7832C166.388 78.8091 166.769 78.76 167.13 78.6386C167.491 78.5172 167.824 78.326 168.111 78.0759C168.397 77.8257 168.632 77.5215 168.801 77.1806C168.971 76.8397 169.071 76.4688 169.097 76.0891C169.123 75.7094 169.074 75.3284 168.952 74.9676C168.831 74.6069 168.64 74.2737 168.39 73.9868C168.139 73.7 167.835 73.4653 167.494 73.2961C165.7 72.4011 164.295 70.8802 163.546 69.0203C162.796 67.1605 162.753 65.0906 163.425 63.2013Z" fill="url(#paint10_linear_937_217)"/>
</g>
<g filter="url(#filter12_f_937_217)">
<path d="M181.768 69.1868C183.728 63.6714 180.906 57.6305 175.467 55.697C170.028 53.7634 164.029 56.6747 162.069 62.19C161.194 64.6093 161.233 67.265 162.179 69.6574C163.125 72.0499 164.913 74.014 167.206 75.1802" stroke="url(#paint11_linear_937_217)" stroke-width="0.25" stroke-linecap="round"/>
</g>
<g filter="url(#filter13_f_937_217)">
<path d="M160.929 61.7789C162.889 56.2635 160.073 50.2245 154.634 48.291C149.195 46.3575 143.191 49.2668 141.23 54.7821C140.355 57.2014 140.394 59.8571 141.34 62.2495C142.286 64.642 144.074 66.6061 146.367 67.7723" stroke="url(#paint12_linear_937_217)" stroke-width="0.25" stroke-linecap="round"/>
</g>
<g filter="url(#filter14_f_937_217)">
<path d="M139.299 54.0894C141.26 48.5741 138.443 42.5351 133.004 40.6016C127.565 38.668 121.561 41.5773 119.6 47.0927C118.725 49.5128 118.764 52.1695 119.712 54.5625C120.659 56.9554 122.448 58.9195 124.743 60.0848" stroke="url(#paint13_linear_937_217)" stroke-width="0.25" stroke-linecap="round"/>
</g>
<g filter="url(#filter15_f_937_217)">
<path d="M118.466 46.6835C120.427 41.1681 117.61 35.1291 112.171 33.1956C106.726 31.2601 100.728 34.1714 98.7669 39.6867C97.8934 42.1055 97.9336 44.7602 98.8801 47.1514C99.8265 49.5426 101.614 51.5057 103.906 52.6715" stroke="url(#paint14_linear_937_217)" stroke-width="0.25" stroke-linecap="round"/>
</g>
</g>
<defs>
<filter id="filter0_i_937_217" x="47.848" y="39.9684" width="145.456" height="171.776" filterUnits="userSpaceOnUse" color-interpolation-filters="sRGB">
<feFlood flood-opacity="0" result="BackgroundImageFix"/>
<feBlend mode="normal" in="SourceGraphic" in2="BackgroundImageFix" result="shape"/>
<feColorMatrix in="SourceAlpha" type="matrix" values="0 0 0 0 0 0 0 0 0 0 0 0 0 0 0 0 0 0 127 0" result="hardAlpha"/>
<feOffset dx="-0.15"/>
<feGaussianBlur stdDeviation="0.1"/>
<feComposite in2="hardAlpha" operator="arithmetic" k2="-1" k3="1"/>
<feColorMatrix type="matrix" values="0 0 0 0 0.87451 0 0 0 0 0.847059 0 0 0 0 0.905882 0 0 0 1 0"/>
<feBlend mode="normal" in2="shape" result="effect1_innerShadow_937_217"/>
</filter>
<filter id="filter1_iiii_937_217" x="43.6398" y="38.3396" width="145.653" height="162.047" filterUnits="userSpaceOnUse" color-interpolation-filters="sRGB">
<feFlood flood-opacity="0" result="BackgroundImageFix"/>
<feBlend mode="normal" in="SourceGraphic" in2="BackgroundImageFix" result="shape"/>
<feColorMatrix in="SourceAlpha" type="matrix" values="0 0 0 0 0 0 0 0 0 0 0 0 0 0 0 0 0 0 127 0" result="hardAlpha"/>
<feOffset dx="0.15" dy="-0.15"/>
<feGaussianBlur stdDeviation="0.125"/>
<feComposite in2="hardAlpha" operator="arithmetic" k2="-1" k3="1"/>
<feColorMatrix type="matrix" values="0 0 0 0 0.792157 0 0 0 0 0.756863 0 0 0 0 0.835294 0 0 0 1 0"/>
<feBlend mode="normal" in2="shape" result="effect1_innerShadow_937_217"/>
<feColorMatrix in="SourceAlpha" type="matrix" values="0 0 0 0 0 0 0 0 0 0 0 0 0 0 0 0 0 0 127 0" result="hardAlpha"/>
<feOffset dx="-0.2"/>
<feGaussianBlur stdDeviation="0.125"/>
<feComposite in2="hardAlpha" operator="arithmetic" k2="-1" k3="1"/>
<feColorMatrix type="matrix" values="0 0 0 0 1 0 0 0 0 1 0 0 0 0 1 0 0 0 1 0"/>
<feBlend mode="normal" in2="effect1_innerShadow_937_217" result="effect2_innerShadow_937_217"/>
<feColorMatrix in="SourceAlpha" type="matrix" values="0 0 0 0 0 0 0 0 0 0 0 0 0 0 0 0 0 0 127 0" result="hardAlpha"/>
<feOffset dy="-0.15"/>
<feGaussianBlur stdDeviation="0.075"/>
<feComposite in2="hardAlpha" operator="arithmetic" k2="-1" k3="1"/>
<feColorMatrix type="matrix" values="0 0 0 0 0.721569 0 0 0 0 0.623529 0 0 0 0 0.819608 0 0 0 1 0"/>
<feBlend mode="normal" in2="effect2_innerShadow_937_217" result="effect3_innerShadow_937_217"/>
<feColorMatrix in="SourceAlpha" type="matrix" values="0 0 0 0 0 0 0 0 0 0 0 0 0 0 0 0 0 0 127 0" result="hardAlpha"/>
<feOffset dy="0.05"/>
<feGaussianBlur stdDeviation="0.05"/>
<feComposite in2="hardAlpha" operator="arithmetic" k2="-1" k3="1"/>
<feColorMatrix type="matrix" values="0 0 0 0 0.858824 0 0 0 0 0.85098 0 0 0 0 0.870588 0 0 0 1 0"/>
<feBlend mode="normal" in2="effect3_innerShadow_937_217" result="effect4_innerShadow_937_217"/>
</filter>
<filter id="filter2_f_937_217" x="105.801" y="170.214" width="44.5576" height="29.8728" filterUnits="userSpaceOnUse" color-interpolation-filters="sRGB">
<feFlood flood-opacity="0" result="BackgroundImageFix"/>
<feBlend mode="normal" in="SourceGraphic" in2="BackgroundImageFix" result="shape"/>
<feGaussianBlur stdDeviation="0.125" result="effect1_foregroundBlur_937_217"/>
</filter>
<filter id="filter3_i_937_217" x="107.459" y="169.569" width="46.099" height="30.7718" filterUnits="userSpaceOnUse" color-interpolation-filters="sRGB">
<feFlood flood-opacity="0" result="BackgroundImageFix"/>
<feBlend mode="normal" in="SourceGraphic" in2="BackgroundImageFix" result="shape"/>
<feColorMatrix in="SourceAlpha" type="matrix" values="0 0 0 0 0 0 0 0 0 0 0 0 0 0 0 0 0 0 127 0" result="hardAlpha"/>
<feOffset dx="0.1" dy="-0.1"/>
<feGaussianBlur stdDeviation="0.15"/>
<feComposite in2="hardAlpha" operator="arithmetic" k2="-1" k3="1"/>
<feColorMatrix type="matrix" values="0 0 0 0 0.686275 0 0 0 0 0.647059 0 0 0 0 0.729412 0 0 0 1 0"/>
<feBlend mode="normal" in2="shape" result="effect1_innerShadow_937_217"/>
</filter>
<filter id="filter4_f_937_217" x="152.82" y="58.9458" width="12.9156" height="18.9723" filterUnits="userSpaceOnUse" color-interpolation-filters="sRGB">
<feFlood flood-opacity="0" result="BackgroundImageFix"/>
<feBlend mode="normal" in="SourceGraphic" in2="BackgroundImageFix" result="shape"/>
<feGaussianBlur stdDeviation="0.225" result="effect1_foregroundBlur_937_217"/>
</filter>
<filter id="filter5_f_937_217" x="132.342" y="51.666" width="12.9156" height="18.9723" filterUnits="userSpaceOnUse" color-interpolation-filters="sRGB">
<feFlood flood-opacity="0" result="BackgroundImageFix"/>
<feBlend mode="normal" in="SourceGraphic" in2="BackgroundImageFix" result="shape"/>
<feGaussianBlur stdDeviation="0.225" result="effect1_foregroundBlur_937_217"/>
</filter>
<filter id="filter6_f_937_217" x="111.863" y="44.3862" width="12.9156" height="18.9723" filterUnits="userSpaceOnUse" color-interpolation-filters="sRGB">
<feFlood flood-opacity="0" result="BackgroundImageFix"/>
<feBlend mode="normal" in="SourceGraphic" in2="BackgroundImageFix" result="shape"/>
<feGaussianBlur stdDeviation="0.225" result="effect1_foregroundBlur_937_217"/>
</filter>
<filter id="filter7_f_937_217" x="91.7922" y="38.7204" width="12.4703" height="17.3785" filterUnits="userSpaceOnUse" color-interpolation-filters="sRGB">
<feFlood flood-opacity="0" result="BackgroundImageFix"/>
<feBlend mode="normal" in="SourceGraphic" in2="BackgroundImageFix" result="shape"/>
<feGaussianBlur stdDeviation="0.225" result="effect1_foregroundBlur_937_217"/>
</filter>
<filter id="filter8_i_937_217" x="94.375" y="29.4823" width="28.2539" height="26.9906" filterUnits="userSpaceOnUse" color-interpolation-filters="sRGB">
<feFlood flood-opacity="0" result="BackgroundImageFix"/>
<feBlend mode="normal" in="SourceGraphic" in2="BackgroundImageFix" result="shape"/>
<feColorMatrix in="SourceAlpha" type="matrix" values="0 0 0 0 0 0 0 0 0 0 0 0 0 0 0 0 0 0 127 0" result="hardAlpha"/>
<feOffset dx="0.25" dy="-0.15"/>
<feGaussianBlur stdDeviation="0.3"/>
<feComposite in2="hardAlpha" operator="arithmetic" k2="-1" k3="1"/>
<feColorMatrix type="matrix" values="0 0 0 0 0.647059 0 0 0 0 0.607843 0 0 0 0 0.694118 0 0 0 1 0"/>
<feBlend mode="normal" in2="shape" result="effect1_innerShadow_937_217"/>
</filter>
<filter id="filter9_i_937_217" x="115.301" y="36.9214" width="28.2539" height="26.9906" filterUnits="userSpaceOnUse" color-interpolation-filters="sRGB">
<feFlood flood-opacity="0" result="BackgroundImageFix"/>
<feBlend mode="normal" in="SourceGraphic" in2="BackgroundImageFix" result="shape"/>
<feColorMatrix in="SourceAlpha" type="matrix" values="0 0 0 0 0 0 0 0 0 0 0 0 0 0 0 0 0 0 127 0" result="hardAlpha"/>
<feOffset dx="0.25" dy="-0.15"/>
<feGaussianBlur stdDeviation="0.3"/>
<feComposite in2="hardAlpha" operator="arithmetic" k2="-1" k3="1"/>
<feColorMatrix type="matrix" values="0 0 0 0 0.647059 0 0 0 0 0.607843 0 0 0 0 0.694118 0 0 0 1 0"/>
<feBlend mode="normal" in2="shape" result="effect1_innerShadow_937_217"/>
</filter>
<filter id="filter10_i_937_217" x="136.231" y="44.3629" width="28.2539" height="26.988" filterUnits="userSpaceOnUse" color-interpolation-filters="sRGB">
<feFlood flood-opacity="0" result="BackgroundImageFix"/>
<feBlend mode="normal" in="SourceGraphic" in2="BackgroundImageFix" result="shape"/>
<feColorMatrix in="SourceAlpha" type="matrix" values="0 0 0 0 0 0 0 0 0 0 0 0 0 0 0 0 0 0 127 0" result="hardAlpha"/>
<feOffset dx="0.25" dy="-0.15"/>
<feGaussianBlur stdDeviation="0.3"/>
<feComposite in2="hardAlpha" operator="arithmetic" k2="-1" k3="1"/>
<feColorMatrix type="matrix" values="0 0 0 0 0.647059 0 0 0 0 0.607843 0 0 0 0 0.694118 0 0 0 1 0"/>
<feBlend mode="normal" in2="shape" result="effect1_innerShadow_937_217"/>
</filter>
<filter id="filter11_i_937_217" x="157.157" y="51.802" width="28.2539" height="26.988" filterUnits="userSpaceOnUse" color-interpolation-filters="sRGB">
<feFlood flood-opacity="0" result="BackgroundImageFix"/>
<feBlend mode="normal" in="SourceGraphic" in2="BackgroundImageFix" result="shape"/>
<feColorMatrix in="SourceAlpha" type="matrix" values="0 0 0 0 0 0 0 0 0 0 0 0 0 0 0 0 0 0 127 0" result="hardAlpha"/>
<feOffset dx="0.25" dy="-0.15"/>
<feGaussianBlur stdDeviation="0.3"/>
<feComposite in2="hardAlpha" operator="arithmetic" k2="-1" k3="1"/>
<feColorMatrix type="matrix" values="0 0 0 0 0.647059 0 0 0 0 0.607843 0 0 0 0 0.694118 0 0 0 1 0"/>
<feBlend mode="normal" in2="shape" result="effect1_innerShadow_937_217"/>
</filter>
<filter id="filter12_f_937_217" x="161.114" y="54.7739" width="21.6012" height="20.7313" filterUnits="userSpaceOnUse" color-interpolation-filters="sRGB">
<feFlood flood-opacity="0" result="BackgroundImageFix"/>
<feBlend mode="normal" in="SourceGraphic" in2="BackgroundImageFix" result="shape"/>
<feGaussianBlur stdDeviation="0.1" result="effect1_foregroundBlur_937_217"/>
</filter>
<filter id="filter13_f_937_217" x="140.276" y="47.3678" width="21.6021" height="20.7295" filterUnits="userSpaceOnUse" color-interpolation-filters="sRGB">
<feFlood flood-opacity="0" result="BackgroundImageFix"/>
<feBlend mode="normal" in="SourceGraphic" in2="BackgroundImageFix" result="shape"/>
<feGaussianBlur stdDeviation="0.1" result="effect1_foregroundBlur_937_217"/>
</filter>
<filter id="filter14_f_937_217" x="118.646" y="39.6784" width="21.6021" height="20.7315" filterUnits="userSpaceOnUse" color-interpolation-filters="sRGB">
<feFlood flood-opacity="0" result="BackgroundImageFix"/>
<feBlend mode="normal" in="SourceGraphic" in2="BackgroundImageFix" result="shape"/>
<feGaussianBlur stdDeviation="0.1" result="effect1_foregroundBlur_937_217"/>
</filter>
<filter id="filter15_f_937_217" x="97.8146" y="32.2716" width="21.6002" height="20.7249" filterUnits="userSpaceOnUse" color-interpolation-filters="sRGB">
<feFlood flood-opacity="0" result="BackgroundImageFix"/>
<feBlend mode="normal" in="SourceGraphic" in2="BackgroundImageFix" result="shape"/>
<feGaussianBlur stdDeviation="0.1" result="effect1_foregroundBlur_937_217"/>
</filter>
<linearGradient id="paint0_linear_937_217" x1="146.397" y1="210.883" x2="134.487" y2="180.317" gradientUnits="userSpaceOnUse">
<stop stop-color="#E5DBF1"/>
<stop offset="0.759" stop-color="#DACEE5"/>
</linearGradient>
<linearGradient id="paint1_linear_937_217" x1="194.687" y1="75.0465" x2="152.619" y2="193.381" gradientUnits="userSpaceOnUse">
<stop offset="0.469" stop-color="#C4BFCA"/>
<stop offset="1" stop-color="#C6C1CB" stop-opacity="0"/>
</linearGradient>
<linearGradient id="paint2_linear_937_217" x1="147.253" y1="214.411" x2="142.42" y2="212.693" gradientUnits="userSpaceOnUse">
<stop stop-color="#F2E9FC"/>
<stop offset="1" stop-color="#F2E9FC" stop-opacity="0"/>
</linearGradient>
<linearGradient id="paint3_linear_937_217" x1="121.881" y1="206.59" x2="123.034" y2="203.346" gradientUnits="userSpaceOnUse">
<stop stop-color="#D4C7E2"/>
<stop offset="1" stop-color="#D4C7E2" stop-opacity="0"/>
</linearGradient>
<linearGradient id="paint4_linear_937_217" x1="141.456" y1="54.1487" x2="91.526" y2="194.6" gradientUnits="userSpaceOnUse">
<stop stop-color="#F1EBF7"/>
<stop offset="1" stop-color="#E6DCF1"/>
</linearGradient>
<linearGradient id="paint5_linear_937_217" x1="117.922" y1="175.007" x2="125.492" y2="194.804" gradientUnits="userSpaceOnUse">
<stop stop-color="#D9D1E3"/>
<stop offset="0.901" stop-color="#C8BDD3"/>
</linearGradient>
<linearGradient id="paint6_linear_937_217" x1="136.265" y1="172.683" x2="134.687" y2="177.122" gradientUnits="userSpaceOnUse">
<stop stop-color="#DDD9E1"/>
<stop offset="1" stop-color="#DDD9E1" stop-opacity="0"/>
</linearGradient>
<linearGradient id="paint7_linear_937_217" x1="120.04" y1="40.44" x2="100.373" y2="57.0924" gradientUnits="userSpaceOnUse">
<stop stop-color="#CECCD0"/>
<stop offset="1" stop-color="#ADA9B2"/>
</linearGradient>
<linearGradient id="paint8_linear_937_217" x1="140.966" y1="47.879" x2="121.299" y2="64.5315" gradientUnits="userSpaceOnUse">
<stop stop-color="#CECCD0"/>
<stop offset="1" stop-color="#ADA9B2"/>
</linearGradient>
<linearGradient id="paint9_linear_937_217" x1="161.891" y1="55.318" x2="142.224" y2="71.9704" gradientUnits="userSpaceOnUse">
<stop stop-color="#CECCD0"/>
<stop offset="1" stop-color="#ADA9B2"/>
</linearGradient>
<linearGradient id="paint10_linear_937_217" x1="182.817" y1="62.757" x2="163.155" y2="79.4114" gradientUnits="userSpaceOnUse">
<stop stop-color="#CECCD0"/>
<stop offset="1" stop-color="#ADA9B2"/>
</linearGradient>
<linearGradient id="paint11_linear_937_217" x1="172.078" y1="51.0599" x2="180.813" y2="70.385" gradientUnits="userSpaceOnUse">
<stop stop-color="#DCD9E0"/>
<stop offset="1" stop-color="#DCD9E0" stop-opacity="0"/>
</linearGradient>
<linearGradient id="paint12_linear_937_217" x1="151.239" y1="43.652" x2="159.974" y2="62.9771" gradientUnits="userSpaceOnUse">
<stop stop-color="#DCD9E0"/>
<stop offset="1" stop-color="#DCD9E0" stop-opacity="0"/>
</linearGradient>
<linearGradient id="paint13_linear_937_217" x1="129.615" y1="35.9645" x2="138.344" y2="55.2877" gradientUnits="userSpaceOnUse">
<stop stop-color="#DCD9E0"/>
<stop offset="1" stop-color="#DCD9E0" stop-opacity="0"/>
</linearGradient>
<linearGradient id="paint14_linear_937_217" x1="108.776" y1="28.5566" x2="117.511" y2="47.8817" gradientUnits="userSpaceOnUse">
<stop stop-color="#DCD9E0"/>
<stop offset="1" stop-color="#DCD9E0" stop-opacity="0"/>
</linearGradient>
<clipPath id="clip0_937_217">
<rect width="185.458" height="185.458" fill="white" transform="translate(62.291) rotate(19.5701)"/>
</clipPath>
</defs>
</svg>
