<svg width="314" height="264" viewBox="0 0 314 264" fill="none" xmlns="http://www.w3.org/2000/svg">
<path d="M150.955 212.354C219.097 212.354 274.336 209.148 274.336 205.193C274.336 201.238 219.097 198.032 150.955 198.032C82.8137 198.032 27.5742 201.238 27.5742 205.193C27.5742 209.148 82.8137 212.354 150.955 212.354Z" fill="#E5E5E5"/>
<path d="M156.471 239.711C239.057 239.711 306.006 232.371 306.006 223.316C306.006 214.261 239.057 206.921 156.471 206.921C73.8856 206.921 6.93652 214.261 6.93652 223.316C6.93652 232.371 73.8856 239.711 156.471 239.711Z" fill="#E5E5E5"/>
<path d="M265.801 159.192C265.801 159.192 277.89 158.448 277.733 170.66C277.592 181.547 268.097 182.139 266.037 182.139C265.786 182.139 265.644 182.131 265.644 182.131H173.485V178.287H265.487C265.487 178.287 271.997 177.173 272.238 171.096C272.552 163.16 264.859 163.16 264.859 163.16H173.485V159.192H265.801Z" fill="#4285F4"/>
<path d="M277.225 203.721C277.397 203.721 277.539 203.84 277.539 203.985C277.539 204.13 277.397 204.249 277.225 204.249V203.721ZM277.225 206.448C277.397 206.448 277.539 206.567 277.539 206.712C277.539 206.857 277.397 206.976 277.225 206.976V206.448ZM277.225 209.529C277.397 209.529 277.539 209.648 277.539 209.793C277.539 209.938 277.397 210.057 277.225 210.057V209.529Z" fill="black"/>
<path d="M277.224 210.057V213.872H177.46C177.46 213.872 170.213 212.847 169.946 207.264C169.597 199.969 178.157 199.969 178.157 199.969H277.224V203.721H176.885C176.713 203.721 176.571 203.84 176.571 203.985C176.571 204.13 176.713 204.249 176.885 204.249H277.224V206.448H182.851C182.679 206.448 182.537 206.567 182.537 206.712C182.537 206.857 182.679 206.976 182.851 206.976H277.224V209.529H197.923C197.751 209.529 197.609 209.648 197.609 209.793C197.609 209.938 197.751 210.057 197.923 210.057H277.224Z" fill="#E5E5E5"/>
<path d="M277.224 209.793V210.057H197.923C197.751 210.057 197.609 209.938 197.609 209.793C197.609 209.648 197.751 209.529 197.923 209.529H277.224V209.793ZM277.224 206.712V206.976H182.851C182.679 206.976 182.537 206.857 182.537 206.712C182.537 206.567 182.679 206.448 182.851 206.448H277.224V206.712ZM277.224 204.249H176.885C176.713 204.249 176.571 204.13 176.571 203.985C176.571 203.84 176.713 203.721 176.885 203.721H277.224V204.249Z" fill="black"/>
<path d="M264.859 163.16C264.859 163.16 272.552 163.16 272.238 171.096C271.997 177.173 265.487 178.287 265.487 178.287H175.847V174.591H261.352C261.525 174.591 261.666 174.472 261.666 174.327C261.666 174.182 261.525 174.063 261.352 174.063H175.847V170.924H251.828C252.001 170.924 252.142 170.805 252.142 170.66C252.142 170.515 252.001 170.396 251.828 170.396H175.847V167.025H254.654C254.827 167.025 254.968 166.906 254.968 166.761C254.968 166.616 254.827 166.497 254.654 166.497H175.847V163.16H264.859Z" fill="#E5E5E5"/>
<path d="M267.057 182.139C267.057 182.139 269.883 189.322 267.057 196.017L238.954 196.155V182.139H267.057Z" fill="#A9C9FF"/>
<path d="M261.352 174.063C261.525 174.063 261.666 174.182 261.666 174.327C261.666 174.472 261.525 174.591 261.352 174.591H175.847V174.063H261.352ZM254.654 166.497C254.827 166.497 254.968 166.616 254.968 166.761C254.968 166.906 254.827 167.025 254.654 167.025H175.847V166.497H254.654ZM251.828 170.396C252.001 170.396 252.142 170.515 252.142 170.66C252.142 170.805 252.001 170.924 251.828 170.924H175.847V170.396H251.828Z" fill="black"/>
<path d="M238.954 182.139V196.155L203.993 196.324H193.32V182.139H238.954Z" fill="white"/>
<path d="M235.029 159.181V159.192H173.485V162.096H162.809V124.08H235.029V159.181ZM217.916 144.759V136.752H205.145V144.759H217.916ZM190.598 149.453V133.935H169.403V149.453H190.598Z" fill="#A9C9FF"/>
<path d="M205.146 136.752H217.916V144.759H205.146V136.752Z" fill="white"/>
<path d="M193.32 196.316V196.324H177.108C177.108 196.324 175.943 196.265 174.304 196.469L164.85 196.514C164.85 196.514 162.024 189.571 164.85 182.139H193.32V196.316Z" fill="#A9C9FF"/>
<path d="M169.403 133.935H190.598V149.453H169.403V133.935Z" fill="white"/>
<path d="M175.846 174.327V174.591C175.674 174.591 175.532 174.472 175.532 174.327C175.532 174.182 175.674 174.063 175.846 174.063V174.327ZM175.846 170.66V170.924C175.674 170.924 175.532 170.805 175.532 170.66C175.532 170.515 175.674 170.396 175.846 170.396V170.66ZM175.846 166.761V167.025C175.674 167.025 175.532 166.906 175.532 166.761C175.532 166.616 175.674 166.497 175.846 166.497V166.761Z" fill="black"/>
<path d="M169.947 207.264C170.213 212.847 177.461 213.872 177.461 213.872H279.853V217.404H177.285C177.285 217.404 164.006 218.088 163.83 206.865C163.707 198.942 170.374 196.952 174.305 196.469L203.994 196.324H279.853V199.969H178.158C178.158 199.969 169.598 199.969 169.947 207.264Z" fill="#7695FF"/>
<path d="M117.217 110.352V144.057H53.0664V110.352H117.217ZM105.178 126.456V119.167H89.908V126.456H105.178ZM79.4424 129.975V122.937H72.952V117.744H59.764V124.08H66.358V129.975H79.4424Z" fill="#E5E5E5"/>
<path d="M89.9072 119.167H105.177V126.456H89.9072V119.167Z" fill="white"/>
<path d="M85.1412 186.471L82.3717 203.985H53.0661L50.3438 186.471H56.4919C56.5264 186.534 56.5453 186.571 56.5453 186.574C56.5731 186.631 56.6234 186.677 56.6876 186.706C56.7518 186.735 56.8259 186.744 56.8971 186.731C56.9684 186.719 57.0324 186.687 57.0782 186.639C57.124 186.592 57.1487 186.532 57.1481 186.471H66.0438V186.479C66.0469 186.622 66.1882 186.735 66.3577 186.735H66.3672C66.5367 186.732 66.6686 186.616 66.6718 186.471H73.8938V186.474C73.8946 186.543 73.928 186.61 73.9868 186.659C74.0456 186.708 74.125 186.735 74.2078 186.735H74.2109C74.3836 186.732 74.5249 186.614 74.5218 186.471H85.1412ZM79.4421 122.937V129.975H66.3577V124.08H72.9518V122.937H79.4421Z" fill="#A9C9FF"/>
<path d="M78.1327 175.019C78.095 175.077 78.0573 175.132 78.0196 175.19C77.96 175.095 77.9066 174.998 77.8564 174.892C77.825 174.823 77.7967 174.752 77.7684 174.681L77.668 174.675C77.668 174.662 77.6711 174.649 77.6711 174.633C80.0952 171 83.5335 168.27 87.8887 166.523C87.9258 166.508 87.9661 166.499 88.0072 166.497C88.0483 166.495 88.0894 166.5 88.1283 166.512C88.1671 166.523 88.2028 166.541 88.2334 166.564C88.2639 166.588 88.2887 166.616 88.3063 166.647C88.3817 166.779 88.3157 166.935 88.1587 166.998C83.8695 168.72 80.4971 171.42 78.1327 175.019Z" fill="black"/>
<path d="M77.6708 174.633C77.7211 173.572 76.9361 172.329 76.823 171.251C76.6566 169.673 76.7194 167.548 77.4228 166.075C78.6599 163.487 81.9067 161.156 85.2979 161.127C86.3718 161.119 87.7282 161.336 88.7582 161.132C90.4381 160.8 90.6359 159.53 91.0786 158.419C92.1274 155.773 97.2424 155.737 98.9161 157.893C100.087 159.403 100.696 161.481 100.144 163.263C99.6477 164.863 97.7511 167.239 96.112 168.168C93.9925 169.369 91.2325 168.863 89.1978 170.275C88.2683 170.919 87.7157 172.281 87.9166 173.29C88.1584 174.483 89.2668 175.33 89.3862 176.614C89.6311 179.314 85.8097 179.563 83.395 179.056C81.9601 178.754 81.197 177.939 80.1765 177.142C79.2911 176.45 78.5029 175.975 78.0194 175.19C78.057 175.132 78.0947 175.077 78.1324 175.019C80.4968 171.421 83.8692 168.72 88.1584 166.999C88.3154 166.935 88.3814 166.78 88.306 166.648C88.2884 166.616 88.2636 166.588 88.2331 166.565C88.2025 166.542 88.1668 166.524 88.128 166.512C88.0892 166.501 88.048 166.496 88.0069 166.498C87.9658 166.5 87.9255 166.508 87.8884 166.523C83.5332 168.271 80.0949 171.001 77.6708 174.633Z" fill="#A9C9FF"/>
<path d="M73.8936 186.471C73.8936 186.365 73.8622 180.423 77.5799 174.765C77.6082 174.72 77.6396 174.676 77.671 174.633C77.671 174.649 77.6678 174.662 77.6678 174.676L77.7683 174.681C77.7966 174.752 77.8248 174.823 77.8562 174.892C77.9065 174.998 77.9599 175.096 78.0195 175.19C74.4807 180.695 74.5216 186.41 74.5216 186.469V186.471L73.8936 186.471Z" fill="black"/>
<path d="M74.2076 186.471H74.5216C74.5247 186.614 74.3834 186.732 74.2107 186.735H74.2076C74.1248 186.735 74.0454 186.708 73.9866 186.659C73.9278 186.61 73.8944 186.543 73.8936 186.474V186.471H74.2076Z" fill="black"/>
<path d="M72.5373 167.445C74.5877 168.693 74.8326 171.201 73.5044 173.007C72.038 175 68.383 177.458 65.3938 176.724C65.3906 176.698 65.3843 176.671 65.3781 176.645C63.8646 169.411 60.5268 159.878 53.2482 155.543C53.1069 155.461 52.9091 155.488 52.8086 155.607C52.7082 155.725 52.7427 155.892 52.884 155.976C59.9678 160.192 63.246 169.543 64.7501 176.671C60.9915 176.471 56.9786 175.642 53.4837 174.57C51.2543 173.886 48.4378 172.371 48.667 170.084C48.7957 168.802 49.9324 167.996 51.0785 167.289C51.9608 166.742 52.8997 166.127 52.5449 165.066C52.1838 163.986 50.6106 163.901 49.5022 163.505C47.9291 162.943 46.3088 162.238 45.2381 161.108C42.4906 158.202 42.8548 154.58 46.4721 152.394C49.6655 150.467 53.5371 150.21 57.1481 151.354C60.4702 152.41 64.6935 154.876 64.6841 158.067C64.6778 160.491 63.4281 162.378 65.8585 164.295C67.8084 165.832 70.4146 166.151 72.5373 167.445Z" fill="#4285F4"/>
<path d="M72.9517 122.937V124.08H59.7637V117.744H72.9517V122.937Z" fill="white"/>
<path d="M66.3581 186.471H66.6721C66.6689 186.616 66.537 186.732 66.3675 186.735H66.3581C66.1885 186.735 66.0472 186.622 66.0441 186.479V186.471H66.3581ZM66.0441 186.471C66.0378 186.255 65.8714 182.025 64.7629 176.735C64.7598 176.714 64.7535 176.693 64.7504 176.671C64.8571 176.679 64.9639 176.685 65.0707 176.69C65.1523 176.698 65.2308 176.7 65.3124 176.703C65.3407 176.711 65.3658 176.716 65.3941 176.724C66.5245 182.131 66.6721 186.421 66.6721 186.463V186.471H66.0441ZM56.8344 186.471H57.1484C57.1485 186.506 57.1405 186.54 57.1247 186.572C57.109 186.604 57.0858 186.633 57.0567 186.658C57.0275 186.682 56.9928 186.702 56.9547 186.715C56.9166 186.728 56.8757 186.735 56.8344 186.735C56.712 186.735 56.5958 186.674 56.5456 186.574C56.5456 186.571 56.5267 186.535 56.4922 186.471H56.8344Z" fill="black"/>
<path d="M52.8837 155.976C52.7424 155.892 52.7079 155.726 52.8083 155.607C52.9088 155.488 53.1066 155.462 53.2479 155.544C60.5265 159.878 63.8643 169.411 65.3778 176.645C65.384 176.672 65.3903 176.698 65.3935 176.725C65.3652 176.717 65.3401 176.711 65.3118 176.703C65.2302 176.701 65.1517 176.698 65.07 176.69C64.9633 176.685 64.8565 176.68 64.7498 176.672C63.2457 169.543 59.9675 160.193 52.8837 155.976ZM51.2886 180.843C51.3545 180.777 51.4142 180.703 51.4676 180.626C51.4707 180.629 51.477 180.632 51.4801 180.634L51.5429 180.674C51.5963 180.711 51.6528 180.745 51.7062 180.785C55.6029 183.374 57.063 186.249 57.1227 186.368C57.1415 186.402 57.1478 186.437 57.1478 186.471H56.4916C56.1933 185.943 54.6766 183.432 51.3074 181.191C51.2917 181.181 51.2792 181.17 51.2666 181.165C51.3074 181.144 51.3482 181.122 51.3922 181.104L51.5021 180.985C51.433 180.935 51.3608 180.89 51.2886 180.843Z" fill="black"/>
<path d="M51.094 181.051L51.1568 181.091C51.1914 181.115 51.2259 181.136 51.2667 181.165C50.1238 181.706 49.4392 182.136 48.0419 182.4C46.2867 182.733 44.5 182.759 42.7008 182.775C39.7649 182.801 37.3283 182.073 34.8539 180.858C32.5774 179.742 30.2947 177.923 29.8551 175.568C29.3527 172.888 32.4142 169.77 35.8839 170.449C36.8541 170.639 37.0457 171.515 37.4978 172.128C38.0128 172.827 38.4932 173.012 39.4854 173.097C42.0728 173.313 44.3148 171.637 46.9963 172.476C49.3576 173.213 51.1348 175.179 51.6278 177.215C51.8539 178.147 52.1051 179.712 51.4677 180.626C48.6071 178.778 45.2159 177.579 41.3946 177.059C41.2219 177.035 41.0617 177.136 41.0335 177.278C41.0052 177.423 41.1245 177.558 41.2941 177.582C45.0181 178.086 48.3183 179.253 51.094 181.051Z" fill="#7695FF"/>
<path d="M51.1568 181.091L51.094 181.051C48.3182 179.253 45.0181 178.087 41.2941 177.582C41.1245 177.558 41.0052 177.424 41.0334 177.279C41.0617 177.136 41.2218 177.036 41.3945 177.06C45.2159 177.58 48.6071 178.778 51.4677 180.626C51.4143 180.703 51.3546 180.777 51.2887 180.843C51.3609 180.89 51.4331 180.935 51.5022 180.985L51.3923 181.104C51.3483 181.122 51.3075 181.144 51.2667 181.165C51.2259 181.136 51.1913 181.115 51.1568 181.091Z" fill="black"/>
<path d="M243.579 75.24L242.323 79.992L220.971 75.24H243.579ZM232.36 50.16L220.899 55.176L228.278 48.1088L232.36 50.16ZM221.841 101.55L218.701 104.412L210.066 91.806L221.841 101.55ZM213.834 31.548L201.431 44.088L207.397 29.436L213.834 31.548Z" fill="#EA4335"/>
<path d="M180.641 90.0848V90.1164C180.641 90.2616 180.782 90.3778 180.955 90.3778C181.115 90.3778 181.25 90.2748 181.266 90.1428C182.92 90.3039 184.452 90.486 185.863 90.684C185.859 90.6999 185.856 90.7131 185.856 90.7289C185.856 90.8741 185.997 90.9929 186.17 90.9929C186.324 90.9929 186.453 90.8979 186.478 90.7738V90.7711C191.483 91.4998 194.865 92.3736 196.633 92.9016C197.609 93.1947 198.096 93.3821 198.096 93.3821L196.13 97.218C195.797 97.1362 195.464 97.0544 195.132 96.9778C183.598 94.2718 172.872 94.19 169.396 94.248C168.639 94.2612 168.225 94.2797 168.225 94.2797L167.87 89.5277C168.617 89.5277 169.349 89.533 170.065 89.5435C174.009 89.599 177.532 89.8023 180.641 90.0848Z" fill="#A9C9FF"/>
<path d="M190.419 72.476C190.909 71.3566 191.37 70.5329 191.798 70.026C192.451 69.2472 193.641 68.7826 194.984 68.7826C196.156 68.7826 197.126 69.1443 197.289 69.6485C197.45 70.1369 196.822 70.7784 195.566 71.4041C194.184 72.0932 192.454 72.4548 190.419 72.476Z" fill="#FBBC05"/>
<path d="M191.798 70.026C191.371 70.5328 190.909 71.3565 190.419 72.4759C192.454 72.4548 194.184 72.0931 195.566 71.404C196.822 70.7784 197.45 70.1368 197.29 69.6484C197.126 69.1442 196.156 68.7825 194.985 68.7825C193.641 68.7825 192.451 69.2472 191.798 70.026ZM190.077 72.4917C190.551 71.3935 191.048 70.4616 191.54 69.8728C193.845 67.122 201.014 68.9911 195.726 71.6311C194.162 72.4099 192.266 72.7346 190.288 72.7425C190.288 72.7056 190.281 72.6686 190.263 72.6369C190.255 72.6212 190.245 72.6062 190.234 72.592C190.223 72.5771 190.21 72.5637 190.193 72.5524C190.18 72.5413 190.165 72.5316 190.149 72.5234C190.138 72.5155 190.125 72.5084 190.112 72.5023C190.099 72.4996 190.09 72.4944 190.077 72.4917ZM190.259 72.8481C190.237 72.9009 190.215 72.9537 190.197 73.0065C190.122 73.0065 190.049 73.0039 189.974 73.0039C190.102 73.0039 190.212 72.9405 190.259 72.8481Z" fill="black"/>
<path d="M190.233 72.592C190.246 72.6079 190.255 72.6237 190.262 72.6369C190.255 72.6207 190.246 72.6055 190.233 72.592Z" fill="black"/>
<path d="M190.234 72.592C190.247 72.6052 190.256 72.6211 190.263 72.6369C190.282 72.6686 190.288 72.7055 190.288 72.7425C190.184 72.7425 190.077 72.7425 189.974 72.7399C190.008 72.6554 190.043 72.5735 190.077 72.4917C190.09 72.4943 190.099 72.4996 190.112 72.5023C190.124 72.5075 190.14 72.5155 190.149 72.5234C190.165 72.5313 190.181 72.5419 190.193 72.5524C190.209 72.563 190.225 72.5788 190.234 72.592Z" fill="black"/>
<path d="M189.757 72.4706C190.297 71.2008 190.796 70.3005 191.283 69.7197C192.052 68.801 193.437 68.2545 194.985 68.2545C196.483 68.2545 197.65 68.7561 197.896 69.5085C198.068 70.0365 197.858 70.8734 195.886 71.8581C194.36 72.6184 192.451 73.0065 190.215 73.0065H190.196C190.215 72.9537 190.237 72.9009 190.259 72.8481C190.278 72.8164 190.287 72.7795 190.287 72.7425C192.265 72.7346 194.162 72.4099 195.726 71.6311C201.013 68.9911 193.845 67.122 191.54 69.8728C191.047 70.4616 190.551 71.3935 190.077 72.4917C190.053 72.483 190.027 72.4785 190.001 72.4785C189.998 72.4759 189.995 72.4759 189.992 72.4759H189.97C189.898 72.4759 189.829 72.4732 189.757 72.4706Z" fill="black"/>
<path d="M190.215 73.0065C192.451 73.0065 194.36 72.6185 195.886 71.8581C197.858 70.8734 198.068 70.0365 197.895 69.5085C197.65 68.7561 196.482 68.2545 194.984 68.2545C193.436 68.2545 192.051 68.801 191.282 69.7197C190.795 70.3005 190.296 71.2008 189.756 72.4706C187.436 72.4125 184.789 71.9189 182.428 71.0925C182.34 69.0069 182.195 67.745 181.998 67.2355C181.671 66.4118 180.685 65.8759 179.486 65.8759C178.638 65.8759 177.871 66.161 177.432 66.6336C177.146 66.9424 176.857 67.4837 177.105 68.302C177.404 69.2815 179.2 70.4827 181.815 71.4463C181.969 75.3377 181.906 80.7153 181.887 82.0195L180.992 81.9297C180.949 81.9251 180.904 81.9284 180.862 81.9393C180.82 81.9502 180.781 81.9685 180.748 81.9931C180.714 82.0176 180.687 82.048 180.668 82.0822C180.65 82.1164 180.64 82.1535 180.641 82.1911V87.4315C175.924 86.3332 171.767 84.3321 168.527 81.7132C163.81 77.8984 161.041 72.7795 161.323 67.246C161.895 56.1422 174.559 47.586 189.612 48.1325C204.662 48.6789 216.402 58.1249 215.831 69.2261C215.435 76.9164 209.24 83.3844 200.467 86.452C196.573 87.8169 192.171 88.5086 187.546 88.3396C187.389 88.3344 187.232 88.3265 187.075 88.3185L188.384 82.9488C188.403 82.8775 188.381 82.8009 188.331 82.7402C188.306 82.7109 188.273 82.6864 188.236 82.6682C188.199 82.65 188.157 82.6386 188.114 82.6346L187.307 82.5554C187.593 81.3516 188.78 76.4729 190.196 73.0065H190.215Z" fill="#FBBC05"/>
<path d="M190.149 72.5235C190.138 72.5149 190.125 72.5078 190.112 72.5024C190.124 72.5076 190.137 72.5156 190.149 72.5235ZM189.974 72.74C190.077 72.7426 190.184 72.7426 190.288 72.7426C190.288 72.7796 190.278 72.8165 190.259 72.8482C190.212 72.9406 190.102 73.004 189.974 73.004H189.97C189.936 73.004 189.904 72.9987 189.873 72.9881C189.904 72.9036 189.939 72.8218 189.974 72.74Z" fill="black"/>
<path d="M189.97 72.476H189.992C189.995 72.476 189.999 72.476 190.001 72.4786C190.027 72.4786 190.053 72.4831 190.077 72.4918C190.043 72.5736 190.008 72.6555 189.973 72.74C189.87 72.74 189.766 72.7373 189.659 72.732C189.659 72.7056 189.666 72.6792 189.678 72.6528L189.697 72.6132C189.753 72.5287 189.86 72.476 189.97 72.476Z" fill="black"/>
<path d="M189.97 72.4759C189.86 72.4759 189.754 72.5287 189.697 72.6131C189.716 72.5656 189.735 72.5155 189.757 72.4706C189.829 72.4732 189.898 72.4759 189.97 72.4759ZM189.97 73.0039C189.936 73.0039 189.901 73.0039 189.867 73.0012C189.87 72.9959 189.87 72.9907 189.873 72.988C189.904 72.9986 189.936 73.0039 189.97 73.0039ZM189.973 72.7399C189.939 72.8217 189.904 72.9035 189.873 72.988C189.809 72.9718 189.753 72.9373 189.716 72.8903C189.676 72.8445 189.656 72.7886 189.659 72.7319C189.766 72.7372 189.87 72.7399 189.973 72.7399ZM189.678 72.6527C189.666 72.6791 189.659 72.7055 189.659 72.7319H189.646C189.656 72.7055 189.669 72.6791 189.678 72.6527Z" fill="black"/>
<path d="M189.715 72.8903C189.753 72.9379 189.809 72.9722 189.872 72.988C189.869 72.9907 189.869 72.9959 189.866 73.0012C189.759 73.0012 189.649 72.9986 189.539 72.9933C189.574 72.9035 189.608 72.8164 189.646 72.7319H189.658C189.655 72.7886 189.675 72.8445 189.715 72.8903Z" fill="black"/>
<path d="M189.539 72.9933C188.12 76.5177 186.946 81.3701 186.682 82.4921L182.515 82.0802C182.531 80.9001 182.597 75.6096 182.452 71.6733C184.773 72.4548 187.254 72.9168 189.539 72.9933ZM187.075 88.3185C187.232 88.3265 187.389 88.3344 187.546 88.3397C192.17 88.5086 196.573 87.8169 200.466 86.4521V86.4547L196.632 92.9016C194.865 92.3736 191.483 91.4997 186.478 90.7711L187.075 88.3185Z" fill="#FBBC05"/>
<path d="M188.384 82.9488L187.075 88.3185L186.761 88.3027L188.076 82.896L187.251 82.8141C187.257 82.7772 187.279 82.6901 187.307 82.5554L188.114 82.6346C188.202 82.6425 188.281 82.6821 188.331 82.7402C188.381 82.8009 188.403 82.8775 188.384 82.9488Z" fill="black"/>
<path d="M187.7 83.1257L186.444 88.2817C184.698 88.1706 182.967 87.9321 181.27 87.5689V82.4895L182.133 82.574L186.937 83.0492L187.7 83.1257Z" fill="#FBBC05"/>
<path d="M187.536 112.266C188.557 112.398 188.321 114.444 185.181 116.754C182.041 119.064 176.474 119.861 174.311 120.585C172.995 119.684 171.152 118.578 170.068 117.939C170.068 117.939 173.406 110.352 174.348 111.078C175.29 111.804 175.133 114.906 175.133 114.906C175.133 114.906 186.516 112.134 187.536 112.266Z" fill="#FD8B81"/>
<path d="M190.196 73.0065C188.78 76.4728 187.593 81.3515 187.307 82.5554L186.997 82.5237C187.27 81.3621 188.444 76.5151 189.867 73.0012C189.901 73.0039 189.936 73.0039 189.97 73.0039H189.973C190.048 73.0039 190.121 73.0065 190.196 73.0065ZM186.444 88.2815L187.7 83.1256L186.937 83.0491V83.0464C187.084 83.0464 187.217 82.9593 187.244 82.8326C187.244 82.8299 187.248 82.8247 187.251 82.8141L188.077 82.8959L186.761 88.3027C186.654 88.2974 186.547 88.2895 186.444 88.2815ZM187.075 88.3185L186.478 90.7711C186.378 90.7552 186.275 90.742 186.171 90.7262L186.761 88.3027L187.075 88.3185Z" fill="black"/>
<path d="M186.683 82.4921C186.946 81.3701 188.121 76.5178 189.54 72.9934C189.65 72.9987 189.76 73.0013 189.867 73.0013C188.444 76.5152 187.27 81.3622 186.997 82.5238L186.683 82.4921ZM187.307 82.5555C187.279 82.6901 187.258 82.7773 187.251 82.8142L186.937 82.7825C186.937 82.7825 186.959 82.6928 186.997 82.5238L187.307 82.5555Z" fill="black"/>
<path d="M186.629 82.7323C186.629 82.7244 186.648 82.6425 186.683 82.4921L186.997 82.5237C186.959 82.6927 186.937 82.7825 186.937 82.7825L186.626 82.7508C186.626 82.7455 186.629 82.7376 186.629 82.7323Z" fill="black"/>
<path d="M186.877 83.0412C186.799 83.0291 186.729 82.9922 186.682 82.9382C186.636 82.8841 186.615 82.817 186.626 82.7508L186.937 82.7824L187.251 82.8141C187.247 82.8247 187.244 82.83 187.244 82.8326C187.231 82.8928 187.192 82.9471 187.136 82.9862C187.08 83.0252 187.009 83.0465 186.937 83.0464C186.918 83.0464 186.899 83.0438 186.877 83.0412ZM186.444 88.2816C186.547 88.2895 186.655 88.2974 186.761 88.3027L186.171 90.7262C186.071 90.713 185.967 90.6972 185.863 90.684V90.6734L186.444 88.2816ZM182.516 82.0802L186.683 82.492C186.648 82.6425 186.629 82.7244 186.629 82.7323C186.629 82.7376 186.626 82.7455 186.626 82.7508L182.51 82.3468C182.513 82.3389 182.513 82.3284 182.513 82.3178C182.513 82.3099 182.513 82.228 182.516 82.0802Z" fill="black"/>
<path d="M181.269 87.5688C182.933 87.9252 184.663 88.1681 186.443 88.2816L185.863 90.6735V90.684C184.453 90.486 182.92 90.3039 181.266 90.1428C181.269 90.1349 181.269 90.1244 181.269 90.1138L181.269 87.5688Z" fill="#FBBC05"/>
<path d="M186.171 90.7262C186.274 90.742 186.378 90.7552 186.478 90.7711V90.7737C186.453 90.8978 186.324 90.9929 186.171 90.9929C185.998 90.9929 185.857 90.8741 185.857 90.7289C185.857 90.713 185.86 90.6998 185.863 90.684C185.967 90.6972 186.07 90.713 186.171 90.7262ZM182.428 71.0925C184.789 71.9188 187.436 72.4125 189.757 72.4706C189.735 72.5155 189.716 72.5656 189.697 72.6132L189.678 72.6528C189.669 72.6792 189.656 72.7056 189.646 72.732C187.156 72.6607 184.581 72.1169 182.443 71.3829C182.44 71.346 182.44 71.309 182.437 71.272V71.2641L182.428 71.0925Z" fill="black"/>
<path d="M182.443 71.3829C184.582 72.1169 187.156 72.6607 189.646 72.732C189.608 72.8165 189.574 72.9036 189.539 72.9933C187.253 72.9168 184.773 72.4548 182.452 71.6733L182.443 71.3829ZM182.512 82.3178C182.512 82.3284 182.512 82.3389 182.509 82.3469L182.198 82.3152C182.198 82.3152 182.201 82.2201 182.201 82.0485L182.515 82.0802C182.512 82.2281 182.512 82.3099 182.512 82.3178Z" fill="black"/>
<path d="M182.202 82.0486C182.221 80.8078 182.287 75.4987 182.136 71.5625C182.243 71.5995 182.35 71.6364 182.453 71.6734C182.597 75.6096 182.531 80.9002 182.516 82.0803L182.202 82.0486Z" fill="black"/>
<path d="M182.453 71.6734C182.35 71.6364 182.243 71.5995 182.136 71.5625C182.136 71.552 182.133 71.544 182.133 71.5361C182.192 71.5335 182.252 71.5176 182.302 71.4886C182.353 71.4596 182.39 71.42 182.412 71.3724C182.422 71.3777 182.431 71.3804 182.444 71.383L182.453 71.6734Z" fill="black"/>
<path d="M182.412 71.3725C182.428 71.3408 182.437 71.3064 182.437 71.2721C182.44 71.3091 182.44 71.3461 182.443 71.383C182.432 71.3812 182.421 71.3776 182.412 71.3725ZM182.427 71.0926L182.437 71.2642C182.433 71.156 182.342 71.0662 182.233 71.0266C182.236 71.0266 182.242 71.0266 182.245 71.0292C182.305 71.0504 182.368 71.0715 182.427 71.0926ZM182.123 71.2721C182.217 71.3064 182.314 71.3408 182.412 71.3725C182.39 71.42 182.352 71.4596 182.302 71.4886C182.251 71.5177 182.192 71.5335 182.132 71.5361L182.123 71.2721ZM182.201 82.0486C182.201 82.2202 182.198 82.3152 182.198 82.3152L181.884 82.2836C181.884 82.2413 181.887 82.1516 181.887 82.0196L182.201 82.0486ZM186.936 83.0492L182.132 82.574C182.151 82.5766 182.173 82.5792 182.195 82.5792H182.198C182.358 82.5792 182.49 82.4789 182.509 82.3469L186.625 82.7509C186.604 82.8881 186.713 83.0148 186.877 83.0412C186.898 83.0439 186.918 83.0465 186.936 83.0465V83.0492H186.936ZM181.887 82.0196C181.906 80.7154 181.969 75.3377 181.815 71.4464C181.875 71.4701 181.938 71.4913 182.001 71.515C182.045 71.5309 182.092 71.5467 182.136 71.5625C182.286 75.4988 182.22 80.8078 182.201 82.0486L181.887 82.0196Z" fill="black"/>
<path d="M182.111 71.0081C182.152 71.0054 182.196 71.0134 182.234 71.0266C182.344 71.0662 182.435 71.1559 182.437 71.2642V71.2721C182.437 71.3064 182.428 71.3407 182.412 71.3724C182.315 71.3407 182.218 71.3064 182.123 71.2721C182.12 71.1823 182.117 71.0952 182.111 71.0081ZM182.136 71.5625C182.092 71.5466 182.045 71.5308 182.001 71.515C182.039 71.5282 182.083 71.5361 182.123 71.5361H182.133C182.133 71.544 182.136 71.5519 182.136 71.5625Z" fill="black"/>
<path d="M182.123 71.2721C182.026 71.2377 181.932 71.2008 181.834 71.1665C181.858 71.1208 181.896 71.0818 181.945 71.0538C181.994 71.0257 182.051 71.0099 182.11 71.0081C182.117 71.0952 182.12 71.1823 182.123 71.2721Z" fill="black"/>
<path d="M182.048 71.016C182.029 71.0189 182.01 71.0242 181.992 71.0318C182.011 71.0266 182.029 71.0186 182.048 71.016ZM182.001 71.515C181.946 71.4959 181.898 71.4638 181.864 71.4226C181.83 71.3814 181.811 71.3328 181.81 71.2826C181.81 71.2615 181.81 71.2404 181.816 71.2193C181.819 71.2008 181.825 71.1849 181.835 71.1691V71.1665C181.933 71.2008 182.027 71.2378 182.124 71.2721C182.127 71.3592 182.13 71.4463 182.133 71.5361H182.124C182.083 71.5361 182.039 71.5282 182.001 71.515ZM181.885 82.2835L182.199 82.3152L182.51 82.3469C182.491 82.4789 182.359 82.5792 182.199 82.5792H182.196C182.155 82.5789 182.114 82.5718 182.076 82.5582C182.038 82.5447 182.003 82.5249 181.974 82.5002C181.946 82.4754 181.923 82.4461 181.907 82.4139C181.892 82.3817 181.884 82.3472 181.885 82.3126V82.2835Z" fill="black"/>
<path d="M181.81 71.2826C181.813 71.3829 181.885 71.4727 182.001 71.5149C181.938 71.4912 181.876 71.47 181.816 71.4463C181.813 71.3908 181.813 71.3354 181.81 71.2826Z" fill="black"/>
<path d="M181.791 70.8603C179.561 69.9996 177.947 68.9436 177.715 68.1701C177.567 67.6791 177.64 67.2725 177.929 66.9583C178.249 66.6125 178.833 66.4039 179.486 66.4039C180.186 66.4039 181.11 66.6653 181.402 67.4019C181.521 67.7055 181.681 68.5555 181.791 70.8603Z" fill="#FBBC05"/>
<path d="M180.955 82.1912L181.885 82.2836V82.3126C181.881 82.4393 181.988 82.5476 182.133 82.574L181.269 82.4895V87.5688C181.162 87.5477 181.059 87.5266 180.955 87.5028V82.1912Z" fill="black"/>
<path d="M180.955 90.1137V87.5028C181.058 87.5265 181.162 87.5476 181.269 87.5688V90.1137C181.269 90.1243 181.269 90.1348 181.266 90.1428C181.162 90.1322 181.058 90.1243 180.955 90.1137ZM180.992 81.9297L181.887 82.0195C181.887 82.1515 181.884 82.2412 181.884 82.2835L180.955 82.1911V87.5028L180.641 87.4315V82.1911C180.641 82.1145 180.678 82.0432 180.747 81.9931C180.813 81.9429 180.901 81.9218 180.992 81.9297Z" fill="black"/>
<path d="M180.955 87.5028V90.1138C180.851 90.1032 180.744 90.0953 180.641 90.0847V87.4315L180.955 87.5028Z" fill="black"/>
<path d="M180.955 90.1138C181.058 90.1243 181.162 90.1322 181.266 90.1428C181.25 90.2748 181.115 90.3778 180.955 90.3778C180.782 90.3778 180.641 90.2616 180.641 90.1164V90.0847C180.744 90.0953 180.851 90.1032 180.955 90.1138Z" fill="black"/>
<path d="M180.641 87.4315V90.0847C177.533 89.8022 174.01 89.5989 170.066 89.5435L168.527 81.7133C171.768 84.3321 175.925 86.3333 180.641 87.4315Z" fill="#FBBC05"/>
<path d="M179.765 28.116L179.075 40.128L175.847 28.116H179.765Z" fill="#EA4335"/>
<path d="M171.234 98.4984C174.333 98.5697 183.169 98.9314 192.234 100.787L192.168 101.02L191.383 104.412C179.074 102.432 171.287 102.168 171.287 102.168L171.228 98.6911L171.234 98.4984Z" fill="#7695FF"/>
<path d="M181.401 67.4018C181.109 66.6652 180.186 66.4039 179.485 66.4039C178.832 66.4039 178.248 66.6125 177.928 66.9583C177.639 67.2725 177.567 67.679 177.714 68.1701C177.946 68.9436 179.56 69.9996 181.79 70.8602C181.68 68.5555 181.52 67.7054 181.401 67.4018ZM177.41 68.2361C176.678 65.8099 180.967 65.472 181.699 67.32C181.903 67.8374 182.032 69.2472 182.11 71.0081C182.089 71.0081 182.07 71.0107 182.048 71.016C182.029 71.0186 182.01 71.0265 181.991 71.0318C181.921 71.0589 181.865 71.1069 181.834 71.1665C179.429 70.2636 177.683 69.1389 177.41 68.2361Z" fill="black"/>
<path d="M181.7 67.3201C180.968 65.4721 176.679 65.81 177.41 68.2361C177.684 69.139 179.429 70.2637 181.835 71.1665V71.1692C181.825 71.185 181.819 71.2035 181.816 71.2193C181.809 71.2405 181.809 71.2616 181.809 71.2827C181.812 71.3355 181.812 71.3909 181.816 71.4464C179.2 70.4828 177.404 69.2816 177.106 68.3021C176.858 67.4837 177.147 66.9425 177.432 66.6337C177.872 66.1611 178.638 65.876 179.486 65.876C180.685 65.876 181.671 66.4119 181.998 67.2356C182.196 67.7451 182.34 69.007 182.428 71.0926C182.368 71.0715 182.305 71.0504 182.246 71.0293C182.243 71.0266 182.237 71.0266 182.233 71.0266C182.195 71.0126 182.153 71.0063 182.111 71.0081C182.033 69.2473 181.904 67.8375 181.7 67.3201Z" fill="black"/>
<path d="M170.068 117.939C171.152 118.578 172.995 119.684 174.31 120.585C175.102 121.126 175.705 121.591 175.84 121.836C175.943 122.026 174.979 122.781 173.384 123.848C171.02 121.81 165.842 119.167 165.842 119.167C167.801 118.14 169.167 117.414 169.167 117.414C169.167 117.414 169.522 117.617 170.068 117.939Z" fill="#A9C9FF"/>
<path d="M194.994 97.416L193.345 101.02C192.975 100.938 192.604 100.861 192.234 100.787C183.169 98.9313 174.333 98.5697 171.233 98.4984C170.483 98.4825 170.068 98.4825 170.068 98.4825L169.403 94.578L169.396 94.248C172.872 94.1899 183.598 94.2717 195.132 96.9777L194.994 97.416Z" fill="#4285F4"/>
<path d="M159.39 39.3729L162.181 50.16L154.143 40.5609L159.39 39.3729ZM157.785 84.348L146.324 91.806L144.126 88.3661L157.785 84.348ZM151.976 68.236L134.019 66.1399L135.334 61.38L151.976 68.236Z" fill="#EA4335"/>
<path d="M152.29 135.564C149.621 136.026 141.379 131.34 141.379 131.34L141.137 131.277C141.35 130.68 141.501 130.163 141.536 129.822C141.614 129.048 140.653 126.815 139.692 124.811C142.76 128.663 147.762 133.964 152.949 135.363C152.67 135.469 152.447 135.538 152.29 135.564Z" fill="#7695FF"/>
<path d="M134.804 228.173C138.832 229.126 142.453 228.487 143.803 228.175L143.969 229.482C143.969 229.482 153.154 231.066 154.959 231.599C156.765 232.133 156.451 235.026 156.451 235.026L134.235 233.904L134.804 228.173Z" fill="#195028"/>
<path d="M132.363 159.728V159.725C133.736 159.554 135.102 159.335 136.433 159.06C147.972 156.684 148.443 155.76 148.443 155.76C148.443 155.76 148.732 183.699 145.906 198.615C145.906 198.615 145.46 225.522 144.361 228.03C144.361 228.03 144.164 228.09 143.803 228.175C142.452 228.487 138.832 229.126 134.803 228.172C134.615 228.13 134.426 228.083 134.235 228.03C134.235 228.03 134.339 203.016 134.81 199.584C135.281 196.152 129.654 169.29 129.654 169.29L129.459 169.248C131.148 163.722 132.363 159.728 132.363 159.728Z" fill="#34A853"/>
<path d="M131.409 106.722C131.409 106.722 140.025 108.039 135.114 113.964C133.443 114.037 130.991 114.217 129.135 114.362C127.644 114.481 126.542 114.576 126.542 114.576L125.684 111.738L125.207 110.154C125.207 110.154 131.173 107.91 131.409 106.722Z" fill="#195028"/>
<path d="M130.913 119.505V120.912L125.584 118.077L130.913 119.505Z" fill="#7695FF"/>
<path d="M129.135 114.362L130.913 119.505L125.584 118.077L124.344 117.744L126.542 114.576C126.542 114.576 127.644 114.481 129.135 114.362Z" fill="#A9C9FF"/>
<path d="M123.396 101.014C123.685 100.962 123.823 100.542 123.7 100.08C123.581 99.6151 123.248 99.2825 122.959 99.3353C122.67 99.3881 122.532 99.8079 122.651 100.27C122.774 100.735 123.107 101.067 123.396 101.014ZM126.605 99.4251C126.727 99.8897 127.06 100.222 127.349 100.17C127.638 100.117 127.776 99.697 127.653 99.2324C127.534 98.7704 127.201 98.4351 126.912 98.4905C126.624 98.5433 126.485 98.9604 126.605 99.4251ZM125.97 101.025C126.008 101.157 126.715 103.578 127.327 104.412L128.687 102.96C127.522 102.532 126.061 101.112 125.97 101.025ZM113.825 104.214C113.982 101.97 116.494 102.234 116.494 102.234L116.604 100.518C116.604 100.518 119.009 99.2139 120.67 97.1837C120.783 97.1573 120.887 97.1335 120.984 97.1151C121.323 97.0755 122.08 97.0253 122.557 97.1124C122.727 97.1415 122.893 97.0517 122.931 96.9091C122.948 96.8406 122.932 96.7692 122.887 96.7104C122.841 96.6516 122.77 96.6102 122.689 96.595C122.174 96.5026 121.499 96.5369 121.138 96.5686C122.077 95.2011 122.598 93.5643 121.91 91.806C121.91 91.806 126.181 91.8694 127.732 95.539C126.806 95.6842 126.115 95.9799 126.083 95.9931C125.93 96.0617 125.87 96.2201 125.948 96.3495C126.005 96.4392 126.115 96.492 126.228 96.492C126.278 96.492 126.325 96.4815 126.372 96.463C126.379 96.4604 127.032 96.1779 127.886 96.0485C127.902 96.0459 127.914 96.0432 127.93 96.0432C128.263 96.8933 128.63 97.8358 128.997 98.7968C130.285 102.179 131.588 105.824 131.409 106.722C131.173 107.91 125.207 110.154 125.207 110.154C125.207 110.154 123.48 110.642 121.204 109.856C121.204 109.856 122.598 111.458 125.685 111.738L126.542 114.576L124.344 117.744L118.456 116.226C120.968 111.144 117.593 105.996 117.593 105.996C117.593 105.996 113.668 106.458 113.825 104.214ZM127.129 107.667C128.216 107.052 128.322 105.6 128.322 105.6C128.322 105.6 125.757 106.305 123.455 106.128C123.455 106.128 126.043 108.285 127.129 107.667Z" fill="#FD8B81"/>
<path d="M128.687 102.96L127.327 104.412C126.715 103.578 126.008 101.157 125.971 101.025C126.062 101.112 127.522 102.532 128.687 102.96Z" fill="#F76256"/>
<path d="M128.322 105.6C128.322 105.6 128.215 107.052 127.129 107.667C126.042 108.285 123.455 106.128 123.455 106.128C125.757 106.305 128.322 105.6 128.322 105.6Z" fill="white"/>
<path d="M129.12 96.0062C128.756 95.9693 128.357 95.9851 127.93 96.0432C127.899 95.9587 127.864 95.8742 127.833 95.7897C127.82 95.7607 127.811 95.729 127.798 95.7C127.776 95.6445 127.754 95.5917 127.732 95.5389L127.776 95.531C128.282 95.4545 128.756 95.4386 129.196 95.4835C129.365 95.4993 129.491 95.6313 129.469 95.7765C129.45 95.9191 129.293 96.0247 129.12 96.0062Z" fill="black"/>
<path d="M127.349 100.17C127.06 100.222 126.727 99.8897 126.604 99.425C126.485 98.9604 126.623 98.5433 126.912 98.4905C127.201 98.4351 127.534 98.7703 127.653 99.2323C127.776 99.697 127.637 100.117 127.349 100.17Z" fill="#1F2320"/>
<path d="M127.886 96.0485C127.032 96.1778 126.379 96.4603 126.372 96.4629C126.325 96.4814 126.278 96.492 126.228 96.492C126.115 96.492 126.005 96.4392 125.949 96.3494C125.87 96.2201 125.93 96.0617 126.084 95.993C126.115 95.9798 126.806 95.6841 127.732 95.5389C127.754 95.5917 127.776 95.6445 127.798 95.7C127.811 95.729 127.82 95.7607 127.833 95.7897C127.864 95.8742 127.899 95.9587 127.93 96.0432C127.914 96.0432 127.902 96.0458 127.886 96.0485Z" fill="black"/>
<path d="M125.208 110.154L125.685 111.738C122.598 111.458 121.204 109.856 121.204 109.856C123.481 110.642 125.208 110.154 125.208 110.154Z" fill="#F76256"/>
<path d="M124.344 117.744L121.307 121.791L118.243 117.747L118.239 117.744L117.216 116.395V116.392L118.456 116.226L124.344 117.744Z" fill="#A9C9FF"/>
<path d="M122.959 99.3352C123.248 99.2824 123.581 99.6151 123.7 100.08C123.823 100.542 123.684 100.961 123.395 101.014C123.107 101.067 122.774 100.734 122.651 100.27C122.532 99.8078 122.67 99.388 122.959 99.3352Z" fill="#1F2320"/>
<path d="M121.518 124.08L118.243 117.747L121.308 121.791L124.344 117.744L125.584 118.077L121.518 124.08Z" fill="#7695FF"/>
<path d="M122.557 97.1124C122.08 97.0253 121.323 97.0754 120.984 97.115C120.887 97.1335 120.783 97.1572 120.67 97.1836C120.761 97.0754 120.846 96.9645 120.931 96.8536H120.934C121.003 96.7612 121.072 96.6662 121.138 96.5685C121.499 96.5369 122.174 96.5025 122.689 96.5949C122.859 96.6266 122.965 96.7665 122.931 96.9091C122.893 97.0516 122.727 97.1414 122.557 97.1124Z" fill="black"/>
<path d="M120.671 97.1837C119.955 97.35 118.988 97.6404 118.683 97.9071C118.654 97.9332 118.619 97.954 118.58 97.9681C118.541 97.9822 118.499 97.9893 118.457 97.9889C118.378 97.9889 118.3 97.9652 118.24 97.915C118.21 97.8911 118.187 97.8625 118.17 97.8309C118.153 97.7992 118.145 97.7651 118.144 97.7305C118.143 97.6959 118.15 97.6616 118.165 97.6293C118.18 97.5971 118.202 97.5677 118.231 97.5428C118.824 97.0148 120.652 96.6372 120.859 96.5976L120.906 96.5897C120.944 96.5871 121.025 96.5765 121.138 96.5686C121.072 96.6663 121.003 96.7613 120.934 96.8537H120.931C120.846 96.9646 120.762 97.0755 120.671 97.1837Z" fill="black"/>
<path d="M111.254 155.364C111.269 154.836 110.082 152.434 110.082 152.434L110.808 152.146C110.808 152.146 115.16 144.342 114.689 142.23C114.475 141.266 110.874 133.864 108.958 129.964C108.255 128.536 107.781 127.578 107.781 127.578L107.53 127.535L105.68 135.147L102.835 139.656L109.087 149.453C105.467 150.208 103.102 151.599 101.994 152.378C99.0673 148.394 93.7073 141.042 93.6508 140.514C93.5723 139.788 104.327 118.8 104.719 118.404C104.81 118.312 105.608 118.143 106.776 117.942C109.674 117.438 114.852 116.717 117.217 116.392V116.395L118.24 117.744L118.243 117.747L121.518 124.08L125.585 118.077L130.913 120.912V119.505L129.136 114.362C130.992 114.217 133.444 114.037 135.115 113.964C136.122 113.921 136.845 113.916 136.983 113.982C137.532 114.246 151.113 126.126 152.055 126.06C152.724 126.012 161.057 121.68 165.843 119.167C165.843 119.167 171.02 121.81 173.385 123.848C168.201 127.317 156.353 134.075 152.95 135.363C147.762 133.964 142.76 128.663 139.693 124.811C140.653 126.815 141.614 129.048 141.536 129.822C141.501 130.163 141.351 130.68 141.137 131.277C140.405 133.323 138.945 136.29 138.945 136.29C138.945 136.29 146.481 147.84 148.444 155.76C148.444 155.76 147.973 156.684 136.433 159.06C135.102 159.335 133.736 159.554 132.364 159.725C121.842 161.064 110.864 159.728 110.864 159.728C111.09 157.737 111.244 155.633 111.254 155.364Z" fill="#4285F4"/>
<path d="M113.824 104.214C113.667 106.458 117.592 105.996 117.592 105.996C117.592 105.996 120.968 111.144 118.456 116.226L117.216 116.392C114.851 116.717 109.673 117.438 106.775 117.942V117.939C106.766 117.939 103.933 117.937 103.541 114.18C103.148 110.418 108.8 108.504 109.35 106.194C109.899 103.884 106.288 101.97 106.916 98.274C107.544 94.578 111.077 89.892 121.203 88.506C131.33 87.12 132.784 94.6334 128.997 98.7967C128.63 97.8357 128.262 96.8932 127.929 96.0432C128.356 95.9851 128.755 95.9692 129.119 96.0062C129.16 96.0105 129.202 96.0079 129.241 95.9987C129.281 95.9894 129.318 95.9737 129.351 95.9523C129.383 95.931 129.41 95.9045 129.43 95.8743C129.45 95.8441 129.463 95.8109 129.468 95.7765C129.473 95.7422 129.47 95.7073 129.459 95.674C129.448 95.6406 129.429 95.6095 129.404 95.5822C129.379 95.555 129.347 95.5322 129.311 95.5153C129.275 95.4983 129.236 95.4875 129.195 95.4835C128.755 95.4386 128.281 95.4544 127.776 95.531L127.732 95.5389C126.18 91.8693 121.91 91.806 121.91 91.806C122.598 93.5642 122.076 95.201 121.138 96.5685C121.025 96.5764 120.943 96.587 120.905 96.5896L120.858 96.5976C120.651 96.6372 118.823 97.0147 118.23 97.5427C118.111 97.6483 118.114 97.8146 118.239 97.9149C118.299 97.9651 118.377 97.9889 118.456 97.9889C118.538 97.9889 118.622 97.9624 118.682 97.907C118.987 97.6404 119.954 97.35 120.67 97.1836C119.009 99.2138 116.603 100.518 116.603 100.518L116.493 102.234C116.493 102.234 113.981 101.97 113.824 104.214Z" fill="#195028"/>
<path d="M109.086 149.453L110.807 152.146L110.082 152.434L104.778 154.538L103.855 154.902C103.855 154.902 103.098 153.88 101.993 152.378C103.102 151.599 105.466 150.208 109.086 149.453Z" fill="#A9C9FF"/>
<path d="M110.083 152.434C110.083 152.434 111.269 154.836 111.254 155.364C111.244 155.633 111.09 157.737 110.864 159.728C110.648 161.642 110.365 163.448 110.083 163.416C109.866 163.392 109.323 163.115 108.676 162.658C107.602 161.895 106.249 160.633 105.661 159.192C104.719 156.882 104.779 154.538 104.779 154.538L110.083 152.434Z" fill="#FD8B81"/>
<path d="M107.388 202.356C107.623 198.594 108.553 163.155 108.675 162.658C109.322 163.115 109.865 163.392 110.082 163.416C110.364 163.448 110.647 161.642 110.864 159.728C110.864 159.728 121.841 161.064 132.363 159.725V159.728C132.363 159.728 131.148 163.722 129.459 169.248C125.829 181.099 120.017 199.988 119.32 201.564C119.32 201.564 118.77 212.303 111.941 226.097C111.941 226.097 111.689 226.166 111.234 226.248C109.84 226.501 106.527 226.892 102.609 225.897C102.169 225.783 101.72 225.654 101.265 225.503C101.265 225.503 107.152 206.118 107.388 202.356Z" fill="#7695FF"/>
<path d="M102.609 225.897C106.528 226.892 109.84 226.501 111.235 226.248L110.371 233.574L89.0977 233.904C89.0977 233.904 89.0977 231.726 89.7257 230.67C90.3537 229.614 101.265 227.964 101.265 227.964L102.609 225.897Z" fill="#195028"/>
<path d="M107.78 127.578C107.78 127.578 108.254 128.536 108.958 129.965L108.952 129.967L105.68 135.147L107.529 127.536L107.78 127.578Z" fill="#7695FF"/>
<path d="M208.182 64.5039C207.874 62.0363 205.298 58.132 202.95 56.7592C202.284 56.3701 200.063 55.4661 199.223 56.0915C197.848 57.1161 199.885 58.8841 200.646 59.5758C201.916 60.7303 203.314 61.9072 204.158 63.2628C204.785 64.27 205.012 65.6032 205.827 66.4836C208.113 68.952 209.284 65.8302 207.973 63.9759M207.345 71.3679C207.053 71.974 206.183 74.3353 206.503 75.0639C206.993 76.1772 208.49 76.4747 209.406 75.4158C210.854 73.7426 207.775 70.0859 206.926 72.2478" fill="white"/>
</svg>
