<svg width="170" height="170" viewBox="0 0 170 170" fill="none" xmlns="http://www.w3.org/2000/svg">
<g clip-path="url(#clip0_937_196)">
<path d="M56.6675 123.478C56.6675 123.478 76.4107 133.666 97.0146 127.803C117.618 121.939 129.029 102.885 129.029 102.885C129.029 102.885 127.967 88.1492 113.646 66.2625C106.092 54.7231 49.5238 69.4282 48.2724 81.7566C46.1356 102.686 56.6675 123.478 56.6675 123.478Z" fill="black"/>
<path d="M129.036 102.887L125.223 108.252C125.223 108.252 123.034 100.403 118.53 93.7816C116.845 91.3071 113.281 91.0839 111.284 93.313L95.7894 110.509C94.9396 111.45 93.8451 112.137 92.6278 112.494C91.4105 112.85 90.1182 112.861 88.8949 112.527C78.3266 109.626 50.7442 102.014 49.4223 101.443C49.4223 101.443 48.9205 99.6793 48.7241 97.305L121.844 76.5967L129.036 102.887Z" fill="#212121"/>
<path d="M20.6086 89.8393L89.1103 108.057C90.6062 108.456 92.2046 108.001 93.2764 106.871L141.901 55.3214C143.255 53.8884 142.583 51.5269 140.678 51.0212L72.1759 32.8039C70.68 32.4047 69.0816 32.8596 68.0097 33.9895L19.3642 85.545C18.0211 86.9751 18.6931 89.3366 20.6086 89.8393Z" fill="black"/>
<path d="M90.4188 104.921C90.4291 104.918 90.4527 104.923 90.463 104.92C90.628 104.873 90.7813 104.785 90.8992 104.651L142.07 51.9418C142.07 51.9418 142.531 52.4239 142.522 53.5299C142.503 54.6389 142.123 55.1038 141.909 55.3319L93.2636 106.887C92.7328 107.451 92.0667 107.852 91.3449 108.058L91.3036 108.069L90.4085 104.924L90.4188 104.921Z" fill="#9E9E9E"/>
<path d="M90.4532 104.908C90.4429 104.911 90.4252 104.927 90.4149 104.93C90.2499 104.977 90.0731 104.983 89.9023 104.931L18.6463 87.0628C18.6463 87.0628 18.5087 87.7151 19.0983 88.6509C19.6982 89.5838 20.2664 89.7788 20.5683 89.8601L89.0699 108.077C89.8178 108.277 90.5955 108.267 91.3173 108.062L91.3586 108.05L90.4635 104.905L90.4532 104.908Z" fill="#616161"/>
<path d="M115.991 82.7863L114.836 79.9824C114.836 79.9824 85.6489 73.4291 82.7425 72.6956C79.8361 71.9621 76.7589 71.0988 75.2268 70.1414C72.5187 68.4596 73.5987 66.614 73.5987 66.614C73.5987 66.614 75.9793 68.7902 79.735 67.2198C81.8861 66.3178 84.2703 63.6885 84.5143 62.7049C84.7584 61.7214 118.888 75.106 118.888 75.106L120.062 78.4842L115.991 82.7863Z" fill="#424242"/>
<path d="M73.5992 66.6322C77.3751 69.6376 81.4842 66.6846 81.4842 66.6846C81.4842 66.6846 97.7859 69.4807 98.0258 68.2866C98.2656 67.0925 84.067 64.2441 84.067 64.2441C84.067 64.2441 84.0359 61.5106 83.6556 60.4484C83.6556 60.4484 110.11 68.3257 119.879 70.7292C124.998 71.9922 126.611 74.097 127.552 77.4411C127.969 78.9054 129.301 83.6653 130.087 86.507C130.237 87.0329 130.605 87.4633 131.101 87.6789C131.852 88.0045 132.521 88.4927 133.061 89.1083C133.6 89.7239 133.997 90.4516 134.221 91.2388C134.67 92.8166 134.381 94.426 133.567 95.7167C133.129 96.4099 133.575 97.5091 133.732 98.2559C134.028 99.6877 134.313 100.298 135.26 101.433C136.188 102.54 137.084 103.689 137.827 104.927C138.398 105.879 138.886 106.889 139.371 107.888C142.603 114.582 145.302 121.951 150.393 127.503C150.489 127.606 150.563 127.728 150.611 127.86C150.66 127.993 150.681 128.134 150.674 128.275C150.668 128.415 150.633 128.554 150.573 128.681C150.513 128.808 150.427 128.922 150.323 129.017C150.113 129.21 149.835 129.312 149.55 129.302C149.265 129.291 148.996 129.168 148.801 128.959C146.15 126.068 144.223 122.626 142.46 119.171C143.443 122.469 144.414 125.804 145.555 129.381C145.775 130.077 146.229 131.475 145.677 131.966C143.606 133.815 142.585 130.227 142.585 130.227C142.585 130.227 143.473 133.463 140.204 134.393C136.935 135.324 135.779 132.163 135.779 132.163C135.779 132.163 136.384 135.191 134.662 135.525C133.964 135.656 132.949 135.499 132.262 131.871C131.578 128.253 128.774 115.385 127.976 111.287C126.875 105.614 127.753 101.808 127.567 99.7428C127.49 98.9622 127.28 98.1858 126.554 97.8684C125.816 97.5485 125.157 97.0717 124.622 96.4712C124.088 95.8708 123.69 95.161 123.457 94.3913C123.224 93.6216 123.162 92.8105 123.274 92.0142C123.387 91.218 123.671 90.4558 124.108 89.7805C124.263 89.541 124.36 89.2685 124.392 88.9847C124.423 88.701 124.388 88.4137 124.289 88.146C123.333 85.5309 122.013 81.7151 121.582 80.8678C119.672 77.0529 117.476 76.8974 115.094 76.2823C112.709 75.6568 79.3121 70.647 77.2642 69.9924C73.4703 68.7646 73.5992 66.6322 73.5992 66.6322Z" fill="#E2A610"/>
<path d="M73.6041 66.6245C77.1755 69.4986 82.0078 66.3844 82.0078 66.3844C82.0078 66.3844 97.2323 68.5284 96.027 67.7009C94.832 66.8705 84.0719 64.2363 84.0719 64.2363C84.0719 64.2363 84.0409 61.5029 83.6606 60.4406C83.6606 60.4406 110.198 67.1237 120.838 70.9404C123.583 71.9315 127.172 73.8085 125.632 77.1339C124.919 78.6633 122.941 79.5051 121.355 78.9085C120.397 78.5569 119.537 77.8874 118.645 77.4167C117.539 76.8176 116.334 76.5807 115.13 76.2657C112.745 75.6403 79.3481 70.6304 77.3002 69.9759C73.4753 68.7569 73.6041 66.6245 73.6041 66.6245Z" fill="#FFCA28"/>
<path d="M132.016 102.53C133.377 102.143 134.263 101.768 135.042 101.335C135.182 101.258 135.289 101.134 135.345 100.985C135.401 100.837 135.401 100.673 135.347 100.523L133.958 96.6604C133.812 96.267 133.351 96.0972 132.992 96.3221C132.14 96.8544 130.36 97.6507 127.146 97.8742C126.752 97.8973 126.454 98.2608 126.521 98.6541L127.224 102.69C127.284 103.019 127.575 103.259 127.905 103.243C129.586 103.155 130.748 102.891 132.016 102.53Z" fill="#9E740B"/>
<path d="M56.6669 123.478C56.6669 123.478 52.13 114.469 49.9774 104.123C49.614 102.376 50.2462 100.602 52.7659 106.362C54.2072 109.664 58.1437 119.658 61.6941 125.592C58.5245 124.443 56.6669 123.478 56.6669 123.478ZM75.0054 57.3606C74.3201 57.8121 73.7936 58.5862 73.8177 59.4153C73.8534 60.5199 74.7965 61.3663 75.7267 61.9711C77.5472 63.1585 79.8276 64.0033 81.9004 63.3354C82.5855 63.1181 83.2634 62.68 83.5307 62.0131C83.7211 61.5465 83.6834 61.0221 83.5764 60.5286C82.7554 56.9387 77.9912 55.3962 75.0054 57.3606Z" fill="#616161"/>
</g>
<defs>
<clipPath id="clip0_937_196">
<rect width="137.238" height="137.238" fill="white" transform="matrix(-0.961811 0.273715 0.273715 0.961811 131.996 0.138672)"/>
</clipPath>
</defs>
</svg>
