<svg width="110" height="110" viewBox="0 0 110 110" fill="none" xmlns="http://www.w3.org/2000/svg">
<g clip-path="url(#clip0_937_295)">
<path d="M67.8329 25.6667C69.0551 25.6667 70.094 25.2389 70.9495 24.3833C71.8051 23.5278 72.2329 22.3667 72.2329 20.9V15.0333C72.2329 13.8111 71.8051 12.7111 70.9495 11.7333C70.094 10.7556 69.0551 10.2667 67.8329 10.2667H21.9995C20.7773 10.2667 19.6773 10.7556 18.6995 11.7333C17.7218 12.7111 17.2329 13.8111 17.2329 15.0333V20.9C17.2329 22.3667 17.7218 23.5278 18.6995 24.3833C19.6773 25.2389 20.7773 25.6667 21.9995 25.6667H67.8329ZM21.6329 20.9V15.0333C21.6329 14.7889 21.7551 14.6667 21.9995 14.6667H67.8329C67.8329 14.6667 67.8329 14.7889 67.8329 15.0333V20.9C67.8329 21.1444 67.8329 21.2667 67.8329 21.2667H21.9995C21.7551 21.2667 21.6329 21.1444 21.6329 20.9ZM81.3995 39.6C77.7329 39.6 74.6162 40.9444 72.0495 43.6333C69.4829 46.3222 68.1995 49.5 68.1995 53.1667C68.1995 56.8333 69.4829 59.95 72.0495 62.5167C74.6162 65.0833 77.794 66.3667 81.5829 66.3667C85.3718 66.3667 88.5495 65.0833 91.1162 62.5167C93.6829 59.95 94.9662 56.8333 94.9662 53.1667C94.9662 49.5 93.6829 46.3222 91.1162 43.6333C88.5495 40.9444 85.3107 39.6 81.3995 39.6ZM81.3995 62.3333C78.9551 62.3333 76.8773 61.4167 75.1662 59.5833C73.4551 57.75 72.5995 55.6111 72.5995 53.1667C72.5995 50.7222 73.4551 48.5833 75.1662 46.75C76.8773 44.9167 79.0162 44 81.5829 44C84.1495 44 86.2884 44.9167 87.9995 46.75C89.7107 48.5833 90.5662 50.7222 90.5662 53.1667C90.5662 55.6111 89.7107 57.75 87.9995 59.5833C86.2884 61.4167 84.0884 62.3333 81.3995 62.3333ZM17.2329 47.3C17.2329 48.5222 17.7218 49.6222 18.6995 50.6C19.6773 51.5778 20.8995 52.0667 22.3662 52.0667H43.9995C45.2218 52.0667 46.3218 51.5778 47.2995 50.6C48.2773 49.6222 48.7662 48.5222 48.7662 47.3V36.6667C48.7662 35.4444 48.2773 34.3444 47.2995 33.3667C46.3218 32.3889 45.2218 31.9 43.9995 31.9H22.3662C20.8995 31.9 19.6773 32.3889 18.6995 33.3667C17.7218 34.3444 17.2329 35.4444 17.2329 36.6667V47.3ZM21.6329 36.6667C21.6329 36.4222 21.8773 36.3 22.3662 36.3H43.9995C44.4884 36.3 44.7329 36.4222 44.7329 36.6667V47.3C44.7329 47.5444 44.4884 47.6667 43.9995 47.6667H22.3662C21.8773 47.6667 21.6329 47.5444 21.6329 47.3V36.6667ZM21.2662 61.9667H46.5662C47.2995 61.9667 47.8495 61.7222 48.2162 61.2333C48.5829 60.7444 48.7662 60.2556 48.7662 59.7667C48.7662 59.2778 48.5829 58.7889 48.2162 58.3C47.8495 57.8111 47.2995 57.5667 46.5662 57.5667H21.2662C20.7773 57.5667 20.2884 57.8111 19.7995 58.3C19.3107 58.7889 19.0662 59.2778 19.0662 59.7667C19.0662 60.2556 19.3107 60.7444 19.7995 61.2333C20.2884 61.7222 20.7773 61.9667 21.2662 61.9667ZM52.0662 68.2H21.2662C20.7773 68.2 20.2884 68.3833 19.7995 68.75C19.3107 69.1167 19.0662 69.6056 19.0662 70.2167C19.0662 70.8278 19.3107 71.3778 19.7995 71.8667C20.2884 72.3556 20.7773 72.6 21.2662 72.6H52.0662C52.7995 72.6 53.3495 72.3556 53.7162 71.8667C54.0829 71.3778 54.2662 70.8278 54.2662 70.2167C54.2662 69.6056 54.0829 69.1167 53.7162 68.75C53.3495 68.3833 52.7995 68.2 52.0662 68.2ZM48.0329 80.6667C48.0329 81.4 48.2162 81.95 48.5829 82.3167C48.9495 82.6833 49.4995 82.8667 50.2329 82.8667H59.7662C60.2551 82.8667 60.6829 82.6833 61.0495 82.3167C61.4162 81.95 61.5995 81.4611 61.5995 80.85C61.5995 80.2389 61.4162 79.75 61.0495 79.3833C60.6829 79.0167 60.2551 78.8333 59.7662 78.8333H50.2329C49.4995 78.8333 48.9495 79.0167 48.5829 79.3833C48.2162 79.75 48.0329 80.1778 48.0329 80.6667ZM21.2662 78.8333C20.7773 78.8333 20.2884 79.0167 19.7995 79.3833C19.3107 79.75 19.0662 80.2389 19.0662 80.85C19.0662 81.4611 19.3107 81.95 19.7995 82.3167C20.2884 82.6833 20.7773 82.8667 21.2662 82.8667H30.7995C31.5329 82.8667 32.0829 82.6833 32.4495 82.3167C32.8162 81.95 32.9995 81.4611 32.9995 80.85C32.9995 80.2389 32.8162 79.75 32.4495 79.3833C32.0829 79.0167 31.5329 78.8333 30.7995 78.8333H21.2662ZM9.53288 69.3C10.2662 69.3 10.8162 69.1167 11.1829 68.75C11.5495 68.3833 11.7329 67.8333 11.7329 67.1C11.7329 66.6111 11.5495 66.1222 11.1829 65.6333C10.8162 65.1444 10.3273 64.9 9.71621 64.9C9.1051 64.9 8.5551 65.1444 8.06621 65.6333C7.57732 66.1222 7.33288 66.6111 7.33288 67.1C7.33288 67.8333 7.57732 68.3833 8.06621 68.75C8.5551 69.1167 9.04399 69.3 9.53288 69.3ZM40.3329 78.8333C39.844 78.8333 39.3551 79.0167 38.8662 79.3833C38.3773 79.75 38.1329 80.2389 38.1329 80.85C38.1329 81.4611 38.3773 81.95 38.8662 82.3167C39.3551 82.6833 39.844 82.8667 40.3329 82.8667C41.0662 82.8667 41.6162 82.6833 41.9829 82.3167C42.3495 81.95 42.5329 81.4611 42.5329 80.85C42.5329 80.2389 42.3495 79.75 41.9829 79.3833C41.6162 79.0167 41.0662 78.8333 40.3329 78.8333ZM104.866 46.2H103.766C103.277 44.7333 102.788 43.3889 102.3 42.1667L102.666 41.4333C103.644 40.7 104.133 39.6611 104.133 38.3167C104.133 36.9722 103.644 35.8111 102.666 34.8333L100.1 31.9C99.1218 30.9222 97.9607 30.4333 96.6162 30.4333C95.2718 30.4333 94.1107 30.9222 93.1329 31.9L92.3995 32.6333C91.1773 31.9 89.8329 31.2889 88.3662 30.8V30.0667C88.3662 28.8444 87.9995 27.8056 87.2662 26.95C86.5329 26.0944 85.6773 25.5444 84.6995 25.3V6.6C84.6995 4.64444 84.0273 3.05555 82.6829 1.83333C81.3384 0.611107 79.8107 0 78.0995 0H13.9329C11.9773 0 10.3884 0.611107 9.16621 1.83333C7.94399 3.05555 7.33288 4.64444 7.33288 6.6V57.5667C7.33288 58.0556 7.57732 58.5444 8.06621 59.0333C8.5551 59.5222 9.1051 59.7667 9.71621 59.7667C10.3273 59.7667 10.8162 59.5222 11.1829 59.0333C11.5495 58.5444 11.7329 58.0556 11.7329 57.5667V6.6C11.7329 5.86666 11.9162 5.31667 12.2829 4.95C12.6495 4.58333 13.1995 4.39999 13.9329 4.39999H78.0995C78.5884 4.39999 79.0773 4.58333 79.5662 4.95C80.0551 5.31667 80.2995 5.86666 80.2995 6.6V24.9333H79.5662C78.0995 24.9333 76.8773 25.4222 75.8995 26.4C74.9218 27.3778 74.4329 28.6 74.4329 30.0667V30.8C73.2107 31.2889 71.9884 31.9 70.7662 32.6333L70.0329 31.9C69.0551 30.9222 67.894 30.4333 66.5495 30.4333C65.2051 30.4333 64.044 30.9222 63.0662 31.9L60.1329 34.8333C59.3995 35.8111 59.0329 36.9722 59.0329 38.3167C59.0329 39.6611 59.3995 40.8222 60.1329 41.8L60.8662 42.1667C60.1329 43.6333 59.644 44.9778 59.3995 46.2H58.2995C57.0773 46.2 55.9773 46.6889 54.9995 47.6667C54.0218 48.6444 53.5329 49.7444 53.5329 50.9667V55C53.5329 56.4667 54.0218 57.6889 54.9995 58.6667C55.9773 59.6444 57.0773 60.1333 58.2995 60.1333H59.3995C59.644 61.3556 60.1329 62.7 60.8662 64.1667L60.4995 64.5333C59.5218 65.5111 59.0329 66.6722 59.0329 68.0167C59.0329 69.3611 59.5218 70.5222 60.4995 71.5L63.0662 74.4333C64.044 75.4111 65.2051 75.9 66.5495 75.9C67.894 75.9 69.0551 75.4111 70.0329 74.4333L70.7662 73.7C71.9884 74.4333 73.3329 75.0444 74.7995 75.5333V76.2667C74.7995 77.7333 75.2273 78.8944 76.0829 79.75C76.9384 80.6056 78.0995 81.0333 79.5662 81.0333H80.2995V99.7333C80.2995 101.444 79.7495 102.85 78.6495 103.95C77.5495 105.05 76.144 105.6 74.4329 105.6C72.7218 105.6 71.3162 105.05 70.2162 103.95C69.1162 102.85 68.5662 101.444 68.5662 99.7333V94.2333C68.5662 92.7667 68.0773 91.5444 67.0995 90.5667C66.1218 89.5889 65.0218 89.1 63.7995 89.1H11.7329V76.6333C11.7329 76.1444 11.5495 75.6556 11.1829 75.1667C10.8162 74.6778 10.3273 74.4333 9.71621 74.4333C9.1051 74.4333 8.5551 74.6778 8.06621 75.1667C7.57732 75.6556 7.33288 76.1444 7.33288 76.6333V89.1H5.49954C4.03288 89.1 2.81066 89.5889 1.83288 90.5667C0.8551 91.5444 0.366211 92.7667 0.366211 94.2333V99.7333C0.366211 102.667 1.34399 105.111 3.29954 107.067C5.2551 109.022 7.69954 110 10.6329 110H74.4329C77.1218 110 79.5051 109.022 81.5829 107.067C83.6607 105.111 84.6995 102.667 84.6995 99.7333V81.0333C85.6773 80.7889 86.5329 80.2389 87.2662 79.3833C87.9995 78.5278 88.3662 77.4889 88.3662 76.2667V75.5333C89.8329 75.0444 91.1773 74.4333 92.3995 73.7L93.1329 74.4333C94.1107 75.4111 95.2718 75.9 96.6162 75.9C97.9607 75.9 99.1218 75.4111 100.1 74.4333L102.666 71.5C103.644 70.5222 104.133 69.3611 104.133 68.0167C104.133 66.6722 103.644 65.5111 102.666 64.5333L102.3 64.1667C102.788 62.7 103.277 61.3556 103.766 60.1333H104.866C106.088 60.1333 107.188 59.6444 108.166 58.6667C109.144 57.6889 109.633 56.4667 109.633 55V50.9667C109.633 49.7444 109.144 48.6444 108.166 47.6667C107.188 46.6889 106.088 46.2 104.866 46.2ZM10.6329 105.6C8.92177 105.6 7.51621 105.05 6.41621 103.95C5.31621 102.85 4.76621 101.444 4.76621 99.7333V94.2333C4.76621 93.7444 5.01066 93.5 5.49954 93.5H63.7995C64.044 93.5 64.1662 93.7444 64.1662 94.2333V99.7333C64.1662 101.933 64.7773 103.889 65.9995 105.6H10.6329ZM105.233 55C105.233 55.4889 105.111 55.7333 104.866 55.7333H102.3C101.077 55.7333 100.344 56.2222 100.1 57.2C99.6107 59.4 98.7551 61.3556 97.5329 63.0667C97.044 64.0444 97.1662 65.0222 97.8995 66L99.7329 67.8333C99.9773 68.0778 99.9773 68.3222 99.7329 68.5667L96.7995 71.1333L96.4329 71.5L96.0662 71.1333L94.2329 69.6667C93.9884 69.1778 93.6218 68.9333 93.1329 68.9333C92.644 68.9333 92.1551 69.0556 91.6662 69.3C89.7107 70.2778 87.7551 71.0111 85.7995 71.5C85.3107 71.7444 84.8829 72.05 84.5162 72.4167C84.1495 72.7833 83.9662 73.2111 83.9662 73.7V76.2667C83.9662 76.7556 83.844 77 83.5995 77H79.5662C79.0773 77 78.8329 76.7556 78.8329 76.2667V73.7C78.8329 72.4778 78.344 71.7444 77.3662 71.5C75.1662 71.0111 73.2107 70.2778 71.4995 69.3C71.0107 69.0556 70.5218 68.9333 70.0329 68.9333C69.544 68.9333 69.1773 69.1778 68.9329 69.6667L67.0995 71.1333L66.7329 71.5L66.3662 71.1333L63.4329 68.5667C63.1884 68.3222 63.1884 68.0778 63.4329 67.8333L65.2662 66C65.5107 65.5111 65.694 65.0222 65.8162 64.5333C65.9384 64.0444 65.8773 63.5556 65.6329 63.0667C64.4107 61.3556 63.5551 59.4 63.0662 57.2C62.8218 56.2222 62.0884 55.7333 60.8662 55.7333H58.2995C58.0551 55.7333 57.9329 55.4889 57.9329 55V50.9667C57.9329 50.7222 58.0551 50.6 58.2995 50.6H60.8662C61.3551 50.6 61.7829 50.4167 62.1495 50.05C62.5162 49.6833 62.8218 49.2556 63.0662 48.7667C63.5551 46.8111 64.2884 44.8556 65.2662 42.9C65.9995 41.9222 65.9995 41.0667 65.2662 40.3333L63.4329 38.5C63.1884 38.2556 63.1884 38.0111 63.4329 37.7667L65.9995 34.8333H66.7329H67.0995L68.5662 36.6667C69.0551 37.1556 69.544 37.4 70.0329 37.4C70.5218 37.4 71.0107 37.2778 71.4995 37.0333C73.2107 35.8111 75.1662 34.9556 77.3662 34.4667C78.344 34.2222 78.8329 33.6111 78.8329 32.6333V30.0667C78.8329 29.5778 79.0773 29.3333 79.5662 29.3333H83.5995C83.844 29.3333 83.9662 29.5778 83.9662 30.0667V32.6333C83.9662 33.1222 84.1495 33.55 84.5162 33.9167C84.8829 34.2833 85.3107 34.4667 85.7995 34.4667C87.7551 34.9556 89.7107 35.8111 91.6662 37.0333C92.644 37.5222 93.4995 37.4 94.2329 36.6667L96.0662 34.8333H96.4329H96.7995L99.7329 37.7667C99.9773 38.0111 99.9773 38.2556 99.7329 38.5L97.8995 40.3333C97.1662 41.0667 97.044 41.9222 97.5329 42.9C98.7551 44.8556 99.6107 46.8111 100.1 48.7667C100.1 49.2556 100.344 49.6833 100.833 50.05C101.322 50.4167 101.811 50.6 102.3 50.6H104.866C105.111 50.6 105.233 50.7222 105.233 50.9667V55Z" fill="#7B99FF"/>
</g>
<defs>
<clipPath id="clip0_937_295">
<rect width="110" height="110" fill="white" transform="matrix(1 0 0 -1 0 110)"/>
</clipPath>
</defs>
</svg>
