<svg width="356" height="200" viewBox="0 0 356 200" fill="none" xmlns="http://www.w3.org/2000/svg">
<g clip-path="url(#clip0_937_468)">
<path opacity="0.11" d="M111.348 190.438C90.9429 180.11 53.9921 178.063 57.342 112.812C60.6919 47.5608 149.961 45.3932 160.314 13.1389C170.668 -19.1151 279.626 8.78487 215.152 88.3549C203.735 102.444 230.535 118.087 225.845 143.724C221.155 169.36 131.753 200.767 111.348 190.438Z" fill="#7695FF"/>
<path opacity="0.11" d="M151.141 200C191.474 200 224.17 194.982 224.17 188.792C224.17 182.602 191.474 177.583 151.141 177.583C110.808 177.583 78.1123 182.602 78.1123 188.792C78.1123 194.982 110.808 200 151.141 200Z" fill="#7695FF"/>
<path d="M206.347 187.329H91.0379C88.5802 187.329 86.5879 185.34 86.5879 182.885V24.1074C86.5879 21.6528 88.5802 19.663 91.0379 19.663H206.347C208.804 19.663 210.797 21.6528 210.797 24.1074V182.885C210.797 185.34 208.804 187.329 206.347 187.329Z" fill="#34A853"/>
<path d="M200.821 181.292H96.5643C94.1066 181.292 92.1143 179.303 92.1143 176.848V30.1444C92.1143 27.6898 94.1066 25.7 96.5643 25.7H200.821C203.278 25.7 205.271 27.6898 205.271 30.1444V176.848C205.271 179.303 203.278 181.292 200.821 181.292Z" fill="#F7F7F7"/>
<path opacity="0.11" d="M106.993 46.6636H122.851V62.5021H106.993V46.6636Z" fill="#4285F4"/>
<path d="M106.19 51.1763C106.995 51.5862 107.74 52.0525 108.466 52.5364C109.188 53.0241 109.892 53.528 110.571 54.0562C111.936 55.1054 113.223 56.2275 114.457 57.3997L111.72 57.6019C112.108 56.9839 112.52 56.3811 112.955 55.7947C113.38 55.2121 113.828 54.6493 114.291 54.0969C115.22 52.9969 116.215 51.9478 117.297 50.9801C118.384 50.0178 119.542 49.1225 120.802 48.3638C122.07 47.6206 123.421 46.9717 124.879 46.6636C123.945 47.8239 123.071 48.8945 122.215 49.9802L119.687 53.2213C118.85 54.297 118.008 55.369 117.161 56.4373L114.621 59.6091L113.2 61.3826L111.883 59.8115C110.79 58.5075 109.751 57.153 108.789 55.726C108.305 55.016 107.846 54.2815 107.405 53.5312C106.967 52.7767 106.549 52.0047 106.19 51.1763Z" fill="#7695FF"/>
<path opacity="0.11" d="M106.993 93.0889H122.851V108.927H106.993V93.0889ZM106.993 140.697H122.851V156.536H106.993V140.697Z" fill="#4285F4"/>
<g opacity="0.52">
<path d="M129.988 46.6636H192.186V49.2138H129.988V46.6636ZM129.988 53.3078H192.186V55.858H129.988V53.3078ZM157.171 59.9519H192.186V62.5021H129.988V59.9519H157.171Z" fill="#7695FF"/>
</g>
<g opacity="0.52">
<path d="M129.988 93.0889H192.186V95.6391H129.988V93.0889ZM129.988 99.7329H192.186V102.283H129.988V99.7329ZM129.988 106.377H159.627V108.927H129.988V106.377Z" fill="#7695FF"/>
</g>
<g opacity="0.52">
<path d="M129.988 140.697H192.186V143.247H129.988V140.697ZM129.988 147.341H189.665V149.891H129.988V147.341ZM129.988 153.985H192.186V156.535H129.988V153.985Z" fill="#7695FF"/>
</g>
<path d="M176.099 27.8378H121.284V15.9326C121.284 13.478 123.276 11.4882 125.734 11.4882H171.649C174.107 11.4882 176.099 13.478 176.099 15.9326V27.8378Z" fill="#7695FF"/>
<path d="M128.584 162.996H181.96V195.427H128.584V162.996ZM181.96 162.996H128.584L132.958 153.211H177.586L181.96 162.996Z" fill="#7695FF"/>
<path opacity="0.11" d="M128.584 162.996H181.96V195.427H128.584V162.996Z" fill="#7695FF"/>
<path d="M146.992 108.276C146.992 108.276 134.528 122.342 133.636 127.05C132.745 131.758 144.932 152.565 144.932 152.565L139.269 156.507L150.57 155.428C150.57 155.428 145.814 138.154 143.111 132.272C146.747 129.81 155.504 120.173 155.504 120.173L163.627 139.075L167.128 160.675L176.516 163.434L171.036 157.496C172.007 141.62 171.989 141.617 172.7 136.764C173.379 132.125 169.349 115.299 168.16 109.937C166.971 104.575 150.507 106.069 146.992 108.276Z" fill="#0E8C30"/>
<path d="M144.165 66.1434C144.332 66.7772 148.286 83.4335 148.286 83.4335C148.286 83.4335 144.692 85.1904 143.201 83.1793C141.71 81.1682 141.211 65.9333 141.211 65.9333L144.165 66.1434Z" fill="#FCE9B1"/>
<path d="M143.521 62.8444C143.521 62.8444 141.347 60.9702 140.673 62.3767C140 63.7833 141.186 65.2796 141.211 65.9333C141.235 66.587 144.164 66.1433 144.164 66.1433C144.164 66.1433 144.917 64.0155 143.521 62.8444Z" fill="#FCE9B1"/>
<path d="M144.884 65.6089L121.871 57.0072C121.871 57.0072 119.8 59.3144 120.531 62.072L143.874 67.3841C143.874 67.3841 145.103 67.6863 144.884 65.6089Z" fill="#7695FF"/>
<path d="M157.968 76.9688L155.96 82.3213C155.96 82.3213 156.205 84.8585 158.985 84.9107C161.764 84.9629 162.227 83.3579 162.227 83.3579L161.769 77.0081C161.769 77.0083 159.156 76.2851 157.968 76.9688ZM140.416 81.1222L137.656 80.5733L135.538 68.9538L138.169 66.0963L136.276 65.5518C136.276 65.5518 136.651 63.212 136.372 62.0057C136.092 60.7996 135.298 60.4953 133.321 61.2724C132.279 61.8763 131.456 65.6353 132.445 67.7666C133.435 69.8981 133.337 83.3107 133.131 85.4664C132.926 87.6222 138.936 89.0181 138.936 89.0181C138.936 89.0181 141.811 89.4135 142.751 86.4077C143.692 83.402 140.416 81.1222 140.416 81.1222Z" fill="#FCE9B1"/>
<path d="M158.338 81.3957C156.133 80.9593 153.514 80.7702 150.553 81.1365C145.258 81.3458 140.415 81.1222 140.415 81.1222C140.415 81.1222 138.288 84.8283 138.935 89.018C138.935 89.018 144.212 92.2411 149.294 92.4441C149.874 94.8239 148.967 105.59 146.991 108.275C148.478 110.58 160.969 113.302 168.16 109.936C169.381 107.565 168.143 97.4576 167.139 90.7461C166.444 86.1002 162.952 82.3095 158.338 81.3957Z" fill="#7695FF"/>
<path d="M157.078 68.1888C157.078 68.1888 153.092 73.0565 153.56 74.9263C154.028 76.7962 156.272 78.536 161.592 79.1256C163.418 78.8523 165.439 73.406 165.393 72.2664C165.091 64.8075 159.039 66.9306 157.078 68.1888Z" fill="#FFF1CA"/>
<path d="M162.045 70.8862C162.045 70.8862 155.083 69.7632 154.405 66.2508C153.728 62.7384 159.41 60.9336 161.93 62.0317C163.003 62.4995 163.545 63.32 164.176 64.2426C164.886 65.2804 165.766 65.631 166.899 66.231C167.264 66.4241 167.63 66.6187 167.956 66.8728C169.711 68.2454 169.088 69.8754 168.792 71.7126C168.507 73.4778 168.232 75.2941 167.073 76.731C165.056 79.2293 161.676 78.8415 161.769 77.008C161.862 75.175 163.921 71.3204 162.045 70.8862ZM144.932 152.564C144.932 152.564 148.333 152.499 149.628 152.128C150.207 154.128 150.57 155.428 150.57 155.428L139.27 156.507L144.932 152.564ZM166.523 156.718C168.151 157.66 171.036 157.496 171.036 157.496L176.516 163.434L167.129 160.456L166.523 156.718Z" fill="#34A853"/>
<path d="M121.871 57.0072L115.534 57.4135L120.531 62.072L121.871 62.3768L120.503 60.7035L122.625 60.815L121.062 59.142L123.462 59.1978L121.564 57.9154L123.676 57.6818L121.871 57.0072Z" fill="#FFF1CA"/>
<path d="M118.655 57.2134C118.655 57.2134 118.752 59.0213 117.757 59.486L115.534 57.4134L118.655 57.2134Z" fill="#7695FF"/>
<path d="M143.953 65.2612C143.953 65.2612 141.79 65.8558 139.445 65.0193C137.1 64.1828 139.57 61.5267 141.21 61.7117C142.85 61.8965 145.03 63.3652 143.953 65.2612Z" fill="#FAE7AF"/>
</g>
<defs>
<clipPath id="clip0_937_468">
<rect width="356" height="200" fill="white"/>
</clipPath>
</defs>
</svg>
