<svg width="110" height="110" viewBox="0 0 110 110" fill="none" xmlns="http://www.w3.org/2000/svg">
<g clip-path="url(#clip0_937_289)">
<path d="M82.5 11.3667C77.3667 11.3667 73.0278 13.2 69.4833 16.8667C65.9389 20.5333 64.1667 24.8722 64.1667 29.8833C64.1667 34.8944 65.9389 39.1722 69.4833 42.7167C73.0278 46.2611 77.3667 48.0333 82.5 48.0333C87.6333 48.0333 91.9722 46.2611 95.5167 42.7167C99.0611 39.1722 100.833 34.8944 100.833 29.8833C100.833 24.8722 99.0611 20.5333 95.5167 16.8667C91.9722 13.2 87.6333 11.3667 82.5 11.3667ZM82.5 43.6333C78.5889 43.6333 75.35 42.2889 72.7833 39.6C70.2167 36.9111 68.9333 33.6722 68.9333 29.8833C68.9333 26.0944 70.2167 22.8556 72.7833 20.1667C75.35 17.4778 78.5889 16.1333 82.5 16.1333C86.4111 16.1333 89.65 17.4778 92.2167 20.1667C94.7833 22.8556 96.1278 26.0944 96.25 29.8833C96.3722 33.6722 95.0889 36.9111 92.4 39.6C89.7111 42.2889 86.4111 43.6333 82.5 43.6333ZM87.6333 23.4667L80.3 31.1667L77.3667 28.2333L74.0667 31.5333L78.4667 35.9333C78.9556 36.4222 79.5056 36.6667 80.1167 36.6667C80.7278 36.6667 81.2778 36.4222 81.7667 35.9333L90.9333 26.7667L87.6333 23.4667ZM45.8333 59.4H77.7333V64.1667H45.8333V59.4ZM50.6 27.5H25.3C20.9 27.5 17.1111 29.0889 13.9333 32.2667C10.7556 35.4444 9.16667 39.2333 9.16667 43.6333H13.9333C13.9333 40.4556 15.0333 37.7667 17.2333 35.5667C19.4333 33.3667 22.1222 32.2667 25.3 32.2667H50.2333C51.7 32.2667 52.8611 32.6944 53.7167 33.55C54.5722 34.4056 55 35.4444 55 36.6667C55 37.8889 54.5722 38.9889 53.7167 39.9667C52.8611 40.9444 51.7 41.4333 50.2333 41.4333H25.3V45.8333H50.2333C52.9222 45.8333 55.1222 44.9167 56.8333 43.0833C58.5444 41.25 59.4 39.1111 59.4 36.6667C59.4 34.2222 58.5444 32.0833 56.8333 30.25C55.1222 28.4167 53.0444 27.5 50.6 27.5ZM2.2 36.6667C1.71111 36.6667 1.22222 36.9111 0.733333 37.4C0.244444 37.8889 0 38.3778 0 38.8667V41.0667H11.3667V36.6667H2.2ZM105.6 66.3667V98.6333C105.6 100.589 104.928 102.178 103.583 103.4C102.239 104.622 100.589 105.233 98.6333 105.233H43.6333C41.6778 105.233 40.0278 104.622 38.6833 103.4C37.3389 102.178 36.6667 100.589 36.6667 98.6333V43.6333H32.2667V98.6333C32.2667 101.811 33.3667 104.5 35.5667 106.7C37.7667 108.9 40.4556 110 43.6333 110H98.6333C101.811 110 104.5 108.9 106.7 106.7C108.9 104.5 110 101.811 110 98.6333V66.3667H105.6ZM98.6333 0H52.8C52.0667 0 51.4556 0.244446 50.9667 0.73333L32.6333 19.0667L35.9333 22.3667L53.5333 4.39999H98.6333C100.589 4.39999 102.239 5.07222 103.583 6.41666C104.928 7.76111 105.6 9.41111 105.6 11.3667V43.6333H110V11.3667C110 8.18889 108.9 5.5 106.7 3.3C104.5 1.1 101.811 0 98.6333 0ZM54.2667 0.73333C53.7778 0.244446 53.2278 0 52.6167 0C52.0056 0 51.4556 0.244446 50.9667 0.73333L32.6333 19.0667C32.3889 19.5556 32.2667 20.0444 32.2667 20.5333V29.7H36.6667V21.6333L50.6 7.7V16.1333C50.6 16.6222 50.3556 17.1111 49.8667 17.6C49.3778 18.0889 48.7667 18.3333 48.0333 18.3333H43.6333V23.1H48.0333C49.9889 23.1 51.6389 22.4278 52.9833 21.0833C54.3278 19.7389 55 18.0889 55 16.1333V2.2C55 1.71111 54.7556 1.22222 54.2667 0.73333ZM13.9333 61.9667H9.16667C9.16667 66.3667 10.7556 70.0944 13.9333 73.15C17.1111 76.2056 20.9 77.8556 25.3 78.1V73.3333C22.1222 73.3333 19.4333 72.2333 17.2333 70.0333C15.0333 67.8333 13.8111 65.1444 13.5667 61.9667H13.9333ZM25.3 73.3333H34.4667V77.7333H25.3V73.3333ZM0 64.1667V66.3667C0 67.1 0.244444 67.7111 0.733333 68.2C1.22222 68.6889 1.71111 68.9333 2.2 68.9333H11.3667V64.1667H0ZM108.167 50.2333C106.7 48.7667 105.05 48.0333 103.217 48.0333C101.383 48.0333 99.7333 48.7667 98.2667 50.2333L66.7333 81.7667C66.2444 82.2556 66 82.8056 66 83.4167C66 84.0278 66.2444 84.5778 66.7333 85.0667L72.9667 91.6667C73.4556 91.9111 74.0056 92.0333 74.6167 92.0333C75.2278 92.0333 75.7778 91.9111 76.2667 91.6667L108.167 59.7667C109.389 58.3 110 56.65 110 54.8167C110 52.9833 109.389 51.4556 108.167 50.2333ZM104.867 56.4667L74.4333 86.5333L71.5 83.6L101.567 53.5333C102.056 53.0444 102.606 52.8 103.217 52.8C103.828 52.8 104.378 53.0444 104.867 53.5333C105.356 53.7778 105.539 54.2056 105.417 54.8167C105.294 55.4278 105.111 55.9778 104.867 56.4667ZM73.7 88L67.1 91.3L70.4 84.7L66.3667 82.5L59.7667 95.3333C59.5222 95.5778 59.4 95.9444 59.4 96.4333C59.4 96.9222 59.6444 97.4111 60.1333 97.9C60.6222 98.3889 61.1111 98.6333 61.6 98.6333C62.0889 98.6333 62.5778 98.5111 63.0667 98.2667L75.5333 92.0333L73.7 88ZM90.5667 61.2333L93.8667 57.9333L100.1 64.5333L96.8 67.8333L90.5667 61.2333ZM45.8333 93.8667H61.9667V98.6333H45.8333V93.8667ZM45.8333 82.5H59.4V86.9H45.8333V82.5ZM45.8333 71.1333H66.3667V75.5333H45.8333V71.1333ZM75.5333 93.8667H96.4333V98.6333H75.5333V93.8667ZM86.9 82.5H96.4333V86.9H86.9V82.5Z" fill="#7B99FF"/>
</g>
<defs>
<clipPath id="clip0_937_289">
<rect width="110" height="110" fill="white" transform="matrix(1 0 0 -1 0 110)"/>
</clipPath>
</defs>
</svg>
