<svg width="110" height="110" viewBox="0 0 110 110" fill="none" xmlns="http://www.w3.org/2000/svg">
<path d="M32.0041 58.4767C44.8486 58.4767 55.3909 47.9324 55.3909 35.0428C55.3909 22.2435 44.8486 11.656 32.0041 11.656C19.2048 11.656 8.61733 22.2435 8.61733 35.0428C8.61733 47.9324 19.2048 58.4767 32.0041 58.4767ZM66.3929 26.0189H97.8372C99.8171 26.0189 101.381 24.5005 101.381 22.5205C101.381 20.5856 99.8152 19.0673 97.8372 19.0673H66.3929C64.4129 19.0673 62.8925 20.5856 62.8925 22.5205C62.8925 24.5005 64.4129 26.0189 66.3929 26.0189ZM29.2423 48.7614C28.3919 48.7498 27.5806 48.4024 26.9854 47.7949L18.1461 38.1267C17.8239 37.7594 17.5941 36.9285 17.5941 36.3314C17.5941 34.7206 18.8375 33.4773 20.403 33.4773C21.3695 33.4773 22.0589 33.9369 22.5657 34.4437L29.1029 41.5799L41.303 24.638C41.8098 23.9014 42.6388 23.3946 43.6523 23.3946C45.1707 23.3946 46.5064 24.5928 46.5064 26.2035C46.5064 26.6631 46.2766 27.3074 45.8622 27.8614L31.5897 47.7026C31.13 48.3469 30.2088 48.7633 29.2423 48.7633M66.3948 50.1442H97.8391C99.8191 50.1442 101.383 48.6258 101.383 46.6478C101.383 44.713 99.8171 43.1926 97.8391 43.1926H66.3929C64.4129 43.1926 62.8925 44.713 62.8925 46.6458C62.8925 48.6258 64.4148 50.1442 66.3948 50.1442ZM12.1157 74.2696H97.8372C98.3003 74.2745 98.7599 74.1877 99.1893 74.0141C99.6188 73.8405 100.01 73.5835 100.339 73.2581C100.669 72.9327 100.931 72.5452 101.11 72.118C101.289 71.6908 101.382 71.2324 101.383 70.7692C101.383 68.8364 99.8171 67.316 97.8391 67.316H12.1157C10.1357 67.316 8.61733 68.8364 8.61733 70.7692C8.61733 72.704 10.1357 74.2696 12.1138 74.2696M12.1138 98.3458H97.8352C99.8152 98.3458 101.381 96.8274 101.381 94.8946C101.381 92.9598 99.8152 91.3942 97.8372 91.3942H12.1157C11.655 91.3903 11.1982 91.4781 10.7719 91.6527C10.3455 91.8272 9.95819 92.085 9.63252 92.4108C9.30686 92.7367 9.04936 93.1241 8.87506 93.5506C8.70075 93.977 8.61314 94.4339 8.61733 94.8946C8.61733 96.8274 10.1357 98.3458 12.1138 98.3458Z" fill="#7695FF"/>
</svg>
