<svg width="277" height="233" viewBox="0 0 277 233" fill="none" xmlns="http://www.w3.org/2000/svg">
<g clip-path="url(#clip0_937_320)">
<path d="M156.743 32.1895C160.132 33.6589 163.309 35.2871 166.188 37.0221C176.255 43.0846 184.354 51.9109 194.246 57.9916C203.588 63.733 214.996 65.1288 225.685 66.0885C244.318 67.7615 283.18 83.8059 276.163 113.543C273.61 124.365 264.608 131.715 259.998 141.515C255.095 151.939 255.61 164.941 247.804 173.979C244.369 177.952 239.629 180.577 234.762 182.565C202.372 195.791 165.999 195.176 131.655 193.718C104.547 192.568 61.0082 198.649 37.1978 183.798C25.3765 176.425 31.5237 156.269 23.3439 145.443C16.4704 136.346 7.1156 130.371 2.52017 118.984C-5.3001 99.6078 5.84694 74.3923 25.3644 67.5141C37.5607 63.2161 50.4816 61.2469 62.5378 56.5266C74.9933 51.648 79.7926 44.3409 89.2915 35.6922C106.464 20.0596 135.691 23.0598 156.743 32.1895Z" fill="#CCE9FF"/>
<path d="M186.74 186.359H92.7197V127.619C92.7197 126.508 93.6039 125.609 94.6942 125.609H184.765C185.856 125.609 186.74 126.508 186.74 127.619V186.359Z" fill="#D3D3D3"/>
<path d="M96.1621 129.865H183.301V181.665H96.1621V129.865Z" fill="#F2F2F2"/>
<path d="M77.7675 203.845C76.9033 204.974 78.5548 208.346 81.1447 208.346H200.326C202.914 208.346 204.545 204.974 203.554 203.845H77.7675Z" fill="#D3D3D3"/>
<path d="M203.221 203.227C204.212 204.355 202.914 205.27 200.327 205.27H81.1452C78.5553 205.27 77.157 204.355 78.0212 203.227L90.2231 187.29C91.0873 186.161 93.3488 185.247 95.2756 185.247H183.944C185.868 185.247 188.235 186.161 189.226 187.29C193.89 192.604 198.557 197.914 203.221 203.227Z" fill="#F2F2F2"/>
<g opacity="0.5">
<path d="M104.49 190.623H100.465C101.034 189.78 101.32 189.358 101.888 188.515H105.754L104.49 190.623ZM109.707 190.623H105.682C106.169 189.78 106.413 189.358 106.9 188.515H110.765L109.707 190.623ZM108.04 188.112H102.164L102.695 187.325H108.482L108.04 188.112ZM114.928 188.112L109.05 188.112L109.475 187.325H115.262C115.129 187.64 115.061 187.797 114.928 188.112ZM121.815 188.112H115.937L116.255 187.325H122.045L121.815 188.112ZM128.702 188.112H122.825L123.036 187.325H128.825C128.777 187.64 128.752 187.797 128.702 188.112ZM135.591 188.112H129.712L129.819 187.325H135.606L135.591 188.112ZM142.478 188.112H136.601V187.325H142.388C142.424 187.64 142.44 187.797 142.478 188.112ZM149.366 188.112H143.488L143.381 187.325H149.17C149.247 187.64 149.287 187.797 149.366 188.112ZM156.255 188.112H150.376L150.164 187.325H155.951C156.073 187.64 156.134 187.797 156.255 188.112ZM163.143 188.112H157.265C157.136 187.797 157.072 187.64 156.943 187.325H162.733L163.143 188.112ZM170.029 188.112H164.152C163.982 187.797 163.896 187.64 163.727 187.325H169.513C169.719 187.64 169.822 187.797 170.029 188.112ZM177.715 188.112H171.04L170.508 187.325H177.08C177.333 187.64 177.461 187.797 177.715 188.112ZM114.922 190.623H110.898C111.302 189.78 111.506 189.359 111.909 188.516L115.774 188.515C115.434 189.359 115.263 189.779 114.922 190.623ZM120.138 190.623H116.113C116.436 189.78 116.597 189.358 116.92 188.515L120.786 188.516L120.138 190.623ZM125.355 190.623H121.331C121.571 189.779 121.692 189.359 121.931 188.515H125.796C125.62 189.358 125.531 189.78 125.355 190.623ZM130.571 190.623H126.547C126.704 189.78 126.781 189.357 126.94 188.515H130.807C130.712 189.358 130.663 189.78 130.571 190.623ZM135.784 190.623H131.763L131.951 188.515H135.816C135.804 189.358 135.798 189.78 135.784 190.623ZM141.003 190.623H136.978L136.963 188.515H140.827C140.898 189.358 140.933 189.78 141.003 190.623ZM146.218 190.623H142.195L141.975 188.515H145.837C145.99 189.358 146.066 189.78 146.218 190.623ZM151.433 190.623H147.41C147.24 189.78 147.154 189.358 146.983 188.515H150.848C151.081 189.358 151.198 189.78 151.433 190.623ZM102.804 193.432H98.5702L99.9906 191.325H104.069L102.804 193.432ZM108.296 193.432H104.06C104.548 192.59 104.792 192.168 105.278 191.325H109.356C108.931 192.167 108.718 192.589 108.296 193.432ZM113.786 193.432H109.55C109.954 192.59 110.155 192.168 110.561 191.325H114.637C114.297 192.168 114.125 192.589 113.786 193.432ZM119.276 193.432H115.039C115.361 192.59 115.523 192.168 115.844 191.325H119.923C119.664 192.168 119.534 192.589 119.276 193.432ZM124.767 193.432H120.531C120.772 192.59 120.891 192.168 121.131 191.327C122.762 191.327 123.576 191.325 125.208 191.325C125.03 192.168 124.943 192.589 124.767 193.432ZM130.255 193.432H126.019L126.414 191.325H130.491C130.397 192.167 130.349 192.589 130.255 193.432ZM135.744 193.432H131.51L131.699 191.325H135.773L135.744 193.432ZM141.235 193.432H136.999L136.984 191.325H141.06C141.13 192.168 141.166 192.589 141.235 193.432ZM146.724 193.432H142.491C142.402 192.59 142.357 192.168 142.27 191.325H146.344L146.724 193.432ZM152.213 193.432H147.979C147.808 192.59 147.722 192.168 147.552 191.325H151.628L152.213 193.432ZM101.12 196.241H96.6733C97.2411 195.399 97.527 194.977 98.0959 194.135L102.384 194.134C101.879 194.976 101.625 195.398 101.12 196.241ZM106.884 196.241H102.438L103.654 194.135H107.944C107.52 194.976 107.307 195.398 106.884 196.241ZM112.649 196.241H108.201L109.212 194.135H113.5L112.649 196.241ZM118.412 196.241H113.964L114.77 194.135H119.059L118.412 196.241ZM124.175 196.241H119.73C119.97 195.399 120.091 194.977 120.33 194.135H124.618C124.443 194.976 124.353 195.398 124.175 196.241ZM129.938 196.241H125.492C125.65 195.399 125.73 194.977 125.888 194.135H130.176L129.938 196.241ZM135.701 196.241H131.257L131.446 194.135H135.732C135.721 194.976 135.714 195.398 135.701 196.241ZM141.469 196.241H137.021C137.016 195.399 137.012 194.977 137.006 194.135H141.294C141.364 194.976 141.398 195.398 141.469 196.241ZM147.231 196.241H142.787C142.698 195.399 142.653 194.977 142.565 194.135H146.851C147.003 194.976 147.08 195.398 147.231 196.241ZM152.993 196.241H148.546C148.377 195.399 148.292 194.977 148.12 194.135H152.408L152.993 196.241ZM99.435 199.049H94.7764C95.3448 198.207 95.6312 197.785 96.1996 196.944H100.698C100.278 197.646 99.8567 198.348 99.435 199.049ZM105.474 199.049H100.816L102.034 196.944H106.533C106.11 197.785 105.896 198.207 105.474 199.049ZM111.51 199.049H106.853C107.257 198.207 107.46 197.785 107.866 196.944H112.364C112.023 197.785 111.853 198.207 111.51 199.049ZM117.529 199.116H112.863C113.197 198.248 113.363 197.813 113.695 196.944H118.196C117.929 197.812 117.796 198.248 117.529 199.116ZM153.776 199.049H118.929C119.167 198.207 119.287 197.785 119.527 196.944H153.19L153.776 199.049ZM128.017 203.677H154.452L152.226 200.089H130.122L128.017 203.677ZM156.153 190.623H152.129C151.882 189.78 151.761 189.358 151.516 188.515H155.381C155.69 189.357 155.843 189.78 156.153 190.623ZM157.181 193.432H152.944C152.7 192.59 152.578 192.168 152.333 191.325H156.411C156.718 192.168 156.873 192.589 157.181 193.432ZM158.209 196.241H153.762C153.516 195.399 153.396 194.977 153.15 194.135H157.439C157.747 194.976 157.9 195.398 158.209 196.241ZM159.238 199.049H154.579L153.966 196.944H158.466L159.238 199.049ZM160.87 190.623H156.846C156.526 189.78 156.366 189.358 156.048 188.515H159.913C160.295 189.358 160.487 189.78 160.87 190.623ZM162.147 193.432H157.911C157.592 192.59 157.431 192.168 157.113 191.325H161.19C161.572 192.167 161.764 192.589 162.147 193.432ZM163.422 196.241H158.976L158.176 194.135H162.465C162.849 194.976 163.039 195.398 163.422 196.241ZM164.698 199.049H160.039C159.721 198.207 159.561 197.785 159.243 196.944H163.741C164.124 197.785 164.314 198.207 164.698 199.049ZM165.588 190.623H161.564L160.579 188.515H164.446C164.903 189.358 165.132 189.78 165.588 190.623ZM167.112 193.432H162.876L161.891 191.325H165.969C166.426 192.168 166.656 192.589 167.112 193.432ZM168.637 196.241H164.189C163.795 195.399 163.599 194.977 163.204 194.135H167.494L168.637 196.241ZM170.16 199.049H165.501C165.108 198.207 164.912 197.785 164.517 196.944H169.017L170.16 199.049ZM170.305 190.623H166.282L165.112 188.515H168.976C169.51 189.358 169.774 189.78 170.305 190.623ZM172.078 193.432H167.842L166.672 191.325H170.749C171.28 192.168 171.547 192.589 172.078 193.432ZM173.849 196.241H169.403C168.935 195.399 168.702 194.977 168.233 194.135H172.521C173.053 194.976 173.319 195.398 173.849 196.241ZM175.622 199.049H170.963C170.574 198.347 170.183 197.645 169.792 196.944H174.293C174.824 197.785 175.089 198.207 175.622 199.049ZM175.025 190.623H171C170.457 189.78 170.185 189.358 169.642 188.515H173.509C174.115 189.358 174.418 189.78 175.025 190.623ZM177.043 193.432H172.807C172.264 192.59 171.993 192.168 171.452 191.325H175.529C176.135 192.168 176.438 192.589 177.043 193.432ZM179.064 196.241H174.615C174.073 195.399 173.803 194.977 173.26 194.135H177.549C178.156 194.976 178.458 195.398 179.064 196.241ZM181.082 199.049H176.423L175.067 196.944H179.568L181.082 199.049ZM179.741 190.623H175.718C175.101 189.78 174.793 189.358 174.175 188.515H178.041C178.721 189.358 179.061 189.78 179.741 190.623ZM182.009 193.432H177.773C177.158 192.59 176.848 192.168 176.232 191.325H180.308L182.009 193.432ZM184.276 196.241H179.829C179.212 195.399 178.905 194.977 178.287 194.135H182.576C183.256 194.976 183.596 195.398 184.276 196.241ZM186.544 199.049H181.884L180.343 196.944H184.843C185.523 197.785 185.862 198.207 186.544 199.049Z" fill="#D3D3D3"/>
</g>
<path d="M162.044 181.651H120.556C120.852 180.448 121.124 179.487 121.362 178.818C121.485 178.475 121.655 178.15 121.867 177.853C122.602 176.813 123.861 175.928 125.482 175.18C127.418 174.285 129.868 173.582 132.554 173.025C135.407 172.441 138.52 172.019 141.551 171.714C141.756 171.696 141.959 171.675 142.164 171.657C145.535 171.342 148.774 171.17 151.387 171.086C154.995 170.962 157.427 170.988 157.427 170.988C157.427 170.988 157.622 171.298 157.963 171.918C158.764 173.388 160.364 176.61 162.044 181.651Z" fill="#0B4870"/>
<path d="M130.262 114.022C130.183 114.554 130.045 115.046 129.849 115.519L129.966 114.18C130.065 114.12 130.164 114.081 130.262 114.022Z" fill="#FFE3CA"/>
<path d="M152.238 112.034V112.051C152.198 112.034 152.158 112.013 152.14 112.013C152.179 112.014 152.198 112.034 152.238 112.034Z" fill="#EEBEA7"/>
<path d="M194.817 140.296C194.817 140.296 197.38 137.923 196.872 136.143C196.442 134.632 197.092 132.939 197.253 132.237C197.473 131.307 197.561 128.287 198.256 128.451C199.432 128.737 199.16 133.558 199.305 134.585C199.45 135.612 202.566 132.174 203.628 131.994C204.693 131.81 210.102 137.287 207.692 139.402C205.282 141.513 201.959 142.37 201.608 142.826C201.257 143.282 199.606 144.535 199.606 144.535L194.817 140.296Z" fill="#F1B99E"/>
<path d="M202.948 132.351C202.948 132.351 210.76 126.374 211.614 126.41C212.471 126.444 212.767 126.889 212.059 127.477C211.354 128.066 204.682 133.475 204.682 133.475C204.682 133.475 215.115 127.949 215.824 127.826C216.235 127.753 216.551 128.543 216.199 128.894C215.85 129.242 206.142 135.344 206.142 135.344C206.142 135.344 215.891 130.202 216.513 130.275C217.058 130.341 217.446 131.238 216.749 131.669C216.052 132.099 207.272 137.384 207.272 137.384C207.272 137.384 214.607 134.09 215.095 134.458C215.391 134.686 215.814 135.186 213.898 135.977C211.978 136.768 207.802 139.295 207.802 139.295L202.948 132.351Z" fill="#F1B99E"/>
<path d="M147.173 106.874V107.405C147.132 107.308 147.093 107.229 147.075 107.13C147.034 107.111 147.034 107.072 147.034 107.05C147.075 106.993 147.113 106.935 147.173 106.874Z" fill="#FFBE55"/>
<path d="M141.299 110.104C141.221 110.123 141.121 110.123 141.043 110.123V110.084C141.121 110.104 141.221 110.104 141.299 110.104ZM147.173 106.874V107.032C147.139 107.064 147.107 107.097 147.074 107.13C146.858 107.366 146.62 107.582 146.384 107.8C146.285 107.879 146.207 107.956 146.109 108.036C146.226 107.919 146.364 107.78 146.484 107.662C146.662 107.485 146.838 107.269 147.034 107.05C147.074 106.993 147.113 106.935 147.173 106.874Z" fill="#EEBEA7"/>
<path d="M151.686 100.082C150.603 102.485 149.281 104.651 147.783 106.364C147.587 106.599 147.369 106.835 147.173 107.033V106.875C147.113 106.935 147.074 106.994 147.034 107.051C146.838 107.269 146.661 107.486 146.484 107.663C146.364 107.781 146.226 107.919 146.109 108.036C146.067 108.057 146.03 108.097 145.99 108.135C145.931 108.194 145.872 108.254 145.812 108.273C145.656 108.409 145.492 108.534 145.319 108.647C145.103 108.804 144.906 108.942 144.69 109.06C144.639 109.095 144.586 109.128 144.532 109.159C144.333 109.276 144.138 109.375 143.962 109.453C143.785 109.548 143.6 109.627 143.408 109.69L143.389 109.71C143.232 109.75 143.113 109.808 142.974 109.848C142.934 109.868 142.897 109.888 142.856 109.888C142.72 109.926 142.581 109.965 142.442 109.986C142.404 109.986 142.384 110.005 142.345 110.005H142.284C142.187 110.026 142.069 110.045 141.971 110.065C141.871 110.084 141.753 110.084 141.655 110.084C141.558 110.104 141.457 110.104 141.378 110.104H141.359C141.34 110.123 141.32 110.123 141.3 110.104C141.222 110.104 141.121 110.104 141.044 110.084V110.123C140.926 110.123 140.807 110.104 140.67 110.084C140.531 110.065 140.374 110.045 140.235 110.026C140.156 110.005 140.079 110.005 139.978 109.986C139.901 109.965 139.821 109.965 139.742 109.926C139.329 109.828 138.936 109.67 138.521 109.453C138.392 109.389 138.267 109.318 138.146 109.238C137.497 108.864 136.865 108.332 136.214 107.662C135.98 107.427 135.762 107.151 135.525 106.874C134.52 105.614 133.517 103.942 132.589 101.816C132.211 100.965 131.856 100.105 131.524 99.2354C132.016 100.2 131.158 91.201 131.356 91.517C128.676 86.3977 131.347 90.611 132.296 88.0724C138.226 90.5723 149.754 94.8847 149.754 90.5131C149.754 90.5131 150.01 93.1713 150.307 95.9274C150.543 98.1916 150.8 100.536 150.919 101.421C150.918 101.421 151.232 100.928 151.686 100.082Z" fill="#F4C7B1"/>
<path d="M141.299 110.104C141.221 110.123 141.121 110.123 141.043 110.123V110.084C141.121 110.104 141.221 110.104 141.299 110.104ZM147.173 106.874V107.032C147.139 107.064 147.107 107.097 147.074 107.13C146.858 107.366 146.62 107.582 146.384 107.8C146.285 107.879 146.207 107.956 146.109 108.036C146.226 107.919 146.364 107.78 146.484 107.662C146.662 107.485 146.838 107.269 147.034 107.05C147.074 106.993 147.113 106.935 147.173 106.874Z" fill="#EEBEA7"/>
<path d="M131.524 99.2352C129.946 96.1243 127.404 90.1792 127.858 84.5474V84.5269C127.15 79.8614 132.963 71.454 141.833 71.8868C150.701 71.454 156.516 79.8614 155.806 84.5269V84.5474C156.08 87.9533 155.253 91.4577 154.229 94.3926C154.879 94.371 155.508 94.4502 156.139 94.6671C159.668 95.8294 161.323 100.417 159.826 104.886C158.348 109.375 154.267 112.052 150.74 110.891C149.103 110.359 147.861 109.08 147.173 107.405V107.032C147.369 106.835 147.588 106.599 147.783 106.363C149.281 104.65 150.603 102.484 151.686 100.081C151.232 100.928 150.956 101.969 150.956 101.969C150.837 101.084 150.542 98.1909 150.306 95.9268C150.009 93.1706 149.753 90.5124 149.753 90.5124C149.753 94.8846 138.225 90.5716 132.295 88.0717L131.524 99.2352Z" fill="#FFBE55"/>
<path d="M147.173 106.874V107.405C147.173 107.78 147.154 108.233 147.173 108.745C146.601 109.453 146.03 110.045 145.438 110.497C145.24 110.654 145.043 110.793 144.847 110.93C144.698 111.042 144.54 111.141 144.374 111.225H144.355C143.448 111.736 142.541 111.993 141.655 112.013H141.2C141.142 112.013 141.083 112.013 141.043 111.993V110.083C141.121 110.103 141.221 110.103 141.299 110.103C141.319 110.122 141.339 110.122 141.358 110.103H141.377C141.477 110.122 141.557 110.122 141.655 110.122C141.773 110.122 141.911 110.103 142.029 110.083C142.166 110.064 142.325 110.044 142.463 110.025C142.541 110.004 142.619 110.004 142.719 109.985C142.799 109.964 142.877 109.964 142.956 109.925C143.37 109.827 143.763 109.669 144.175 109.452C144.295 109.394 144.435 109.316 144.551 109.237C144.984 109.001 145.398 108.684 145.812 108.271C145.872 108.252 145.931 108.192 145.991 108.134C146.03 108.095 146.068 108.055 146.109 108.034C146.226 107.918 146.364 107.779 146.484 107.661C146.662 107.484 146.838 107.267 147.034 107.049C147.074 106.993 147.113 106.935 147.173 106.874Z" fill="#A5735B"/>
<path d="M141.045 123.747V177.046L150.25 176.653L157.818 176.318L157.048 167.006L156.201 156.589C154.887 157.146 153.579 157.717 152.278 158.303C152.633 154.188 152.79 150.408 152.554 147.316C151.628 135.817 150.19 126.445 149.066 120.322V120.302C149.183 119.121 149.025 117.802 148.751 116.581C148.71 116.33 148.658 116.08 148.593 115.833C148.514 115.557 148.456 115.302 148.377 115.046L148.198 114.456C148.159 114.318 148.1 114.18 148.062 114.061C147.917 113.579 147.746 113.106 147.548 112.644H147.51C147.667 113.353 148.219 115.716 148.908 119.436V119.456C148.457 121.425 147.016 122.528 145.242 123.139C145.223 123.139 145.185 123.157 145.163 123.157C143.943 123.572 142.563 123.728 141.243 123.748C141.184 123.747 141.105 123.768 141.045 123.747Z" fill="#0E538C"/>
<path d="M162.073 140.328C162.547 141.055 163.215 142.394 163.886 143.91C163.789 145.584 163.67 146.587 163.67 146.587C163.67 146.587 162.941 148.497 161.975 151.491C161.717 152.238 159.236 165.469 158.961 166.337C158.901 166.494 158.86 166.671 158.803 166.829C157.896 167.28 158.099 166.492 156.521 167.124C156.05 167.32 155.536 167.517 155.003 167.752C154.925 167.794 154.827 167.832 154.687 167.891C154.53 167.95 154.372 168.009 154.214 168.088C153.166 168.538 152.122 168.998 151.082 169.466C151.436 165.351 152.791 150.408 152.554 147.316C151.628 135.817 150.19 126.446 149.066 120.323V120.303C149.006 120.008 148.969 119.733 148.909 119.457V119.436C148.219 115.716 147.667 113.354 147.509 112.644H152.614V112.684C154.032 112.585 160.727 111.644 165.301 115.995C162.777 114.912 159.433 115.892 158.311 116.582C157.857 116.842 157.439 117.159 157.067 117.527C156.496 118.06 156.028 118.694 155.689 119.397C152.417 126.151 160.693 138.239 162.073 140.328Z" fill="#7695FF"/>
<path d="M162.445 181.651H149.761C149.893 180.036 150.062 178.362 150.248 176.654C150.438 174.822 150.665 172.959 150.881 171.086C150.953 170.44 151.028 169.797 151.099 169.152C151.099 169.152 151.103 169.152 151.108 169.148C152.649 168.585 154.674 165.97 156.895 165.094C156.947 165.075 156.996 165.054 157.049 165.035C157.682 164.819 158.312 166.571 158.959 166.337C159.375 170.736 160.86 176.477 162.445 181.651Z" fill="#7695FF"/>
<path d="M141.045 111.994V123.748C141.105 123.768 141.184 123.748 141.244 123.748C142.563 123.729 143.943 123.572 145.163 123.157C145.186 123.157 145.224 123.139 145.243 123.139C147.016 122.528 148.457 121.425 148.908 119.457V119.436C148.22 115.716 147.669 113.354 147.51 112.644H147.234V112.27C147.234 112.034 147.213 111.817 147.213 111.6C147.194 110.891 147.194 110.222 147.175 109.572V108.746C146.604 109.454 146.031 110.046 145.441 110.498C145.258 110.661 145.061 110.806 144.851 110.931C144.702 111.043 144.543 111.141 144.377 111.226H144.358C143.391 111.778 142.445 112.014 141.5 112.014C141.341 112.014 141.184 112.014 141.045 111.994Z" fill="#F4C7B1"/>
<path d="M197.588 137.814L198.044 138.625L198.058 138.64L201.619 144.929L202.169 145.897C202.169 145.897 201.09 146.332 199.392 147.05C197.846 147.702 195.794 148.559 193.571 149.521C192.954 149.796 192.334 150.066 191.713 150.329C187.387 152.246 182.835 154.292 180.555 155.601C175.582 158.439 171.443 159.43 168.922 159.378C166.414 159.312 160.913 144.48 160.054 140.922C159.183 137.38 155.965 130.852 153.659 124.636C152.684 121.995 152.966 119.665 153.801 117.814C154.913 115.306 157.008 113.685 158.301 113.426C158.811 113.309 159.334 113.258 159.857 113.274C160.663 113.277 161.424 113.432 162.138 113.708C169.138 116.432 171.305 130.918 171.715 133.386C171.865 134.242 172.286 135.677 172.828 137.245C174.028 140.911 175.776 145.336 175.776 145.336C179.291 143.823 180.742 143.391 182.081 143.007C183.053 142.723 183.97 142.492 185.555 141.883C186.033 141.706 186.545 141.5 187.094 141.312C188.436 140.826 189.784 140.357 191.137 139.902C194.483 138.785 197.588 137.814 197.588 137.814Z" fill="#7695FF"/>
<path d="M141.655 110.084V111.994C141.596 112.014 141.557 112.014 141.498 112.014H141.043C140.155 111.994 139.248 111.738 138.342 111.226H138.323C138.157 111.141 137.999 111.042 137.849 110.931C137.648 110.793 137.451 110.648 137.259 110.498C136.668 110.046 136.096 109.453 135.524 108.746C135.543 107.978 135.524 107.328 135.524 106.875C135.761 107.152 135.979 107.428 136.213 107.663C136.864 108.333 137.496 108.866 138.145 109.239C138.264 109.318 138.402 109.397 138.52 109.454C138.935 109.671 139.329 109.829 139.741 109.927C139.82 109.966 139.899 109.966 139.977 109.987C140.079 110.006 140.155 110.006 140.234 110.027C140.373 110.046 140.53 110.066 140.669 110.085C140.806 110.105 140.925 110.124 141.043 110.124C141.12 110.124 141.221 110.124 141.299 110.105C141.319 110.124 141.339 110.124 141.358 110.105H141.377C141.456 110.104 141.557 110.104 141.655 110.084Z" fill="#A5735B"/>
<path d="M141.655 123.747V177.046L132.45 176.653L124.882 176.318L125.651 167.006L126.498 156.589C127.72 157.102 129.1 157.712 130.421 158.303C130.065 154.188 129.91 150.408 130.145 147.316C131.071 135.817 132.509 126.445 133.632 120.322V120.302C133.516 119.121 133.674 117.802 133.949 116.581C133.987 116.323 134.047 116.07 134.107 115.833C134.186 115.557 134.243 115.302 134.322 115.046L134.501 114.456C134.54 114.318 134.6 114.18 134.638 114.061C134.784 113.58 134.955 113.106 135.151 112.644H135.19C135.032 113.353 134.479 115.716 133.791 119.436V119.456C134.243 121.425 135.683 122.528 137.458 123.139C137.477 123.139 137.516 123.157 137.537 123.157C138.757 123.572 140.138 123.728 141.456 123.748C141.515 123.747 141.596 123.768 141.655 123.747Z" fill="#0E538C"/>
<path d="M135.189 112.643C135.032 113.353 134.479 115.715 133.791 119.435V119.456C133.732 119.732 133.692 120.007 133.633 120.302V120.322C132.509 126.445 131.072 135.817 130.146 147.316C129.91 150.407 130.065 154.188 130.422 158.303C129.12 157.717 127.812 157.146 126.498 156.589C125.967 156.352 125.453 156.156 124.982 155.961C123.403 155.33 122.575 154.876 121.67 154.423C121.612 154.266 121.571 154.09 121.512 153.932C121.236 153.066 120.98 152.238 120.725 151.492C119.758 148.498 119.029 146.587 119.029 146.587C119.029 146.587 118.912 145.585 118.813 143.911C119.483 142.394 120.153 141.055 120.627 140.329C122.005 138.24 130.282 126.152 127.01 119.398C126.671 118.694 126.203 118.06 125.632 117.527C125.26 117.16 124.842 116.843 124.389 116.582C123.268 115.893 118.848 116.673 116.325 117.756C120.898 113.403 128.668 112.586 130.087 112.685V112.644H135.189V112.643ZM132.937 181.651H120.252C120.634 180.408 121.01 179.133 121.36 177.853C122.49 173.799 123.425 169.682 123.739 166.337C124.386 166.571 125.02 166.788 125.653 167.005C127.939 167.81 130.027 168.581 131.6 169.152C131.741 170.444 131.896 171.74 132.047 173.025C132.185 174.245 132.325 175.458 132.45 176.654C132.637 178.362 132.804 180.036 132.937 181.651Z" fill="#7695FF"/>
<path d="M141.655 111.994V123.748C141.596 123.768 141.516 123.748 141.456 123.748C140.137 123.729 138.756 123.572 137.536 123.157C137.516 123.157 137.477 123.139 137.458 123.139C135.683 122.528 134.242 121.425 133.79 119.457V119.436C134.479 115.716 135.032 113.354 135.189 112.644H135.465V112.27C135.465 112.034 135.486 111.817 135.486 111.6C135.505 110.891 135.505 110.222 135.524 109.572V108.746C136.095 109.454 136.668 110.046 137.259 110.498C137.458 110.676 137.654 110.813 137.849 110.931C138.008 111.049 138.165 111.146 138.322 111.226H138.341C139.307 111.778 140.256 112.014 141.2 112.014C141.358 112.014 141.515 112.014 141.655 111.994Z" fill="#F4C7B1"/>
<path d="M147.094 164.111C146.956 164.977 146.385 165.627 146.385 165.627C146.385 165.627 146.719 166.768 145.952 167.516C145.952 167.516 146.207 168.599 145.202 169.308C145.202 169.308 145.439 170.372 144.65 170.825C144.65 170.825 142.934 171.042 142.306 170.924C139.758 170.345 137.215 169.741 134.679 169.112L136.353 162.082V162.063C137.083 161.571 137.772 161.117 137.989 160.98C138.522 160.664 140.336 160.763 142.205 161.353C144.021 161.925 146.051 162.732 146.621 163.047C146.918 163.205 147.211 163.265 147.094 164.111Z" fill="#EEA886"/>
<path d="M136.57 161.157L136.353 162.063V162.082L134.678 169.112L134.422 170.196C134.422 170.196 133.337 169.782 131.601 169.151C130.025 168.58 127.937 167.813 125.651 167.006C125.02 166.789 124.388 166.572 123.74 166.337C119.266 164.8 114.535 163.205 111.972 162.615C106.395 161.315 102.688 159.228 100.875 157.476C99.0829 155.724 105.153 141.115 106.948 137.925C108.721 134.735 110.808 127.765 113.352 121.643C114.436 119.042 116.228 117.527 118.102 116.74C120.626 115.657 123.267 115.892 124.387 116.582C124.841 116.842 125.259 117.159 125.631 117.527C126.202 118.059 126.67 118.694 127.009 119.397C130.281 126.151 122.004 138.239 120.626 140.328C120.152 141.055 119.482 142.394 118.812 143.91C117.196 147.414 115.461 151.844 115.461 151.844C119.067 153.125 120.427 153.793 121.668 154.423C122.574 154.876 123.402 155.329 124.981 155.96C125.452 156.156 125.966 156.352 126.497 156.588C127.719 157.102 129.099 157.711 130.421 158.303C132.478 159.238 134.528 160.189 136.57 161.157Z" fill="#7695FF"/>
<path d="M155.14 94.4972L154.971 86.7822C154.946 85.4949 154.971 84.2198 154.787 83.026C154.605 81.815 154.276 80.6296 153.766 79.5321C152.765 77.3321 151.084 75.4753 148.973 74.2976C146.865 73.1016 144.412 72.5581 141.966 72.5681C139.521 72.5581 137.063 73.1016 134.963 74.2976C132.848 75.4753 131.168 77.3321 130.163 79.5321C129.656 80.629 129.328 81.815 129.145 83.026C128.962 84.2325 128.98 85.4783 128.963 86.7822L128.79 94.4972H127.823L127.657 86.7822C127.641 85.517 127.583 84.1849 127.754 82.8395C127.922 81.5068 128.25 80.1774 128.791 78.9272C129.839 76.4051 131.797 74.2672 134.167 72.9151C136.54 71.542 139.279 70.9233 141.967 70.9094C144.656 70.9233 147.393 71.542 149.765 72.9151C152.136 74.2672 154.092 76.4051 155.138 78.9272C155.679 80.1774 156.01 81.5068 156.182 82.8395C156.35 84.1954 156.294 85.5043 156.279 86.7822L156.111 94.4972H155.14Z" fill="#0E538C"/>
<path d="M128.596 98.6863C126.858 98.6863 126.42 97.4416 126.42 95.9041V90.916C126.42 89.3801 126.858 88.1327 128.596 88.1327H129.012V98.6863H128.596Z" fill="#0B4870"/>
<path d="M129.012 88.1332H129.91V98.6868H129.012V88.1332Z" fill="#7695FF"/>
<path d="M155.601 98.6863C157.341 98.6863 157.782 97.4416 157.782 95.9041V90.916C157.782 89.3801 157.341 88.1327 155.601 88.1327H155.186V98.6863H155.601Z" fill="#0B4870"/>
<path d="M154.287 88.1332H155.186V98.6868H154.287V88.1332Z" fill="#7695FF"/>
<path d="M142.61 108.303V107.335C146.619 107.335 154.254 101.644 154.254 98.6863H155.22C155.22 102.431 146.775 108.303 142.61 108.303Z" fill="#CCE9FF"/>
<path d="M143.255 109.171H141.964C140.893 109.171 140.026 108.568 140.026 107.819C140.026 107.073 140.893 106.47 141.964 106.47H143.255C144.324 106.47 145.191 107.074 145.191 107.819C145.191 108.568 144.324 109.171 143.255 109.171Z" fill="#0B4870"/>
<path d="M108.042 56.1447V63.7894L107.996 74.167L107.935 86.7014L107.896 95.9484L98.6748 86.666L95.861 86.6561L58.5475 86.4817C52.2435 85.2531 47.4863 79.7109 47.4863 73.0657V56.1447C47.4863 49.1253 52.7992 43.328 59.6234 42.5648L97.025 42.7369C103.304 43.975 108.042 49.5067 108.042 56.1447Z" fill="#7695FF"/>
<path opacity="0.8" d="M96.4107 56.5116C96.411 56.7752 96.3592 57.0363 96.2584 57.2799C96.1576 57.5235 96.0098 57.7449 95.8234 57.9315C95.637 58.1181 95.4156 58.2661 95.1719 58.3672C94.9282 58.4683 94.6669 58.5204 94.403 58.5206H60.008C59.7439 58.5206 59.4825 58.4686 59.2385 58.3677C58.9946 58.2667 58.773 58.1187 58.5863 57.9321C58.3997 57.7456 58.2517 57.5241 58.1507 57.2803C58.0498 57.0366 57.9979 56.7754 57.998 56.5116C57.998 56.248 58.05 55.9869 58.1511 55.7433C58.2521 55.4997 58.4001 55.2784 58.5868 55.092C58.7734 54.9056 58.995 54.7578 59.2388 54.6569C59.4827 54.5561 59.744 54.5042 60.008 54.5043H94.403C95.511 54.5043 96.4107 55.4025 96.4107 56.5116ZM96.4107 63.9875C96.4104 64.5197 96.199 65.0301 95.8226 65.4068C95.4463 65.7835 94.9358 65.9958 94.403 65.9971H60.008C59.4749 65.9961 58.964 65.784 58.5873 65.4073C58.2105 65.0306 57.9986 64.52 57.998 63.9875C57.998 63.7238 58.0499 63.4626 58.1509 63.2189C58.2518 62.9752 58.3999 62.7537 58.5865 62.5672C58.7731 62.3806 58.9947 62.2326 59.2386 62.1316C59.4825 62.0306 59.7439 61.9786 60.008 61.9785H94.403C94.6669 61.9788 94.9282 62.0309 95.1719 62.132C95.4156 62.233 95.637 62.3811 95.8234 62.5676C96.0098 62.7542 96.1576 62.9756 96.2584 63.2192C96.3592 63.4629 96.411 63.7239 96.4107 63.9875ZM85.903 71.4629C85.903 72.5643 85 73.4664 83.8898 73.4664H60.0057C59.4742 73.4658 58.9647 73.2544 58.5891 72.8788C58.2135 72.5031 58.0025 71.9939 58.0025 71.4629C58.0025 70.9078 58.2213 70.4086 58.5869 70.0439C58.7724 69.8562 58.9933 69.7071 59.2369 69.6053C59.4804 69.5035 59.7417 69.4509 60.0057 69.4506H83.8898C84.4237 69.4512 84.9356 69.6634 85.3131 70.0407C85.6906 70.418 85.9027 70.9295 85.903 71.4629Z" fill="#CCE9FF"/>
</g>
<defs>
<clipPath id="clip0_937_320">
<rect width="277" height="233" fill="white"/>
</clipPath>
</defs>
</svg>
