<svg width="216" height="75" viewBox="0 0 216 75" fill="none" xmlns="http://www.w3.org/2000/svg">
<path d="M41.1875 35.0938V37.4375C41.1875 40.875 40.7292 43.9688 39.8125 46.7188C38.8958 49.4479 37.5938 51.7708 35.9062 53.6875C34.2188 55.6042 32.2083 57.0729 29.875 58.0938C27.5417 59.1146 24.9479 59.625 22.0938 59.625C19.2812 59.625 16.6979 59.1146 14.3438 58.0938C12.0104 57.0729 9.98958 55.6042 8.28125 53.6875C6.57292 51.7708 5.25 49.4479 4.3125 46.7188C3.375 43.9688 2.90625 40.875 2.90625 37.4375V35.0938C2.90625 31.6354 3.375 28.5417 4.3125 25.8125C5.25 23.0833 6.5625 20.7604 8.25 18.8438C9.9375 16.9062 11.9479 15.4271 14.2812 14.4062C16.6354 13.3854 19.2188 12.875 22.0312 12.875C24.8854 12.875 27.4792 13.3854 29.8125 14.4062C32.1458 15.4271 34.1562 16.9062 35.8438 18.8438C37.5521 20.7604 38.8646 23.0833 39.7812 25.8125C40.7188 28.5417 41.1875 31.6354 41.1875 35.0938ZM32.5 37.4375V35.0312C32.5 32.5521 32.2708 30.375 31.8125 28.5C31.3542 26.6042 30.6771 25.0104 29.7812 23.7188C28.8854 22.4271 27.7812 21.4583 26.4688 20.8125C25.1562 20.1458 23.6771 19.8125 22.0312 19.8125C20.3646 19.8125 18.8854 20.1458 17.5938 20.8125C16.3229 21.4583 15.2396 22.4271 14.3438 23.7188C13.4479 25.0104 12.7604 26.6042 12.2812 28.5C11.8229 30.375 11.5938 32.5521 11.5938 35.0312V37.4375C11.5938 39.8958 11.8229 42.0729 12.2812 43.9688C12.7604 45.8646 13.4479 47.4688 14.3438 48.7812C15.2604 50.0729 16.3646 51.0521 17.6562 51.7188C18.9479 52.3854 20.4271 52.7188 22.0938 52.7188C23.7604 52.7188 25.2396 52.3854 26.5312 51.7188C27.8229 51.0521 28.9062 50.0729 29.7812 48.7812C30.6771 47.4688 31.3542 45.8646 31.8125 43.9688C32.2708 42.0729 32.5 39.8958 32.5 37.4375ZM48.4688 13.5H65C68.4583 13.5 71.4271 14.0208 73.9062 15.0625C76.3854 16.1042 78.2917 17.6458 79.625 19.6875C80.9583 21.7292 81.625 24.2396 81.625 27.2188C81.625 29.5729 81.2083 31.6146 80.375 33.3438C79.5417 35.0729 78.3646 36.5208 76.8438 37.6875C75.3438 38.8542 73.5729 39.7708 71.5312 40.4375L68.8438 41.8125H54.25L54.1875 35.0312H65.0938C66.8646 35.0312 68.3333 34.7188 69.5 34.0938C70.6667 33.4688 71.5417 32.6042 72.125 31.5C72.7292 30.3958 73.0312 29.1354 73.0312 27.7188C73.0312 26.1979 72.7396 24.8854 72.1562 23.7812C71.5729 22.6562 70.6875 21.7917 69.5 21.1875C68.3125 20.5833 66.8125 20.2812 65 20.2812H57.0625V59H48.4688V13.5ZM74.1562 59L63.625 38.625L72.7188 38.5938L83.375 58.5625V59H74.1562ZM106.688 13.5V59H98.125V13.5H106.688ZM120.812 13.5V20.2812H84.1562V13.5H120.812ZM118.812 54.9688C118.812 53.7188 119.24 52.6667 120.094 51.8125C120.948 50.9583 122.104 50.5312 123.562 50.5312C125.021 50.5312 126.177 50.9583 127.031 51.8125C127.885 52.6667 128.312 53.7188 128.312 54.9688C128.312 56.1979 127.885 57.2396 127.031 58.0938C126.177 58.9271 125.021 59.3438 123.562 59.3438C122.104 59.3438 120.948 58.9271 120.094 58.0938C119.24 57.2396 118.812 56.1979 118.812 54.9688ZM144.906 10.9688V59H136.656V10.9688H144.906ZM166.094 25.1875L151.375 41.7188L143.406 49.8125L140.781 43.4062L146.938 35.6562L156.125 25.1875H166.094ZM157.656 59L147.188 43.25L152.688 37.9062L167.219 59H157.656ZM191.344 25.1875H198.844V57.9688C198.844 61.0312 198.177 63.625 196.844 65.75C195.531 67.8958 193.688 69.5208 191.312 70.625C188.938 71.75 186.177 72.3125 183.031 72.3125C181.677 72.3125 180.208 72.125 178.625 71.75C177.062 71.375 175.552 70.7812 174.094 69.9688C172.656 69.1771 171.458 68.1458 170.5 66.875L174.219 62C175.344 63.3125 176.615 64.3021 178.031 64.9688C179.448 65.6562 180.979 66 182.625 66C184.292 66 185.708 65.6875 186.875 65.0625C188.062 64.4583 188.969 63.5625 189.594 62.375C190.24 61.2083 190.562 59.7708 190.562 58.0625V32.9062L191.344 25.1875ZM168.5 42.5V41.8438C168.5 39.2604 168.812 36.9167 169.438 34.8125C170.062 32.6875 170.958 30.8646 172.125 29.3438C173.312 27.8229 174.74 26.6458 176.406 25.8125C178.094 24.9792 179.99 24.5625 182.094 24.5625C184.323 24.5625 186.198 24.9688 187.719 25.7812C189.26 26.5938 190.531 27.75 191.531 29.25C192.552 30.75 193.344 32.5312 193.906 34.5938C194.49 36.6354 194.938 38.8854 195.25 41.3438V43.125C194.958 45.5208 194.49 47.7188 193.844 49.7188C193.219 51.7188 192.385 53.4688 191.344 54.9688C190.302 56.4479 189.01 57.5938 187.469 58.4062C185.927 59.2188 184.115 59.625 182.031 59.625C179.948 59.625 178.073 59.1979 176.406 58.3438C174.74 57.4896 173.312 56.2917 172.125 54.75C170.958 53.2083 170.062 51.3958 169.438 49.3125C168.812 47.2292 168.5 44.9583 168.5 42.5ZM176.75 41.8438V42.5C176.75 43.9583 176.896 45.3229 177.188 46.5938C177.479 47.8646 177.927 48.9896 178.531 49.9688C179.135 50.9271 179.896 51.6771 180.812 52.2188C181.729 52.7604 182.823 53.0312 184.094 53.0312C185.802 53.0312 187.198 52.6771 188.281 51.9688C189.385 51.2396 190.219 50.25 190.781 49C191.365 47.7292 191.74 46.3021 191.906 44.7188V39.8125C191.802 38.5625 191.573 37.4062 191.219 36.3438C190.885 35.2812 190.417 34.3646 189.812 33.5938C189.208 32.8229 188.438 32.2188 187.5 31.7812C186.562 31.3438 185.448 31.125 184.156 31.125C182.906 31.125 181.812 31.4062 180.875 31.9688C179.938 32.5104 179.167 33.2708 178.562 34.25C177.958 35.2292 177.5 36.3646 177.188 37.6562C176.896 38.9479 176.75 40.3438 176.75 41.8438Z" fill="white"/>
<g clip-path="url(#clip0_491_55)">
<path d="M183.345 24.8138C183.345 24.8138 185.34 29.5947 189.897 31.6398C194.454 33.685 199.349 31.9964 199.349 31.9964C199.349 31.9964 201.371 29.2072 202.099 23.152C202.483 19.9591 190.18 14.0953 188.107 16.1079C184.585 19.5227 183.345 24.8138 183.345 24.8138Z" fill="black"/>
<path d="M199.349 31.9964L197.863 32.382C197.863 32.382 198.65 30.6526 198.84 28.7949C198.911 28.1004 198.308 27.5259 197.617 27.6241L192.272 28.3681C191.979 28.4086 191.68 28.367 191.41 28.248C191.139 28.1289 190.906 27.937 190.738 27.6937C189.287 25.5902 185.507 20.0928 185.357 19.7925C185.357 19.7925 185.532 19.4025 185.853 18.9493L202.01 26.2251L199.349 31.9964Z" fill="#212121"/>
<path d="M181.96 13.3985L191.452 26.9286C191.659 27.2244 192.013 27.383 192.374 27.3422L208.787 25.4381C209.244 25.3855 209.478 24.8632 209.214 24.487L199.722 10.9569C199.515 10.6611 199.161 10.5025 198.8 10.5433L182.382 12.4453C181.928 12.499 181.693 13.0213 181.96 13.3985Z" fill="black"/>
<path d="M192.156 26.5646C192.158 26.5657 192.162 26.57 192.164 26.571C192.201 26.5874 192.241 26.5947 192.282 26.5885L209.324 24.8595C209.324 24.8595 209.334 25.0147 209.166 25.2108C208.997 25.4059 208.859 25.4318 208.787 25.4404L192.369 27.3424C192.189 27.3633 192.01 27.335 191.851 27.2634L191.841 27.2593L192.154 26.5636L192.156 26.5646Z" fill="#9E9E9E"/>
<path d="M192.164 26.5687C192.162 26.5677 192.156 26.5679 192.154 26.5669C192.118 26.5505 192.085 26.525 192.063 26.4902L182.026 12.609C182.026 12.609 181.904 12.7048 181.869 12.9603C181.836 13.2168 181.908 13.3369 181.95 13.3967L191.442 26.9268C191.545 27.0747 191.686 27.1897 191.845 27.2613L191.854 27.2654L192.167 26.5698L192.164 26.5687Z" fill="#616161"/>
<path d="M200.041 26.4531L200.255 25.7794C200.255 25.7794 196.029 20.2302 195.621 19.6631C195.212 19.0961 194.792 18.4803 194.663 18.0795C194.432 17.373 194.901 17.2057 194.901 17.2057C194.901 17.2057 195 17.9513 195.906 18.2345C196.425 18.3963 197.245 18.2848 197.436 18.1459C197.627 18.007 201.71 25.5171 201.71 25.5171L201.413 26.2961L200.041 26.4531Z" fill="#424242"/>
<path d="M194.899 17.2079C195.122 18.3109 196.298 18.4005 196.298 18.4005C196.298 18.4005 198.788 21.3456 199.01 21.1685C199.232 20.9913 197.125 18.3524 197.125 18.3524C197.125 18.3524 197.53 17.8599 197.622 17.6133C197.622 17.6133 201.161 22.9887 202.544 24.8835C203.268 25.8771 203.24 26.4948 202.906 27.2328C202.761 27.5567 202.284 28.6061 201.998 29.2313C201.946 29.3476 201.947 29.4796 202.003 29.5925C202.089 29.7633 202.135 29.9509 202.139 30.1417C202.143 30.3326 202.104 30.5219 202.026 30.696C201.869 31.045 201.576 31.2889 201.237 31.3971C201.055 31.4551 200.97 31.7182 200.886 31.8751C200.724 32.175 200.683 32.3267 200.682 32.6714C200.681 33.0082 200.669 33.3478 200.616 33.6801C200.575 33.9359 200.51 34.1892 200.447 34.4403C200.019 36.1199 199.395 37.8402 199.471 39.595C199.472 39.6278 199.467 39.6607 199.456 39.6915C199.445 39.7224 199.428 39.7508 199.405 39.7749C199.383 39.7991 199.356 39.8185 199.326 39.8322C199.296 39.8459 199.264 39.8535 199.231 39.8546C199.165 39.8576 199.1 39.8342 199.05 39.7895C199.001 39.7448 198.972 39.6824 198.968 39.616C198.929 38.7023 199.101 37.7988 199.305 36.9174C198.986 37.6537 198.659 38.3947 198.325 39.2043C198.26 39.3614 198.132 39.679 197.959 39.684C197.312 39.7032 197.669 38.9095 197.669 38.9095C197.669 38.9095 197.341 39.6203 196.618 39.2958C195.895 38.9713 196.163 38.2339 196.163 38.2339C196.163 38.2339 195.817 38.8649 195.46 38.6662C195.315 38.5849 195.158 38.4046 195.579 37.654C196 36.9057 197.431 34.1882 197.903 33.337C198.558 32.1593 199.286 31.6119 199.562 31.2154C199.666 31.0645 199.745 30.8944 199.663 30.7289C199.579 30.5611 199.533 30.3771 199.528 30.1896C199.522 30.0022 199.558 29.8159 199.632 29.6436C199.706 29.4712 199.816 29.3171 199.956 29.1919C200.095 29.0666 200.261 28.9732 200.44 28.9183C200.504 28.8988 200.562 28.8648 200.61 28.8189C200.658 28.773 200.695 28.7164 200.718 28.6537C200.939 28.0436 201.276 27.1645 201.327 26.9486C201.558 25.9811 201.189 25.6239 200.857 25.1566C200.525 24.6871 195.316 18.7817 195.049 18.3576C194.556 17.5692 194.899 17.2079 194.899 17.2079Z" fill="#E2A610"/>
<path d="M194.9 17.2079C195.107 18.2568 196.436 18.4261 196.436 18.4261C196.436 18.4261 198.832 21.0932 198.741 20.7647C198.652 20.4371 197.127 18.3524 197.127 18.3524C197.127 18.3524 197.532 17.8599 197.623 17.6133C197.623 17.6133 201.357 22.7881 202.683 25.0657C203.024 25.6546 203.383 26.5281 202.609 26.8906C202.252 27.0566 201.773 26.9099 201.58 26.5655C201.461 26.3589 201.408 26.1105 201.32 25.8926C201.212 25.6196 201.033 25.3966 200.865 25.1597C200.533 24.6902 195.324 18.7848 195.057 18.3607C194.557 17.5692 194.9 17.2079 194.9 17.2079Z" fill="#FFCA28"/>
<path d="M199.938 32.3813C200.239 32.5164 200.453 32.5825 200.657 32.622C200.694 32.6293 200.732 32.6233 200.764 32.6051C200.796 32.5869 200.821 32.5578 200.834 32.5229L201.165 31.625C201.198 31.533 201.142 31.4335 201.044 31.4197C200.812 31.3869 200.375 31.262 199.767 30.8196C199.694 30.7645 199.586 30.7847 199.539 30.865L199.059 31.6908C199.02 31.7584 199.036 31.845 199.097 31.8917C199.41 32.1281 199.657 32.2554 199.938 32.3813Z" fill="#9E740B"/>
<path d="M183.344 24.8138C183.344 24.8138 183.886 22.5251 185.054 20.3557C185.252 19.9894 185.631 19.7676 185.216 21.1737C184.978 21.9792 184.181 24.3535 183.924 25.9455C183.531 25.2648 183.344 24.8138 183.344 24.8138ZM196.538 15.7652C196.348 15.743 196.138 15.8021 196.018 15.9537C195.858 16.1562 195.9 16.4488 195.975 16.6963C196.122 17.1814 196.402 17.6744 196.872 17.8662C197.027 17.9302 197.214 17.9537 197.362 17.8748C197.466 17.8201 197.538 17.7209 197.592 17.6167C197.985 16.8528 197.366 15.8626 196.538 15.7652Z" fill="#616161"/>
</g>
<defs>
<clipPath id="clip0_491_55">
<rect width="32" height="32" fill="white" transform="matrix(-0.912336 -0.409442 -0.409442 0.912336 215.297 14.1022)"/>
</clipPath>
</defs>
</svg>
