<svg width="102" height="59" viewBox="0 0 102 59" fill="none" xmlns="http://www.w3.org/2000/svg">
<path opacity="0.3" d="M55.5859 25.0893C55.5859 25.0893 58.8868 18.1132 64.8103 18.5995C64.8103 18.5995 65.9588 18.7117 66.0589 20.0508C66.159 21.3899 63.9334 20.8975 62.4497 21.0929C60.9654 21.2878 57.297 22.7058 55.5859 25.0893Z" fill="#2D6BD4"/>
<path opacity="0.3" d="M55.7544 23.6824C55.7544 23.6824 56.4799 17.4507 61.1439 16.2328C61.1439 16.2328 62.0529 16.0101 62.4758 17.009C62.8984 18.0081 61.0664 18.2287 59.98 18.7767C58.8935 19.3252 56.4493 21.3966 55.7544 23.6824ZM41.8624 33.484C41.8624 33.484 44.1848 38.9551 43.1624 39.3234C42.1401 39.6916 41.0047 33.0407 41.0047 33.0407C41.0047 33.0407 35.242 31.6454 33.2482 32.2997C33.2482 32.2997 37.7105 37.154 36.6285 37.254C35.5466 37.3535 30.6744 32.52 30.6744 32.52C30.6744 32.52 25.1237 32.6977 24.9862 36.1094C24.8488 39.5211 26.588 40.8248 27.422 40.851C28.2559 40.8767 33.3045 39.6841 33.3226 40.3843C33.3408 41.0847 30.1601 42.919 28.1187 42.7388C28.1187 42.7388 31.4033 47.5733 34.1057 46.6908C36.8081 45.8081 37.2742 43.873 38.9543 43.3586C40.6343 42.8444 41.9882 43.0363 41.2377 43.6961C40.4874 44.3559 37.5239 44.6837 36.4095 46.189C35.2953 47.6943 34.3417 48.6812 37.0259 48.6479C39.71 48.6146 44.2387 47.2556 44.7108 45.0374C45.2469 45.2137 46.2552 46.3992 46.977 47.3207C47.0863 47.4805 47.2514 47.6986 47.4895 47.9914C47.5895 48.1256 47.6698 48.2356 47.7258 48.3125C49.1437 50.4202 49.5524 54.5133 49.5524 54.5133L50.1338 54.5415C50.4534 50.2535 47.5887 47.4264 47.5887 47.4264C45.6251 45.1159 45.1827 42.8191 45.1827 42.8191C45.1827 42.8191 49.4874 38.9035 46.3337 35.5892C46.3337 35.5892 43.9695 33.6495 41.8624 33.484ZM66.1619 53.8413C67.1317 52.4258 64.9686 50.5998 64.9686 50.5998C64.9686 50.5998 61.5708 51.0033 61.1686 50.6209C60.7663 50.2388 64.0067 49.6975 64.0067 49.6975C63.407 48.804 60.6864 47.5434 60.6864 47.5434C60.6864 47.5434 58.2347 49.8587 57.9372 49.3874C57.6396 48.9161 60.2108 47.4505 60.2108 47.4505C59.3197 46.851 57.7927 46.8836 57.7927 46.8836C55.5377 47.2193 56.0804 50.1544 56.0804 50.1544C56.0804 50.1544 55.2137 50.9379 53.7356 51.2462C53.7356 51.2462 53.4439 51.28 53.0188 51.4243L53.1976 51.6424C53.2696 51.6112 53.3408 51.5837 53.4121 51.5601C53.4124 51.5596 53.4128 51.5596 53.4133 51.5596C53.4772 51.5411 53.5412 51.5229 53.6053 51.5052H53.6062C53.7886 51.4631 53.9198 51.4276 54.0114 51.398L54.0121 51.3977C54.5772 51.2556 55.3358 51.0977 55.6027 51.196C55.6027 51.196 55.6164 51.1438 55.6623 51.0656L55.6027 51.196C55.1252 52.2373 56.5254 54.2155 57.5871 55.0773C58.6492 55.9393 58.5647 55.241 58.5717 54.2834C58.5788 53.3257 57.494 52.2575 57.3925 51.7547C57.2912 51.2522 57.8896 51.6032 58.4057 52.3406C58.922 53.0786 58.527 54.0041 59.3407 55.2132C60.1545 56.4224 62.9189 55.517 62.9189 55.517C62.0497 54.9441 61.3304 53.2012 61.5481 52.9249C61.7658 52.6491 63.4235 54.7247 63.7641 54.9779C64.1049 55.2309 65.1918 55.2562 66.1619 53.8413Z" fill="#2D6BD4"/>
<path d="M23.6218 19.6497L25.0394 42.3106L24.3391 42.3563C24.3313 42.3567 23.8069 40.2034 23.8069 40.2034L22.5254 19.7209L23.6218 19.6497Z" fill="#2D6BD4"/>
<path d="M24.4902 42.3462L24.8254 43.7924L24.9017 42.3195L24.4902 42.3462Z" fill="#0B0755"/>
<path d="M24.0503 39.9616C24.0444 39.8678 24.0567 39.7738 24.0865 39.6848C24.1163 39.5959 24.163 39.5138 24.2239 39.4433C24.2848 39.3728 24.3588 39.3152 24.4415 39.2738C24.5243 39.2325 24.6142 39.2081 24.7062 39.2022C24.7982 39.1963 24.8903 39.2088 24.9775 39.2392C25.0647 39.2696 25.1451 39.3172 25.2143 39.3792C25.2834 39.4413 25.3399 39.5167 25.3805 39.601C25.4211 39.6853 25.445 39.777 25.4508 39.8707C25.4566 39.9645 25.4443 40.0585 25.4145 40.1473C25.3847 40.2362 25.3381 40.3183 25.2772 40.3888C25.2163 40.4593 25.1424 40.5168 25.0597 40.5582C24.977 40.5996 24.8871 40.624 24.7952 40.6299C24.7032 40.6359 24.611 40.6234 24.5238 40.5931C24.4366 40.5628 24.3561 40.5152 24.2869 40.4532C24.2177 40.3911 24.1612 40.3157 24.1206 40.2314C24.08 40.1471 24.0561 40.0554 24.0503 39.9616Z" fill="#FFD850"/>
<path d="M24.1465 19.5104L34.9324 39.3782L35.5467 39.0318C35.5533 39.0281 34.8572 36.9262 34.8572 36.9262L25.1079 18.9682L24.1465 19.5104Z" fill="#2D6BD4"/>
<path d="M35.4131 39.1073L35.8953 40.5093L35.0527 39.3107L35.4131 39.1073Z" fill="#0B0755"/>
<path d="M32.7497 32.2085L32.4023 32.4045L33.2595 33.9833L33.6069 33.7873L32.7497 32.2085Z" fill="#FFD850"/>
<path d="M23.093 15.2798L22.3008 15.511L23.0827 18.292L23.8749 18.0606L23.093 15.2798Z" fill="#0B0755"/>
<path d="M25.2211 18.7813L25.0529 20.3849L25.8225 23.1209L24.0621 23.6351L23.2927 20.8993L22.3166 19.6302C22.0869 18.8134 22.5505 17.9608 23.3523 17.7266L23.3538 17.7262C24.1552 17.492 24.9917 17.9645 25.2211 18.7813Z" fill="#FF8550"/>
<path d="M23.3616 19.2776C23.3467 19.2245 23.3422 19.169 23.3484 19.1142C23.3545 19.0594 23.3712 19.0064 23.3975 18.9581C23.4237 18.9099 23.459 18.8674 23.5014 18.8331C23.5437 18.7988 23.5923 18.7733 23.6443 18.7581C23.6963 18.7429 23.7508 18.7383 23.8045 18.7446C23.8583 18.7509 23.9103 18.7679 23.9576 18.7946C24.0049 18.8214 24.0466 18.8574 24.0803 18.9006C24.1139 18.9438 24.1389 18.9933 24.1538 19.0464C24.1687 19.0994 24.1732 19.1549 24.167 19.2097C24.1609 19.2645 24.1442 19.3176 24.118 19.3658C24.0917 19.4141 24.0564 19.4565 24.014 19.4909C23.9717 19.5252 23.9231 19.5507 23.8711 19.5659C23.8191 19.581 23.7646 19.5856 23.7109 19.5794C23.6571 19.5731 23.6051 19.5561 23.5578 19.5293C23.5105 19.5025 23.4688 19.4665 23.4351 19.4233C23.4015 19.3802 23.3765 19.3306 23.3616 19.2776Z" fill="#0B0755"/>
<g opacity="0.5">
<path d="M71.558 13.2564H71.2791V13.1519H71.4558V12.9717H71.558V13.2564ZM70.8051 13.2564H70.331V13.1522H70.8051V13.2564ZM69.8567 13.2564H69.3828V13.1522H69.8567V13.2564ZM68.9089 13.2564H68.4349V13.1522H68.9089V13.2564ZM67.9611 13.2564H67.4872V13.1522H67.9611V13.2564ZM67.0132 13.2564H66.5393V13.1522H67.0132V13.2564ZM66.0649 13.2564H65.5911V13.1522H66.0649V13.2564ZM65.117 13.2564H64.6432V13.1522H65.117V13.2564ZM64.1693 13.2564H63.6953V13.1522H64.1693V13.2564ZM63.2214 13.2564H62.7474V13.1522H63.2214V13.2564ZM62.2736 13.2564H61.9941V12.9717H62.0965V13.1517H62.2736V13.2564ZM62.0965 12.5264H61.9941V12.0814H62.0965V12.5264ZM62.0965 11.6368H61.9941V11.1916H62.0965V11.6368ZM62.0965 10.7465H61.9941V10.3014H62.0965V10.7465ZM62.0965 9.85673H61.9941V9.41166H62.0965V9.85673ZM62.0965 8.96659H61.9941V8.52152H62.0965V8.96659ZM62.0965 8.07698H61.9941V7.63174H62.0965V8.07698ZM62.0965 7.18667H61.9941V6.7416H62.0965V7.18667ZM62.0965 6.29688H61.9941V5.85181H62.0965V6.29688ZM62.0965 5.40675H61.9941V5.12238H62.2736V5.22656H62.0965V5.40675ZM70.8051 5.22673H70.331V5.12238H70.8051V5.22673ZM69.8567 5.22673H69.3828V5.12238H69.8567V5.22673ZM68.9089 5.22673H68.4349V5.12238H68.9089V5.22673ZM67.9611 5.22673H67.4872V5.12238H67.9611V5.22673ZM67.0132 5.22673H66.5393V5.12238H67.0132V5.22673ZM66.0649 5.22673H65.5911V5.12238H66.0649V5.22673ZM65.117 5.22673H64.6432V5.12238H65.117V5.22673ZM64.1693 5.22673H63.6953V5.12238H64.1693V5.22673ZM63.2214 5.22673H62.7474V5.12238H63.2214V5.22673ZM71.558 5.40675H71.4558V5.22673H71.2791V5.12238H71.558V5.40675ZM71.558 12.5264H71.4556V12.0817H71.558V12.5264ZM71.558 11.6368H71.4556V11.1918H71.558V11.6368ZM71.558 10.7467H71.4556V10.3014H71.558V10.7467ZM71.558 9.8569H71.4556V9.41166H71.558V9.8569ZM71.558 8.96677H71.4556V8.52152H71.558V8.96677ZM71.558 8.07698H71.4556V7.63191H71.558V8.07698ZM71.558 7.18667H71.4556V6.7416H71.558V7.18667ZM71.558 6.29706H71.4556V5.85199H71.558V6.29706Z" fill="#2D6BD4"/>
</g>
<g opacity="0.5">
<path d="M72.9234 17.195C72.7526 17.195 72.5799 17.1858 72.4106 17.1681L72.4223 17.0524C72.5879 17.0698 72.7562 17.0786 72.9234 17.0786V17.195ZM73.4364 17.169L73.4247 17.0533C73.5913 17.0363 73.757 17.0105 73.921 16.9761L73.9438 17.09C73.7775 17.1251 73.6065 17.1516 73.4364 17.169ZM71.9032 17.0879C71.7361 17.0524 71.5687 17.0078 71.4061 16.955L71.4405 16.8446C71.5993 16.896 71.7628 16.9399 71.926 16.9745L71.9032 17.0879ZM74.4412 16.9585L74.4068 16.8474C74.5665 16.7961 74.7235 16.7362 74.877 16.6681L74.9226 16.775C74.7658 16.8441 74.6039 16.9059 74.4412 16.9585ZM70.9251 16.7711C70.7687 16.7014 70.6142 16.6229 70.4653 16.5374L70.5211 16.436C70.6664 16.5196 70.8179 16.5969 70.9703 16.6648L70.9251 16.7711ZM75.3825 16.542L75.3266 16.4408C75.4726 16.3572 75.6142 16.266 75.7509 16.1674L75.8168 16.2622C75.6768 16.363 75.5318 16.4562 75.3825 16.542ZM70.0316 16.2567C69.8918 16.1557 69.7571 16.0476 69.628 15.9328L69.7028 15.8455C69.8289 15.9577 69.9605 16.0635 70.0969 16.1623L70.0316 16.2567ZM76.2206 15.939L76.1457 15.8513C76.272 15.7392 76.3926 15.6207 76.5071 15.4961L76.5902 15.5755C76.4732 15.703 76.3498 15.8244 76.2206 15.939ZM69.2596 15.5682C69.1428 15.4404 69.0324 15.3066 68.9289 15.1674L69.02 15.0974C69.1211 15.2335 69.229 15.3642 69.3432 15.489L69.2596 15.5682ZM76.9217 15.1756L76.8312 15.1051C76.9325 14.9691 77.027 14.828 77.1143 14.6823L77.2116 14.7426C77.123 14.8912 77.0253 15.0367 76.9217 15.1756ZM68.6399 14.7346C68.5511 14.5853 68.4697 14.4316 68.3961 14.2739L68.4992 14.2243C68.5708 14.3778 68.6512 14.5291 68.7376 14.6743L68.6399 14.7346ZM77.4566 14.2828L77.3539 14.2326C77.426 14.079 77.4905 13.9199 77.5464 13.7601L77.6536 13.7989C77.596 13.9635 77.5302 14.125 77.4566 14.2828ZM68.1996 13.7901C68.1424 13.6254 68.0936 13.4578 68.0535 13.2879L68.164 13.2606C68.2033 13.426 68.2514 13.5909 68.3068 13.7513L68.1996 13.7901ZM77.801 13.2973L77.6899 13.2699C77.7294 13.1049 77.7608 12.9357 77.7836 12.7674L77.8966 12.783C77.8734 12.9552 77.8411 13.1285 77.801 13.2973ZM67.9588 12.7732C67.9357 12.6003 67.9215 12.4262 67.916 12.2518L68.0298 12.2481C68.0352 12.4185 68.0493 12.5899 68.0717 12.7582L67.9588 12.7732ZM77.94 12.2612L77.8262 12.2573C77.832 12.0867 77.8292 11.9159 77.8178 11.7456L77.9317 11.738C77.943 11.9121 77.9458 12.0868 77.94 12.2612ZM68.0274 12.0835H67.9136C67.9136 11.9088 67.9223 11.7334 67.9397 11.5608L68.0531 11.5727C68.0361 11.741 68.0274 11.913 68.0274 12.0835ZM77.7591 11.2376C77.7308 11.0695 77.6942 10.9029 77.6495 10.7385L77.7591 10.7073C77.8052 10.8748 77.8427 11.0465 77.8714 11.2182L77.7591 11.2376ZM68.1289 11.0668L68.017 11.0431C68.0514 10.8727 68.0954 10.7022 68.147 10.5364L68.2554 10.5715C68.2051 10.7343 68.1629 10.8997 68.1289 11.0668ZM77.4898 10.2534C77.4282 10.0947 77.3588 9.93924 77.2819 9.78762L77.3829 9.73411C77.4616 9.88879 77.5332 10.0491 77.5956 10.2107L77.4898 10.2534ZM68.4321 10.0927L68.3278 10.0463C68.3958 9.88684 68.4728 9.72915 68.5567 9.57749L68.6561 9.63454C68.5736 9.78315 68.4988 9.93609 68.4321 10.0927ZM77.0283 9.34592C76.9362 9.20335 76.8373 9.06551 76.7318 8.93292L76.8201 8.85957C76.9282 8.99495 77.0294 9.13587 77.1233 9.28178L77.0283 9.34592ZM68.9244 9.20205L68.8312 9.1349C68.9298 8.99316 69.0365 8.85496 69.1491 8.72367L69.2347 8.79986C69.1248 8.92863 69.0213 9.06286 68.9244 9.20205ZM76.3954 8.55323C76.277 8.43255 76.1526 8.31806 76.0229 8.21021L76.0948 8.12039C76.2272 8.23006 76.3553 8.34859 76.476 8.4712L76.3954 8.55323ZM69.5842 8.43204L69.5063 8.34735C69.6315 8.22814 69.7626 8.11548 69.899 8.00983L69.9678 8.10214C69.8344 8.20525 69.7064 8.31536 69.5842 8.43204ZM75.618 7.90724C75.4781 7.81349 75.3336 7.72703 75.1851 7.64821L75.2376 7.54545C75.3891 7.62553 75.538 7.71447 75.6809 7.81033L75.618 7.90724ZM70.3824 7.81405L70.3234 7.71483C70.469 7.62447 70.6208 7.54066 70.7753 7.46607L70.8242 7.57096C70.673 7.64431 70.5255 7.72545 70.3824 7.81405ZM74.7281 7.43595C74.5723 7.37338 74.4134 7.31891 74.2522 7.27277L74.2828 7.16097C74.4471 7.20775 74.611 7.26391 74.7695 7.32805L74.7281 7.43595ZM71.2878 7.37482L71.2497 7.26568C71.4111 7.20733 71.5754 7.15748 71.7418 7.11632L71.7687 7.22936C71.6068 7.26905 71.445 7.31795 71.2878 7.37482ZM73.7629 7.16044C73.5978 7.13174 73.4315 7.11152 73.2645 7.09984L73.2723 6.98379C73.443 6.99566 73.6143 7.01622 73.7823 7.0458L73.7629 7.16044ZM72.2621 7.13386L72.2468 7.0187C72.4151 6.99566 72.5873 6.98078 72.7583 6.97493L72.762 7.09099C72.5953 7.09683 72.4268 7.11101 72.2621 7.13386ZM62.178 10.2201C62.007 10.2201 61.8344 10.2109 61.665 10.1932L61.6766 10.0775C61.8422 10.0948 62.0106 10.1037 62.178 10.1037V10.2201ZM62.6907 10.1941L62.6791 10.0784C62.8457 10.0613 63.0114 10.0355 63.1754 10.0011L63.1981 10.115C63.0318 10.1501 62.8609 10.1767 62.6907 10.1941ZM61.1576 10.1129C60.9904 10.0775 60.8231 10.0328 60.6605 9.98004L60.6949 9.86966C60.8539 9.92104 61.0174 9.96498 61.1804 9.99953L61.1576 10.1129ZM63.6956 9.98358L63.6614 9.87249C63.8211 9.8211 63.978 9.76125 64.1316 9.69319L64.1771 9.80002C64.0197 9.86929 63.859 9.93067 63.6956 9.98358ZM60.1795 9.79613C60.0231 9.7265 59.8688 9.64801 59.7197 9.56243L59.7757 9.46126C59.9209 9.54471 60.0723 9.62196 60.2247 9.68982L60.1795 9.79613ZM64.6369 9.56704L64.581 9.46587C64.7264 9.3826 64.8691 9.29082 65.0053 9.19248L65.0711 9.28745C64.9311 9.38809 64.7862 9.48141 64.6369 9.56704ZM59.286 9.28178C59.1462 9.18077 59.0115 9.07267 58.8823 8.9579L58.9572 8.87055C59.0833 8.98279 59.2149 9.08852 59.3513 9.18735L59.286 9.28178ZM65.4751 8.96428L65.4001 8.8764C65.5264 8.76433 65.647 8.64576 65.7615 8.52116L65.8447 8.60054C65.7277 8.72808 65.6043 8.84949 65.4751 8.96428ZM58.514 8.59345C58.3972 8.46556 58.2868 8.33174 58.1833 8.1925L58.2743 8.12251C58.3755 8.25854 58.4833 8.38923 58.5975 8.51407L58.514 8.59345ZM66.1763 8.20065L66.0856 8.13013C66.1869 7.99419 66.2814 7.85309 66.3686 7.70739L66.466 7.76763C66.3773 7.91628 66.2797 8.06174 66.1763 8.20065ZM57.8943 7.75965C57.8055 7.61037 57.7241 7.45662 57.6505 7.29899L57.7537 7.24938C57.8256 7.40343 57.9052 7.55364 57.9921 7.69941L57.8943 7.75965ZM66.711 7.30785L66.6083 7.25771C66.6804 7.1041 66.7448 6.94499 66.8008 6.78518L66.908 6.82398C66.8504 6.98855 66.7846 7.15005 66.711 7.30785ZM57.454 6.81512C57.3967 6.65045 57.348 6.48285 57.3078 6.313L57.4184 6.28572C57.4576 6.45102 57.5058 6.61597 57.5612 6.77632L57.454 6.81512ZM67.0554 6.32239L66.9445 6.29493C66.9838 6.13015 67.0152 5.96077 67.038 5.79245L67.1509 5.80805C67.1278 5.98026 67.0955 6.15354 67.0554 6.32239ZM57.2131 5.79848C57.1902 5.62546 57.1759 5.45137 57.1704 5.27687L57.2842 5.27315C57.2896 5.44359 57.3037 5.61492 57.3261 5.78324L57.2131 5.79848ZM67.1944 5.28626L67.0806 5.28236C67.0862 5.11177 67.0835 4.94099 67.0724 4.77067L67.1862 4.76305C67.1975 4.93721 67.2002 5.11183 67.1944 5.28626ZM57.2818 5.10855H57.168C57.168 4.93403 57.1767 4.75845 57.194 4.58588L57.3075 4.59775C57.2905 4.76607 57.2818 4.93811 57.2818 5.10855ZM67.0135 4.26271C66.9852 4.09456 66.9486 3.92797 66.9038 3.7636L67.0135 3.73241C67.0595 3.89985 67.0972 4.07153 67.1257 4.24339L67.0135 4.26271ZM57.3833 4.09191L57.2714 4.06817C57.306 3.89707 57.3494 3.72794 57.4013 3.56144L57.5099 3.59652C57.4595 3.75936 57.4173 3.9247 57.3833 4.09191ZM66.7442 3.27849C66.6833 3.1208 66.613 2.96364 66.5363 2.81269L66.6373 2.75918C66.7161 2.91423 66.7871 3.07331 66.85 3.23579L66.7442 3.27849ZM57.6867 3.11779L57.5822 3.07137C57.6502 2.91191 57.7271 2.75422 57.8112 2.60256L57.9105 2.65961C57.828 2.80818 57.7532 2.96112 57.6867 3.11779ZM66.2826 2.37099C66.1906 2.22842 66.0916 2.09058 65.9862 1.95799L66.0745 1.88463C66.1825 2.02005 66.2838 2.16097 66.3779 2.30685L66.2826 2.37099ZM58.1788 2.22712L58.0856 2.15997C58.1841 2.01823 58.2908 1.88003 58.4034 1.74874L58.4891 1.82493C58.3792 1.9537 58.2757 2.08793 58.1788 2.22712ZM65.6498 1.57829C65.5314 1.45761 65.407 1.34312 65.2772 1.23528L65.3492 1.14545C65.4818 1.25512 65.6096 1.37365 65.7304 1.49626L65.6498 1.57829ZM58.8385 1.45711L58.7607 1.37241C58.8859 1.2532 59.017 1.14055 59.1534 1.03489L59.2222 1.1272C59.0888 1.23031 58.9607 1.34043 58.8385 1.45711ZM64.8724 0.932306C64.7325 0.838514 64.588 0.752058 64.4395 0.673273L64.492 0.570511C64.6435 0.650595 64.7926 0.739538 64.9353 0.835391L64.8724 0.932306ZM59.637 0.839111L59.5777 0.739892C59.7234 0.649709 59.8754 0.565727 60.0297 0.491135L60.0785 0.596201C59.9279 0.669021 59.7793 0.750877 59.637 0.839111ZM63.9825 0.461192C63.8267 0.398554 63.6678 0.344031 63.5066 0.297835L63.5371 0.186213C63.7015 0.232811 63.8654 0.288976 64.0239 0.353114L63.9825 0.461192ZM60.5421 0.399889L60.5041 0.290748C60.6655 0.232395 60.8297 0.182542 60.9962 0.141387L61.0231 0.254426C60.8613 0.294114 60.6994 0.343015 60.5421 0.399889ZM63.0172 0.185505C62.8522 0.156823 62.6859 0.136599 62.5189 0.12491L62.5269 0.00885886C62.6973 0.0207297 62.8687 0.0412823 63.0367 0.0708709L63.0172 0.185505ZM61.5164 0.158928L61.5011 0.0437628C61.6708 0.0204932 61.8416 0.00588737 62.0127 0L62.0165 0.116051C61.8497 0.121898 61.6812 0.136072 61.5164 0.158928Z" fill="#2D6BD4"/>
</g>
<path d="M15.2957 57.1164L9.26953 47.5012L21.4385 39.5778L15.2957 57.1164Z" fill="#2D6BD4"/>
<path d="M14.7541 52.5453L12.0312 48.2002L17.5302 44.6198L14.7541 52.5453Z" fill="#EBF3FA"/>
<path d="M10.1714 47.1594L10.1172 47.1945L10.5575 47.8972L10.6115 47.8619L10.1714 47.1594ZM10.4889 46.9527L10.4348 46.9879L10.6937 47.4011L10.7476 47.3658L10.4889 46.9527ZM10.7556 46.7792L10.7016 46.8145L10.9605 47.2276L11.0145 47.1924L10.7556 46.7792ZM11.0088 46.6142L10.9549 46.6493L11.2138 47.0625L11.2677 47.0274L11.0088 46.6142ZM11.243 46.4615L11.189 46.4966L11.4479 46.9098L11.5019 46.8747L11.243 46.4615ZM11.5 46.2872L11.446 46.3224L11.7049 46.7354L11.7587 46.7004L11.5 46.2872ZM11.7655 46.1213L11.7115 46.1566L12.1515 46.8588L12.2055 46.8237L11.7655 46.1213ZM12.083 45.9073L12.0291 45.9424L12.288 46.3556L12.3419 46.3205L12.083 45.9073ZM12.3455 45.7365L12.2917 45.7718L12.5506 46.1849L12.6045 46.1497L12.3455 45.7365ZM12.6012 45.57L12.5473 45.6052L12.8062 46.0182L12.8604 45.983L12.6012 45.57ZM12.8363 45.4187L12.7822 45.4537L13.0411 45.8669L13.095 45.8318L12.8363 45.4187ZM13.0986 45.2539L13.0448 45.2891L13.3037 45.7023L13.3576 45.6671L13.0986 45.2539ZM13.4582 45.0119L13.4041 45.0471L13.8444 45.7491L13.8985 45.7138L13.4582 45.0119ZM13.7779 44.8111L13.7237 44.8462L13.9826 45.2594L14.0368 45.2241L13.7779 44.8111ZM14.0465 44.6343L13.9923 44.6694L14.2512 45.0826L14.3053 45.0473L14.0465 44.6343ZM14.2978 44.4725L14.2439 44.5078L14.5027 44.921L14.5567 44.8857L14.2978 44.4725ZM14.5322 44.3203L14.4783 44.3554L14.7372 44.7686L14.7911 44.7333L14.5322 44.3203ZM14.7909 44.144L14.7369 44.1793L14.9958 44.5921L15.05 44.557L14.7909 44.144ZM15.0544 43.9798L15.0005 44.0151L15.4406 44.7176L15.4947 44.6825L15.0544 43.9798ZM15.372 43.7732L15.3181 43.8083L15.5771 44.2215L15.6309 44.1864L15.372 43.7732ZM15.6344 43.5953L15.5804 43.6306L15.8393 44.0436L15.8933 44.0085L15.6344 43.5953ZM15.893 43.433L15.8389 43.4683L16.0978 43.8815L16.1517 43.8462L15.893 43.433ZM16.1248 43.2773L16.0709 43.3124L16.3298 43.7256L16.3837 43.6905L16.1248 43.2773ZM16.3877 43.1123L16.3336 43.1476L16.5925 43.5608L16.6466 43.5255L16.3877 43.1123ZM16.7215 42.8921L16.6674 42.9274L17.1074 43.6295L17.1614 43.5943L16.7215 42.8921ZM17.0372 42.6889L16.9833 42.7241L17.2422 43.1373L17.2961 43.1021L17.0372 42.6889ZM17.3043 42.5151L17.2501 42.5502L17.509 42.9633L17.563 42.9283L17.3043 42.5151ZM17.5554 42.3484L17.5013 42.3836L17.7604 42.7966L17.8145 42.7614L17.5554 42.3484ZM17.7919 42.1976L17.7378 42.2328L17.9967 42.646L18.0508 42.6108L17.7919 42.1976ZM18.0483 42.0239L17.9943 42.059L18.2532 42.4722L18.3072 42.4369L18.0483 42.0239ZM18.3144 41.8576L18.2602 41.8928L18.7003 42.595L18.7543 42.5599L18.3144 41.8576ZM18.6315 41.6506L18.5775 41.6857L18.8364 42.0989L18.8904 42.0638L18.6315 41.6506ZM18.8939 41.4733L18.8398 41.5085L19.0987 41.9217L19.1528 41.8865L18.8939 41.4733ZM19.1472 41.3085L19.0932 41.3436L19.3521 41.7568L19.4061 41.7215L19.1472 41.3085ZM19.3827 41.1606L19.3286 41.1956L19.5877 41.6088L19.6418 41.5736L19.3827 41.1606ZM19.6433 40.9839L19.5893 41.0192L19.8482 41.4323L19.9022 41.3971L19.6433 40.9839ZM20.0088 40.7539L19.9547 40.7892L20.3947 41.4913L20.4487 41.4563L20.0088 40.7539Z" fill="#060633"/>
<path d="M77.5312 47.9936C77.5312 47.9936 77.6028 44.4109 81.1176 43.9725C84.6325 43.5338 91.3391 43.7899 91.3391 43.7899V45.8545C91.3391 45.8545 83.7261 45.7845 81.1897 45.8545C80.1351 45.8837 78.8581 45.9828 77.5312 47.9936Z" fill="#FFD850"/>
<path d="M83.198 45.4589C83.198 45.4589 82.9111 56.1329 81.333 57.0105C79.7552 57.888 77.6509 56.8156 78.8462 54.7685C80.0416 52.7216 80.7589 52.6241 81.1893 50.2358C81.6199 47.8476 81.6199 45.4592 81.6199 45.4592H83.198V45.4589ZM86.3541 45.4589C86.3541 45.4589 85.2543 52.7701 85.6368 54.7681C86.0192 56.7667 87.7887 57.7901 89.5581 56.7176C91.3276 55.6452 90.8014 54.0855 90.8014 54.0855C90.8014 54.0855 89.3594 55.2554 88.2153 54.3778C87.0717 53.5008 87.6453 45.0686 87.6453 45.0686L86.3541 45.4589Z" fill="#FFD850"/>
<path d="M14.0988 36.3862C12.3955 36.3862 10.7941 35.7102 9.59011 34.4826C8.38557 33.2549 7.72266 31.6231 7.72266 29.887C7.72266 28.151 8.38557 26.5186 9.59011 25.2915C10.7946 24.0638 12.3955 23.3879 14.0988 23.3879C15.802 23.3879 17.4034 24.0638 18.6075 25.2915C19.812 26.5192 20.4749 28.151 20.4749 29.887C20.4749 31.6231 19.812 33.2554 18.6075 34.4826C17.4029 35.7102 15.802 36.3862 14.0988 36.3862ZM14.0988 23.5086C12.4275 23.5086 10.8558 24.1721 9.67404 25.3767C8.49209 26.5815 7.84134 28.183 7.84134 29.887C7.84134 31.5907 8.49243 33.1925 9.67404 34.3974C10.8562 35.6018 12.4275 36.2655 14.0988 36.2655C15.7701 36.2655 17.3418 35.6018 18.5239 34.3974C19.7055 33.1925 20.3566 31.591 20.3566 29.887C20.3566 28.1834 19.7055 26.5815 18.5239 25.3767C17.3418 24.1721 15.7701 23.5086 14.0988 23.5086Z" fill="#2D6BD4"/>
<path d="M14.0981 31.9277H14.0217L14.022 31.8602C14.1205 31.8607 14.2191 31.8602 14.3171 31.8589L14.3179 31.9264C14.2442 31.9273 14.1714 31.9277 14.0981 31.9277ZM13.7252 31.9243C13.6266 31.9227 13.5279 31.9201 13.4293 31.9167L13.4314 31.8492C13.5287 31.8526 13.6279 31.8552 13.7264 31.8568L13.7252 31.9243ZM14.6132 31.921L14.6114 31.8534C14.7094 31.851 14.8088 31.8476 14.9061 31.8437L14.9086 31.9112C14.8112 31.9151 14.7115 31.9185 14.6132 31.921ZM13.1337 31.9045C13.0352 31.8999 12.936 31.894 12.8383 31.888L12.8423 31.8205C12.9396 31.8269 13.039 31.8324 13.137 31.837L13.1337 31.9045ZM15.2045 31.8969L15.2008 31.8294C15.2993 31.824 15.3982 31.8177 15.4952 31.8104L15.4997 31.8779C15.4027 31.8852 15.3033 31.8914 15.2045 31.8969ZM12.5427 31.8666C12.4442 31.8586 12.3448 31.8497 12.2477 31.8403L12.2538 31.7734C12.3502 31.7826 12.4491 31.7914 12.5476 31.7994L12.5427 31.8666ZM15.7953 31.8543L15.7894 31.7872C15.8875 31.7783 15.9864 31.7691 16.0829 31.759L16.0895 31.826C15.9914 31.8364 15.8935 31.8459 15.7953 31.8543ZM11.9533 31.8092C11.8552 31.7978 11.7563 31.7856 11.6595 31.7728L11.6682 31.7059C11.7646 31.7184 11.8631 31.7307 11.9608 31.7422L11.9533 31.8092ZM16.3842 31.7923L16.3763 31.7252C16.474 31.7132 16.5716 31.7003 16.669 31.6864L16.678 31.753C16.5816 31.767 16.4827 31.7801 16.3842 31.7923ZM11.3658 31.7312C11.2682 31.7165 11.1707 31.7006 11.0734 31.6835L11.0845 31.6167C11.1797 31.6332 11.2779 31.6493 11.3759 31.664L11.366 31.7312H11.3658ZM16.9711 31.7087L16.9607 31.6421C17.0584 31.6261 17.156 31.6091 17.2513 31.5919L17.2629 31.6586C17.1673 31.6763 17.0693 31.6931 16.9711 31.7087ZM10.782 31.6298C10.685 31.6109 10.5883 31.5908 10.4918 31.5696L10.5059 31.5037C10.6002 31.5244 10.697 31.5446 10.7948 31.5636L10.782 31.6298ZM17.5539 31.6017L17.5406 31.5354C17.6379 31.5152 17.7347 31.494 17.8287 31.4722L17.8436 31.5379C17.7493 31.5599 17.652 31.5813 17.5539 31.6017ZM10.2028 31.5016C10.1069 31.4777 10.0114 31.4525 9.91611 31.4261L9.93349 31.3611C10.0254 31.3869 10.1213 31.4123 10.2186 31.4362L10.2028 31.5016ZM18.1317 31.4661L18.1152 31.4008C18.2102 31.3758 18.3049 31.3494 18.3991 31.3216L18.4177 31.3864C18.3228 31.4146 18.2275 31.4412 18.1317 31.4661ZM9.63079 31.3412C9.53627 31.3114 9.4423 31.2798 9.34894 31.2464L9.37101 31.1827C9.46033 31.2147 9.55433 31.2464 9.65025 31.2767L9.63079 31.3412ZM18.7011 31.2969L18.6805 31.233C18.7736 31.2018 18.8661 31.1686 18.9578 31.1334L18.9811 31.1967C18.8884 31.2319 18.7951 31.2654 18.7011 31.2969ZM9.07127 31.1392C8.97937 31.1013 8.88857 31.0606 8.79898 31.0173L8.82747 30.956C8.91192 30.997 9.00263 31.0375 9.09646 31.0763L9.07127 31.1392ZM19.2567 31.0827L19.2303 31.0207C19.3234 30.9789 19.4127 30.9358 19.4951 30.8924L19.5253 30.9523C19.4417 30.9966 19.351 31.0406 19.2567 31.0827ZM8.53485 30.8772C8.4438 30.824 8.359 30.7693 8.2829 30.7135L8.32112 30.6587C8.39532 30.7128 8.47821 30.7666 8.56752 30.8186L8.53485 30.8772ZM19.7844 30.8021L19.7488 30.7452C19.8362 30.689 19.9156 30.6309 19.9856 30.5726L20.0278 30.6249C19.9502 30.6888 19.8689 30.7479 19.7844 30.8021ZM8.05231 30.5182C7.97943 30.4467 7.91558 30.3662 7.86221 30.2785L7.91903 30.2436C7.96421 30.3194 8.02451 30.3958 8.09853 30.47L8.05231 30.5182ZM20.2423 30.4095L20.1914 30.3664C20.2567 30.2853 20.3059 30.2027 20.3378 30.1199L20.3995 30.1444C20.361 30.2406 20.308 30.33 20.2423 30.4095ZM7.75552 29.9874C7.75055 29.9541 7.74805 29.9204 7.74805 29.8866C7.74805 29.7849 7.77064 29.6828 7.81634 29.5833L7.87629 29.6116C7.83626 29.6976 7.81509 29.7914 7.81425 29.8866C7.81425 29.9165 7.81634 29.9474 7.82085 29.9773L7.75552 29.9874ZM20.3804 29.8414C20.3724 29.7463 20.3449 29.6539 20.2998 29.5702L20.3582 29.5386C20.4094 29.6361 20.4391 29.7365 20.4466 29.8365L20.3804 29.8414ZM8.03493 29.3719L7.98524 29.3273C8.05254 29.2512 8.1264 29.1815 8.20592 29.1189L8.24675 29.172C8.16473 29.2374 8.09366 29.3049 8.03476 29.3719H8.03493ZM20.1297 29.3374C20.0624 29.2667 19.9896 29.2018 19.9119 29.1433L19.9516 29.0893C20.0377 29.1547 20.1135 29.2225 20.1776 29.2909L20.1297 29.3374ZM8.48637 29.0041L8.45214 28.9463C8.53242 28.8965 8.62017 28.8471 8.71331 28.7994L8.74302 28.8599C8.65162 28.9066 8.56509 28.9552 8.48637 29.0041ZM19.6688 28.9791C19.5845 28.9289 19.4984 28.8819 19.4106 28.8382L19.4396 28.7775C19.5291 28.8217 19.6167 28.8695 19.7024 28.921L19.6688 28.9791ZM9.00923 28.7344L8.98317 28.6724C9.07422 28.633 9.16623 28.5959 9.25911 28.5611L9.28204 28.6244C9.18752 28.6598 9.09577 28.6969 9.00923 28.7344ZM19.1432 28.7155C19.0563 28.6788 18.964 28.6421 18.8692 28.6076L18.8916 28.5438C18.9877 28.5792 19.0808 28.6159 19.1686 28.6531L19.1432 28.7155ZM9.56059 28.5264L9.54026 28.4625C9.63166 28.4323 9.7274 28.4024 9.82419 28.3746L9.84243 28.4396C9.746 28.4671 9.65129 28.4965 9.56059 28.5264ZM18.5903 28.5114C18.4967 28.481 18.4027 28.4524 18.3081 28.4256L18.3258 28.3608C18.4231 28.3886 18.5187 28.4173 18.6101 28.4467L18.5903 28.5114ZM10.1267 28.3611L10.1106 28.2957C10.2046 28.2716 10.3013 28.2481 10.399 28.2257L10.4136 28.2915C10.3163 28.3134 10.2197 28.337 10.1267 28.3611ZM18.0233 28.3492C17.928 28.3251 17.8323 28.3023 17.7364 28.281L17.7505 28.2151C17.8469 28.2368 17.9431 28.2597 18.0389 28.2839L18.0233 28.3492ZM10.7017 28.2291L10.6888 28.1628C10.7835 28.1434 10.8817 28.1249 10.9797 28.1072L10.9914 28.1738C10.8934 28.191 10.7961 28.2096 10.7017 28.2291ZM17.448 28.2197C17.3515 28.2006 17.2549 28.1824 17.1581 28.1653L17.1694 28.0987C17.2674 28.1161 17.3656 28.1345 17.4608 28.1536L17.448 28.2197ZM11.2819 28.1244L11.2715 28.0578C11.369 28.0423 11.4668 28.0278 11.5646 28.0144L11.5738 28.0813C11.476 28.0945 11.378 28.1093 11.2819 28.1244ZM16.8667 28.1168C16.7711 28.1021 16.6731 28.0877 16.575 28.0743L16.5836 28.0071C16.6822 28.0206 16.781 28.0349 16.8768 28.0498L16.8667 28.1168ZM11.8664 28.0431L11.8585 27.9759C11.9558 27.9641 12.0548 27.9531 12.1528 27.943L12.1594 28.0101C12.0621 28.0202 11.9632 28.0312 11.8664 28.0431ZM16.2823 28.0376C16.1846 28.0261 16.0868 28.0155 15.9888 28.0059L15.9955 27.9389C16.0936 27.9485 16.193 27.9594 16.2898 27.971L16.2823 28.0376ZM12.4533 27.9827L12.448 27.9152C12.5453 27.9068 12.6444 27.8992 12.7431 27.8925L12.7476 27.96C12.6494 27.9667 12.5506 27.9743 12.4533 27.9827ZM15.695 27.9789C15.597 27.9707 15.4988 27.9633 15.4007 27.957L15.4048 27.8895C15.5033 27.8962 15.6027 27.9035 15.7 27.9114L15.695 27.9789ZM13.042 27.9417L13.0385 27.8742C13.1358 27.8693 13.2355 27.8645 13.3341 27.8608L13.3365 27.9283C13.2381 27.932 13.1391 27.9368 13.042 27.9417ZM15.1063 27.9392C15.0092 27.9341 14.9099 27.93 14.8118 27.9265L14.8142 27.859C14.9127 27.8625 15.0125 27.8671 15.1101 27.8717L15.1063 27.9392ZM13.6317 27.9194L13.63 27.8519C13.7276 27.8498 13.8276 27.8482 13.9259 27.8473L13.9264 27.9148C13.8283 27.9157 13.7294 27.9169 13.6317 27.9194ZM14.5167 27.9182C14.4183 27.9161 14.3199 27.9148 14.2215 27.9143L14.2218 27.8468C14.3209 27.8473 14.4203 27.8489 14.5179 27.8507L14.5167 27.9182Z" fill="#2D6BD4"/>
<path d="M14.0815 36.3605C13.9752 36.3576 13.8704 36.3334 13.7732 36.2893L13.801 36.2251C13.89 36.2655 13.9859 36.2877 14.0832 36.2905L14.0815 36.3605ZM14.3929 36.3018L14.3677 36.2368C14.4591 36.1987 14.5445 36.1473 14.6214 36.0841L14.664 36.139C14.5817 36.2063 14.4904 36.2611 14.3929 36.3018ZM13.5067 36.1188C13.4268 36.0506 13.3531 35.9752 13.2865 35.8934L13.3392 35.8483C13.4082 35.9319 13.4794 36.0044 13.5506 36.0648L13.5067 36.1188ZM14.8888 35.9179L14.837 35.872C14.8987 35.7994 14.9604 35.7171 15.0195 35.6268L15.0768 35.6656C15.0192 35.7535 14.9564 35.8377 14.8888 35.9179ZM13.102 35.639C13.0456 35.5508 12.993 35.4602 12.9442 35.3674L13.0047 35.3341C13.0547 35.4289 13.1068 35.5189 13.1593 35.6002L13.102 35.639ZM15.2365 35.3952L15.176 35.3614C15.2245 35.2706 15.2701 35.1782 15.3126 35.0843L15.3752 35.1139C15.3322 35.2093 15.2859 35.3031 15.2365 35.3952ZM12.8073 35.0852C12.7647 34.9897 12.7247 34.893 12.6872 34.7953L12.7515 34.7696C12.7894 34.8686 12.8297 34.9652 12.8702 35.0559L12.8073 35.0852ZM15.4968 34.8249L15.433 34.7987C15.4695 34.7055 15.5055 34.6075 15.5394 34.5072L15.6044 34.5304C15.5696 34.6316 15.5338 34.7308 15.4968 34.8249ZM12.5809 34.5003C12.5475 34.4012 12.5161 34.3015 12.4865 34.2012L12.5522 34.181C12.5824 34.2822 12.6139 34.3823 12.6458 34.4776L12.5809 34.5003ZM15.6999 34.2317L15.6343 34.211C15.6631 34.1139 15.6916 34.0136 15.7187 33.9114L15.7847 33.9296C15.7582 34.0308 15.73 34.1315 15.7001 34.2317H15.6999ZM12.4024 33.8997C12.3762 33.7986 12.3512 33.6972 12.3275 33.5955L12.3946 33.5793C12.4182 33.6819 12.4434 33.7836 12.4691 33.8819L12.4024 33.8997ZM15.861 33.6257L15.7939 33.6093C15.8172 33.5102 15.84 33.4082 15.861 33.3052L15.9284 33.3196C15.9072 33.4219 15.8847 33.524 15.861 33.6257ZM12.2606 33.2891C12.2396 33.1868 12.2198 33.0843 12.2012 32.9815L12.2688 32.969C12.2874 33.0719 12.3072 33.1748 12.3275 33.2748L12.2606 33.2891ZM15.9886 33.0124L15.921 32.9998C15.9392 32.8993 15.9571 32.796 15.9736 32.6926L16.0414 32.7041C16.0245 32.8074 16.0066 32.9115 15.9886 33.0124ZM12.1491 32.6724C12.1327 32.5692 12.1175 32.4658 12.1035 32.3623L12.1718 32.3526C12.1859 32.4558 12.2014 32.5597 12.2173 32.661L12.1491 32.6724ZM16.0878 32.3935L16.0195 32.3837C16.0336 32.282 16.0473 32.1784 16.0593 32.0746L16.1276 32.0829C16.1156 32.1872 16.1019 32.2918 16.0878 32.3935ZM12.0639 32.0517C12.0518 31.948 12.0406 31.8443 12.0304 31.7404L12.0987 31.7333C12.1091 31.837 12.1202 31.9417 12.1322 32.0434L12.0639 32.0517ZM16.162 31.7716L16.0937 31.7645C16.1041 31.6619 16.1135 31.5577 16.1222 31.4536L16.1908 31.4594C16.1818 31.5636 16.1722 31.6687 16.162 31.7716ZM12.0021 31.4282C11.9939 31.3253 11.9864 31.2202 11.9798 31.1157L12.0486 31.1109C12.0552 31.2151 12.0625 31.3198 12.0709 31.4224L12.0021 31.4282ZM16.2138 31.1469L16.145 31.1423C16.1516 31.0397 16.1578 30.9346 16.1627 30.8304L16.2315 30.8338C16.2265 30.9382 16.2206 31.0426 16.2138 31.1469ZM11.9624 30.803C11.9574 30.6987 11.9534 30.5943 11.9504 30.4899L12.0191 30.4878C12.0226 30.5921 12.026 30.6967 12.0312 30.7996L11.9624 30.803ZM16.244 30.5211L16.1752 30.5191C16.1785 30.4162 16.1809 30.3111 16.1827 30.2069L16.2513 30.2082C16.2499 30.3125 16.2475 30.4168 16.244 30.5211ZM11.9433 30.1765C11.9421 30.0803 11.9414 29.9828 11.9414 29.8871V29.8634H12.01V29.8871C12.01 29.9828 12.0109 30.0799 12.0121 30.1756L11.9433 30.1765ZM16.2543 29.8946H16.1856V29.8871C16.1856 29.7854 16.1847 29.6828 16.183 29.5829L16.2518 29.5817C16.2536 29.682 16.2543 29.7849 16.2543 29.8871V29.8946ZM12.013 29.5512L11.9442 29.55C11.9459 29.4461 11.9487 29.3407 11.9522 29.2369L12.0208 29.2396C12.0172 29.3434 12.0146 29.4473 12.013 29.5512ZM16.1755 29.2707C16.1722 29.1673 16.1682 29.0622 16.1632 28.9589L16.2318 28.9555C16.2369 29.0594 16.241 29.1648 16.2443 29.2686L16.1755 29.2707ZM12.0332 28.9274L11.9645 28.9238C11.9696 28.8196 11.9756 28.7154 11.9828 28.6113L12.0514 28.6159C12.0444 28.7188 12.0385 28.8239 12.0332 28.9274ZM16.1462 28.6471C16.1396 28.5434 16.1317 28.4387 16.1236 28.3358L16.1922 28.3299C16.2004 28.4329 16.2084 28.5379 16.2148 28.6425L16.1462 28.6471ZM12.0747 28.3046L12.0059 28.2987C12.0146 28.1944 12.0241 28.0895 12.0349 27.9869L12.1032 27.994C12.0928 28.0962 12.0834 28.2008 12.0747 28.3046ZM16.0953 28.0248C16.0851 27.9213 16.0738 27.818 16.0614 27.7148L16.1297 27.7063C16.1417 27.8088 16.1533 27.9139 16.1635 28.0177L16.0953 28.0248ZM12.1376 27.6839L12.0693 27.6756C12.0816 27.5718 12.0954 27.4671 12.1098 27.3647L12.1781 27.3748C12.1637 27.4759 12.1499 27.5803 12.1376 27.6839ZM16.0216 27.4056C16.0073 27.3026 15.992 27.1998 15.9757 27.0971L16.0435 27.0858C16.0596 27.1875 16.0751 27.2917 16.0895 27.3958L16.0216 27.4056ZM12.2245 27.0659L12.1567 27.0546C12.1732 26.9514 12.1909 26.8485 12.2099 26.7458L12.2775 26.7587C12.2589 26.8597 12.241 26.963 12.2245 27.0659ZM15.9236 26.7895C15.9052 26.6874 15.8855 26.5854 15.8645 26.4837L15.9317 26.4694C15.9526 26.5698 15.9724 26.6731 15.9913 26.777L15.9236 26.7895ZM12.3374 26.4529L12.27 26.4382C12.2915 26.3344 12.3147 26.2318 12.3378 26.1322L12.4048 26.1487C12.3817 26.2479 12.359 26.35 12.3374 26.4529ZM15.7978 26.1795C15.7741 26.0785 15.7492 25.9778 15.7229 25.8774L15.7894 25.8594C15.8155 25.9581 15.8407 26.0606 15.8647 26.1636L15.7978 26.1795ZM12.4806 25.8471L12.4146 25.8285C12.4417 25.7256 12.4707 25.6244 12.5001 25.5268L12.5661 25.5475C12.5366 25.6441 12.5081 25.7451 12.4806 25.8471ZM15.6384 25.5775C15.609 25.4781 15.5775 25.3794 15.5441 25.2814L15.6091 25.2586C15.6419 25.3548 15.6737 25.4552 15.7043 25.5573L15.6384 25.5775ZM12.6613 25.2518L12.5963 25.2286C12.6311 25.1274 12.6676 25.0282 12.7044 24.9341L12.7682 24.9604C12.7317 25.0536 12.6957 25.1514 12.6613 25.2518ZM15.4386 24.9894C15.4013 24.893 15.3615 24.7975 15.319 24.7033L15.3816 24.6742C15.4228 24.7658 15.4634 24.8633 15.5024 24.9637L15.4386 24.9894ZM12.8895 24.6751L12.8269 24.6455C12.8721 24.5468 12.919 24.4524 12.9663 24.3645L13.0264 24.3984C12.9778 24.4891 12.9322 24.5814 12.8895 24.6751ZM15.1837 24.4258C15.1356 24.3351 15.0837 24.2465 15.028 24.1604L15.0855 24.1216C15.1394 24.2047 15.1932 24.2958 15.2445 24.3925L15.1837 24.4258ZM13.1849 24.1347L13.1277 24.0954C13.1894 24.0031 13.2528 23.9187 13.3173 23.8443L13.3691 23.8908C13.3065 23.9625 13.245 24.0444 13.1849 24.1347ZM14.8468 23.9136C14.7821 23.8357 14.7105 23.7639 14.633 23.6992L14.6761 23.6448C14.7515 23.7068 14.8264 23.782 14.8989 23.8681L14.8468 23.9136ZM13.5859 23.6808L13.5442 23.625C13.6272 23.5586 13.7193 23.5051 13.8177 23.4664L13.8417 23.5321C13.7497 23.5685 13.6635 23.6186 13.5859 23.6808ZM14.3811 23.5428C14.2914 23.5038 14.195 23.4835 14.0975 23.4829V23.4129C14.2014 23.4129 14.3058 23.4347 14.4075 23.4777L14.3811 23.5428Z" fill="#2D6BD4"/>
<path d="M20.4153 29.9102H20.3884V29.8637H20.4153V29.9102ZM20.1848 29.9102H19.9816V29.8637H20.1848V29.9102ZM19.7783 29.9102H19.5752V29.8637H19.7783V29.9102ZM19.3715 29.9102H19.1682V29.8637H19.3715V29.9102ZM18.9651 29.9102H18.7618V29.8637H18.9651V29.9102ZM18.5582 29.9102H18.355V29.8637H18.5582V29.9102ZM18.1517 29.9102H17.9484V29.8637H18.1517V29.9102ZM17.7448 29.9102H17.5416V29.8637H17.7448V29.9102ZM17.3383 29.9102H17.135V29.8637H17.3383V29.9102ZM16.9315 29.9102H16.7282V29.8637H16.9315V29.9102ZM16.5246 29.9102H16.3213V29.8637H16.5246V29.9102ZM16.1181 29.9102H15.9148V29.8637H16.1181V29.9102ZM15.7114 29.9102H15.5081V29.8637H15.7114V29.9102ZM15.3048 29.9102H15.1016V29.8637H15.3049L15.3048 29.9102ZM14.8981 29.9102H14.6948V29.8637H14.8981V29.9102ZM14.4915 29.9102H14.2882V29.8637H14.4915V29.9102ZM14.0847 29.9102H13.8814V29.8637H14.0847V29.9102ZM13.6781 29.9102H13.4748V29.8637H13.6781V29.9102ZM13.2714 29.9102H13.068V29.8637H13.2714V29.9102ZM12.8647 29.9102H12.6616V29.8637H12.8649L12.8647 29.9102ZM12.4581 29.9102H12.2548V29.8637H12.4581V29.9102ZM12.0512 29.9102H11.8479V29.8637H12.0512V29.9102ZM11.6446 29.9102H11.4414V29.8637H11.6447L11.6446 29.9102ZM11.238 29.9102H11.0347V29.8637H11.238V29.9102ZM10.8313 29.9102H10.628V29.8637H10.8313V29.9102ZM10.4246 29.9102H10.2213V29.8637H10.4246V29.9102ZM10.018 29.9102H9.81482V29.8637H10.0181L10.018 29.9102ZM9.61117 29.9102H9.40786V29.8637H9.61117V29.9102ZM9.20456 29.9102H9.00143V29.8637H9.20473L9.20456 29.9102ZM8.79795 29.9102H8.59464V29.8637H8.79795V29.9102ZM8.39134 29.9102H8.18803V29.8637H8.39134V29.9102ZM7.98456 29.9102H7.78125V29.8637H7.98456V29.9102Z" fill="#2D6BD4"/>
<path d="M14.1221 36.3259H14.0762V36.2985H14.1223L14.1221 36.3259ZM14.1221 36.0908H14.0762V35.8837H14.1223L14.1221 36.0908ZM14.1221 35.6766H14.0762V35.4695H14.1223L14.1221 35.6766ZM14.1221 35.2618H14.0762V35.0547H14.1223L14.1221 35.2618ZM14.1221 34.8476H14.0762V34.6404H14.1223L14.1221 34.8476ZM14.1221 34.4328H14.0762V34.2257H14.1223L14.1221 34.4328ZM14.1221 34.0185H14.0762V33.8114H14.1223L14.1221 34.0185ZM14.1221 33.6038H14.0762V33.3967H14.1223L14.1221 33.6038ZM14.1221 33.1895H14.0762V32.9824H14.1223L14.1221 33.1895ZM14.1221 32.7749H14.0762V32.5676H14.1223L14.1221 32.7749ZM14.1221 32.3605H14.0762V32.1534H14.1223L14.1221 32.3605ZM14.1221 31.9459H14.0762V31.7386H14.1223L14.1221 31.9459ZM14.1221 31.5312H14.0762V31.324H14.1223L14.1221 31.5312ZM14.1221 31.1169H14.0762V30.9096H14.1223L14.1221 31.1169ZM14.1221 30.7021H14.0762V30.495H14.1223L14.1221 30.7021ZM14.1221 30.2879H14.0762V30.0808H14.1223L14.1221 30.2879ZM14.1221 29.8731H14.0762V29.666H14.1223L14.1221 29.8731ZM14.1221 29.4589H14.0762V29.2518H14.1223L14.1221 29.4589ZM14.1221 29.0441H14.0762V28.837H14.1223L14.1221 29.0441ZM14.1221 28.6299H14.0762V28.4228H14.1223L14.1221 28.6299ZM14.1221 28.2151H14.0762V28.008H14.1223L14.1221 28.2151ZM14.1221 27.8009H14.0762V27.5937H14.1223L14.1221 27.8009ZM14.1221 27.3861H14.0762V27.179H14.1223L14.1221 27.3861ZM14.1221 26.9713H14.0762V26.7642H14.1223L14.1221 26.9713ZM14.1221 26.5571H14.0762V26.35H14.1223L14.1221 26.5571ZM14.1221 26.1423H14.0762V25.9352H14.1223L14.1221 26.1423ZM14.1221 25.7281H14.0762V25.521H14.1223L14.1221 25.7281ZM14.1221 25.3135H14.0762V25.1062H14.1223L14.1221 25.3135ZM14.1221 24.8991H14.0762V24.6919H14.1223L14.1221 24.8991ZM14.1221 24.4845H14.0762V24.2772H14.1223L14.1221 24.4845ZM14.1221 24.07H14.0762V23.8629H14.1223L14.1221 24.07ZM14.1221 23.6555H14.0762V23.4483H14.1223L14.1221 23.6555Z" fill="#2D6BD4"/>
<path opacity="0.5" d="M81.1674 24.8303L75.5293 23.2107L75.6237 21.2607L84.0222 15.6012L86.1654 16.2167L84.172 23.4258L85.7217 23.8709L85.1409 25.9715L83.5913 25.5265L82.8898 28.0642L80.4663 27.368L81.1674 24.8303ZM81.7482 22.7297L82.761 19.0666L78.6816 21.849L81.7482 22.7297Z" fill="#2D6BD4"/>
<path d="M33.0568 17.815L33.7986 15.2216C35.0398 15.644 36.1173 15.7323 37.1561 15.2674C38.3627 14.7273 38.859 13.792 38.3879 12.6988C37.9464 11.674 36.8341 11.4589 35.611 12.0066C34.8739 12.3365 34.2919 12.8414 33.8421 13.3283L31.9166 12.9881L29.7129 6.94623L36.9182 3.72072L37.9115 6.02633L32.9182 8.26142L33.6744 10.3883C34.0919 10.0587 34.474 9.78585 35.1276 9.49351C37.4065 8.47332 39.7186 8.78303 40.8959 11.5158C41.9849 14.0438 40.9173 16.4367 38.2196 17.6442C36.3429 18.4833 34.6747 18.4149 33.0568 17.815Z" fill="#FF8550"/>
<path d="M33.5664 51.0391L38.5788 45.258C41.0155 47.7914 43.1674 49.0896 46.2837 49.4668C50.8263 50.0169 53.6637 46.8114 54.7821 41.8147C52.8039 43.1584 50.2027 43.8809 46.9804 43.4908C38.9517 42.5188 34.3025 37.3697 35.2059 29.6166C36.0905 22.0252 42.5007 17.1235 50.8463 18.1337C55.8114 18.7351 58.5722 20.3251 61.039 23.5174C63.3664 26.5293 64.6326 30.8322 63.7542 38.3695C62.3301 50.5906 55.7054 58.2512 45.1944 56.9788C39.8065 56.3262 36.3753 54.0543 33.5664 51.0391ZM56.1077 31.8198C56.4969 28.4818 54.3496 25.7649 50.2824 25.2726C46.2679 24.7866 43.7209 26.8803 43.3193 30.3258C42.9303 33.6638 45.0905 36.2731 49.1045 36.7591C53.1186 37.2451 55.7187 35.1576 56.1077 31.8198Z" fill="#2D6BD4"/>
<path d="M31.1901 53.6696H19.2754V49.0554H31.2299C32.1959 49.0554 32.9794 49.8536 32.9794 50.8387V51.8458C32.9794 52.8532 32.1781 53.6696 31.1901 53.6696Z" fill="#FCECDB"/>
<path d="M43.2009 50.9539V51.6479C43.2009 52.0187 43.1093 52.3663 42.9496 52.6647C42.6285 53.2655 42.0316 53.6691 41.3479 53.6691H18.9091C18.7605 53.6691 18.6406 53.538 18.6406 53.3764V53.2726C18.6406 53.111 18.761 52.9793 18.9091 52.9793H32.5875C32.6608 52.8819 32.725 52.7768 32.7795 52.6647C32.9121 52.3903 32.9807 52.0884 32.9799 51.7825V50.9C32.9799 50.7375 32.9609 50.5802 32.9244 50.4303C32.8649 50.1825 32.7571 49.9495 32.6073 49.7452H18.9091C18.7605 49.7452 18.6406 49.614 18.6406 49.4521V49.3483C18.6406 49.1862 18.761 49.055 18.9091 49.055H41.4608C42.2555 49.055 42.9257 49.6364 43.1338 50.4303C43.1778 50.597 43.2009 50.7726 43.2009 50.9539Z" fill="#699DEE"/>
<path d="M43.1338 50.4308H32.9248C32.8655 50.183 32.7577 49.95 32.6078 49.7457H18.9091C18.7605 49.7457 18.6406 49.6144 18.6406 49.4525V49.3486C18.6406 49.1867 18.761 49.0554 18.9091 49.0554H41.4608C42.2554 49.0554 42.926 49.6369 43.1338 50.4308Z" fill="#548EE2"/>
<path d="M19.2754 51.3628L20.9369 51.4404L19.2754 51.4868V51.3628ZM19.2754 52.0867L23.2278 52.1643L19.2754 52.2107V52.0867Z" fill="#F4D2B8"/>
<path d="M23.2794 57.249H34.9756V53.6599H23.1763C22.3002 53.6599 21.5898 54.3838 21.5898 55.277V55.5263C21.5898 56.4781 22.3464 57.249 23.2794 57.249Z" fill="#505ABA"/>
<path d="M34.412 57.249H47.7422V53.6599H34.3751C33.4839 53.6599 32.7617 54.3961 32.7617 55.3044V55.5672C32.7621 56.4963 33.5009 57.249 34.412 57.249Z" fill="#FCECDB"/>
<path d="M31.8817 57.249H48.1925C48.2575 57.249 48.3198 57.2226 48.3658 57.1758C48.4117 57.1289 48.4375 57.0654 48.4375 56.9991V56.9621C48.4375 56.9293 48.4312 56.8968 48.4189 56.8665C48.4066 56.8362 48.3885 56.8087 48.3658 56.7855C48.343 56.7623 48.316 56.7439 48.2863 56.7313C48.2566 56.7188 48.2247 56.7123 48.1925 56.7123H31.8817C31.8496 56.7123 31.8177 56.7188 31.788 56.7313C31.7582 56.7439 31.7312 56.7623 31.7085 56.7855C31.6857 56.8087 31.6677 56.8362 31.6554 56.8665C31.6431 56.8968 31.6367 56.9293 31.6367 56.9621V56.9991C31.6367 57.1372 31.7464 57.249 31.8817 57.249ZM31.8817 54.1969H48.1925C48.2575 54.1969 48.3198 54.1706 48.3657 54.1238C48.4116 54.077 48.4375 54.0135 48.4375 53.9473V53.9101C48.4375 53.8438 48.4116 53.7803 48.3657 53.7335C48.3198 53.6867 48.2575 53.6604 48.1925 53.6604H31.8817C31.8168 53.6604 31.7545 53.6867 31.7085 53.7335C31.6626 53.7803 31.6368 53.8438 31.6367 53.9101V53.9473C31.6368 54.0135 31.6626 54.077 31.7085 54.1238C31.7545 54.1706 31.8168 54.1969 31.8817 54.1969Z" fill="#505ABA"/>
<path d="M47.7408 55.4547L45.9246 55.5149L47.7408 55.5512V55.4547ZM47.7408 54.6285L43.4199 54.6889L47.7408 54.7252V54.6285Z" fill="#F4D2B8"/>
<path d="M43.4648 54.6771C43.4648 54.6771 43.6497 54.8316 43.7111 55.0846C43.7218 55.1289 43.7288 55.1765 43.73 55.2263C43.7404 55.5629 43.73 56.3253 43.73 56.3253L44.2768 55.9444L44.8219 56.3253V55.2922C44.8219 55.0968 44.7752 54.907 44.6883 54.7825C44.6461 54.7222 44.5952 54.6771 44.5371 54.6771H43.4648Z" fill="#F99746"/>
<path d="M43.4648 54.6771C43.4648 54.6771 43.6497 54.8316 43.7111 55.0846L44.8067 55.0998C44.8067 55.0998 44.7636 54.7369 44.5377 54.6771H43.4648Z" fill="#ED7D2B"/>
<path d="M33.1012 49.0651H20.5195V43.792H33.1449C34.2096 43.792 35.0722 44.6717 35.0722 45.7564V47.0558C35.0725 48.1656 34.1901 49.0651 33.1012 49.0651Z" fill="#FCECDB"/>
<path d="M35.0793 45.8382V46.973C35.0763 47.4578 34.8367 47.8784 34.4854 48.1032C34.31 48.216 34.107 48.2761 33.8996 48.2767H20.1364C19.9749 48.2767 19.8443 48.4231 19.8443 48.604V48.7377C19.8443 48.9188 19.9749 49.0651 20.1364 49.0651H43.9119C44.5941 49.0651 45.1973 48.6851 45.5615 48.1029C45.7912 47.7361 45.9257 47.2895 45.9257 46.8072V45.9119C45.9257 45.5817 45.8583 45.2686 45.7377 44.9902C45.4319 44.281 44.7846 43.7924 44.035 43.7924H20.136C19.9746 43.7924 19.8438 43.9389 19.8438 44.1194V44.2532C19.8438 44.4341 19.9746 44.5804 20.136 44.5804H33.941C34.2709 44.5804 34.5698 44.7379 34.7783 44.9897C34.9634 45.2133 35.0772 45.5108 35.0793 45.8382Z" fill="#F99746"/>
<path d="M19.8438 48.6039V48.7377C19.8438 48.9188 19.9744 49.0651 20.1359 49.0651H43.9116C44.5936 49.0651 45.1967 48.6851 45.561 48.1029H34.4848C34.3094 48.2156 34.1064 48.2757 33.8991 48.2762H20.1359C19.9744 48.2767 19.8438 48.423 19.8438 48.6039Z" fill="#ED7D2B"/>
<path d="M20.5195 46.4288L22.2841 46.5173L20.5195 46.571V46.4288ZM20.5195 45.2151L24.717 45.3037L20.5195 45.3572V45.2151Z" fill="#F4D2B8"/>
<path d="M32.8845 45.2863C32.8845 45.2863 32.6075 45.4534 32.5157 45.7285C32.4989 45.778 32.4893 45.8297 32.4871 45.882C32.4718 46.2473 32.4871 47.0738 32.4871 47.0738L31.6692 46.6608L30.8535 47.0738V45.9537C30.8535 45.742 30.9234 45.5361 31.0533 45.4011C31.1162 45.3357 31.1929 45.2863 31.2794 45.2863H32.8845Z" fill="#F99746"/>
<path d="M32.8848 45.2863C32.8848 45.2863 32.6078 45.4534 32.5161 45.7285L30.877 45.7448C30.877 45.7448 30.9411 45.3513 31.2797 45.2863H32.8848Z" fill="#ED7D2B"/>
<path d="M71.7587 38.1216L67.8358 39.14L67.0742 36.0915L70.9971 35.0731L70.0034 31.0964L73.0813 30.2973L74.075 34.274L77.9979 33.2556L78.7596 36.3041L74.8366 37.3226L75.8304 41.2993L72.7525 42.0982L71.7587 38.1216Z" fill="#505ABA"/>
<path d="M9.96306 55.9979C9.96306 56.0443 9.9655 56.0907 9.97141 56.1354C9.98826 56.2798 10.0322 56.416 10.0976 56.5383C10.1485 56.6333 10.2124 56.7204 10.2875 56.797C10.3903 56.9021 10.5126 56.9854 10.6471 57.0422C10.7817 57.099 10.9259 57.128 11.0715 57.1278H26.6629C26.9569 57.1278 27.2388 57.0088 27.4468 56.7969C27.6547 56.5851 27.7716 56.2976 27.7717 55.9979C27.7719 55.8494 27.7433 55.7024 27.6876 55.5652C27.6318 55.4281 27.55 55.3036 27.4468 55.1988C27.344 55.0937 27.2218 55.0103 27.0873 54.9535C26.9527 54.8966 26.8085 54.8675 26.6629 54.8677H11.0715C10.9259 54.8676 10.7818 54.8968 10.6472 54.9536C10.5127 55.0104 10.3905 55.0936 10.2876 55.1986C10.1846 55.3036 10.1029 55.4282 10.0472 55.5653C9.99153 55.7025 9.96287 55.8495 9.96289 55.9979H9.96306ZM11.1521 54.6631H16.4977C16.5428 54.663 16.586 54.6447 16.6179 54.6122C16.6498 54.5797 16.6678 54.5356 16.668 54.4896C16.6678 54.4436 16.6498 54.3996 16.6179 54.3671C16.586 54.3346 16.5428 54.3164 16.4977 54.3163H11.1521C11.1071 54.3164 11.0639 54.3347 11.032 54.3672C11.0001 54.3996 10.9822 54.4436 10.982 54.4896C10.982 54.5849 11.0583 54.6631 11.1521 54.6631Z" fill="#FFD850"/>
<path d="M11.4476 54.8677H12.0271V54.6631H11.4476V54.8677ZM10.0977 56.5383C10.1487 56.6333 10.2127 56.7204 10.2878 56.797C10.3906 56.9021 10.5128 56.9854 10.6473 57.0422C10.7818 57.0989 10.926 57.128 11.0716 57.1278H14.3742V56.5383H10.0977Z" fill="#EA642F"/>
<path d="M29.8356 55.6668V56.3287C29.8356 56.5406 29.7531 56.7438 29.6062 56.8937C29.4592 57.0435 29.2599 57.1277 29.0521 57.1278H12.8108C12.7079 57.1278 12.606 57.1071 12.5109 57.067C12.4159 57.0268 12.3295 56.968 12.2567 56.8938C12.184 56.8196 12.1262 56.7315 12.0869 56.6345C12.0475 56.5375 12.0273 56.4336 12.0273 56.3287V55.6668C12.0273 55.5618 12.0476 55.4579 12.087 55.3609C12.1263 55.264 12.1841 55.1759 12.2568 55.1017C12.3296 55.0275 12.416 54.9686 12.5111 54.9285C12.6062 54.8883 12.7081 54.8677 12.811 54.8677H29.0521C29.155 54.8677 29.257 54.8883 29.352 54.9285C29.4471 54.9686 29.5335 55.0275 29.6063 55.1017C29.679 55.1759 29.7367 55.264 29.7761 55.361C29.8155 55.4579 29.8357 55.5618 29.8356 55.6668Z" fill="#F99746"/>
<path d="M29.8084 56.5383C29.7633 56.7076 29.6648 56.857 29.5281 56.9635C29.3915 57.07 29.2242 57.1278 29.0522 57.1278H12.8109C12.6389 57.1278 12.4716 57.0701 12.3349 56.9636C12.1982 56.857 12.0998 56.7076 12.0547 56.5383H29.8084Z" fill="#EF873A"/>
<path d="M28.2227 56.0018C28.2227 56.3528 28.3481 56.6666 28.5452 56.8742L28.5584 56.888C28.7111 57.0429 28.9045 57.1357 29.1148 57.1357C29.4434 57.1357 30.2583 56.6303 30.7633 56.2945C31.0149 56.1271 31.1897 56.0018 31.1897 56.0018C31.1897 56.0018 31.0149 55.8764 30.7633 55.7093C30.2583 55.3732 29.4434 54.8677 29.1148 54.8677C29.0195 54.8677 28.928 54.8866 28.842 54.9217C28.697 54.9813 28.5679 55.0861 28.4661 55.2242C28.354 55.3753 28.2741 55.5659 28.2402 55.7773C28.2284 55.8515 28.2226 55.9266 28.2227 56.0018Z" fill="#2D6BD4"/>
<path d="M28.4668 55.2238L30.9607 55.9178L28.8426 54.9212C28.6979 54.9807 28.5686 55.0863 28.4668 55.2238Z" fill="#EBF3FA"/>
<path d="M30.6016 56.0018C30.6016 56.1368 30.6695 56.252 30.7644 56.2945C30.908 56.1992 31.0501 56.1016 31.1906 56.0018C31.1906 56.0018 31.016 55.8764 30.7644 55.7093C30.6695 55.7516 30.6016 55.8663 30.6016 56.0018Z" fill="#F99746"/>
</svg>
