<svg width="21" height="21" viewBox="0 0 21 21" fill="none" xmlns="http://www.w3.org/2000/svg">
<path d="M13.0002 5.99999H13.0102M10.5002 19H4.00024C3.20459 19 2.44153 18.6839 1.87892 18.1213C1.31631 17.5587 1.00024 16.7956 1.00024 16V3.99999C1.00024 3.20434 1.31631 2.44128 1.87892 1.87867C2.44153 1.31606 3.20459 0.999992 4.00024 0.999992H16.0002C16.7959 0.999992 17.559 1.31606 18.1216 1.87867C18.6842 2.44128 19.0002 3.20434 19.0002 3.99999V10.5" stroke="black" stroke-width="1.86594" stroke-linecap="round" stroke-linejoin="round"/>
<path d="M1.00024 14L6.00024 8.99998C6.92824 8.10698 8.07224 8.10698 9.00024 8.99998L12.5002 12.5" stroke="black" stroke-width="1.86594" stroke-linecap="round" stroke-linejoin="round"/>
<path d="M12.0007 12L13.0007 11C13.6797 10.347 14.4737 10.171 15.2147 10.474M17.0007 20V14M17.0007 14L20.0007 17M17.0007 14L14.0007 17" stroke="black" stroke-width="1.86594" stroke-linecap="round" stroke-linejoin="round"/>
</svg>
